{
  "accessors": [
    {
      "bufferView": 2,
      "componentType": 5126,
      "count": 1223,
      "max": [
        0.05253539979457855,
        0.9876930117607117,
        -0.4010689854621887
      ],
      "min": [
        -0.05253539979457855,
        0.9587969779968262,
        -0.5061399936676025
      ],
      "type": "VEC3"
    },
    {
      "bufferView": 2,
      "byteOffset": 14676,
      "componentType": 5126,
      "count": 1223,
      "max": [
        1.0,
        1.0,
        1.0
      ],
      "min": [
        -1.0,
        -0.5535070300102234,
        -1.0
      ],
      "type": "VEC3"
    },
    {
      "bufferView": 3,
      "componentType": 5126,
      "count": 1223,
      "max": [
        0.9517918229103088,
        1.0,
        0.9992616176605225,
        1.0
      ],
      "min": [
        -0.9990174174308777,
        -1.0,
        -0.8197267651557922,
        1.0
      ],
      "type": "VEC4"
    },
    {
      "bufferView": 1,
      "componentType": 5126,
      "count": 1223,
      "max": [
        0.6765990257263184,
        0.7905269861221313
      ],
      "min": [
        0.05697660148143768,
        0.5483480095863342
      ],
      "type": "VEC2"
    },
    {
      "bufferView": 0,
      "componentType": 5125,
      "count": 5172,
      "type": "SCALAR"
    },
    {
      "bufferView": 2,
      "byteOffset": 29352,
      "componentType": 5126,
      "count": 556,
      "max": [
        0.07537080347537994,
        1.0,
        0.4796470105648041
      ],
      "min": [
        -0.07537080347537994,
        0.9574559926986694,
        0.32890498638153076
      ],
      "type": "VEC3"
    },
    {
      "bufferView": 2,
      "byteOffset": 36024,
      "componentType": 5126,
      "count": 556,
      "max": [
        0.9947347640991211,
        1.0,
        0.9947347640991211
      ],
      "min": [
        -0.9947347640991211,
        -0.6302570104598999,
        -0.9947347640991211
      ],
      "type": "VEC3"
    },
    {
      "bufferView": 3,
      "byteOffset": 19568,
      "componentType": 5126,
      "count": 556,
      "max": [
        0.9999620914459229,
        1.0,
        0.8398857116699219,
        1.0
      ],
      "min": [
        -0.8397670984268188,
        -1.0,
        -0.8374855518341064,
        1.0
      ],
      "type": "VEC4"
    },
    {
      "bufferView": 1,
      "byteOffset": 9784,
      "componentType": 5126,
      "count": 556,
      "max": [
        0.7075099945068359,
        0.8046479821205139
      ],
      "min": [
        0.0,
        0.47597599029541016
      ],
      "type": "VEC2"
    },
    {
      "bufferView": 0,
      "byteOffset": 20688,
      "componentType": 5125,
      "count": 2004,
      "type": "SCALAR"
    },
    {
      "bufferView": 2,
      "byteOffset": 42696,
      "componentType": 5126,
      "count": 1156,
      "max": [
        0.6234650015830994,
        0.9856809973716736,
        0.6234650015830994
      ],
      "min": [
        -0.6234650015830994,
        -1.0,
        -0.6234650015830994
      ],
      "type": "VEC3"
    },
    {
      "bufferView": 2,
      "byteOffset": 56568,
      "componentType": 5126,
      "count": 1156,
      "max": [
        1.0,
        1.0,
        1.0
      ],
      "min": [
        -1.0,
        -0.9989463686943054,
        -1.0
      ],
      "type": "VEC3"
    },
    {
      "bufferView": 3,
      "byteOffset": 28464,
      "componentType": 5126,
      "count": 1156,
      "max": [
        0.999937117099762,
        0.9999989867210388,
        0.9999998807907104,
        1.0
      ],
      "min": [
        -0.9999991655349731,
        -1.0,
        -0.9999998807907104,
        -1.0
      ],
      "type": "VEC4"
    },
    {
      "bufferView": 1,
      "byteOffset": 14232,
      "componentType": 5126,
      "count": 1156,
      "max": [
        1.0,
        1.0
      ],
      "min": [
        0.0,
        0.0
      ],
      "type": "VEC2"
    },
    {
      "bufferView": 0,
      "byteOffset": 28704,
      "componentType": 5125,
      "count": 4788,
      "type": "SCALAR"
    }
  ],
  "asset": {
    "extras": {
      "author": "Noah (https://sketchfab.com/Noahouou)",
      "license": "CC-BY-4.0 (http://creativecommons.org/licenses/by/4.0/)",
      "source": "https://sketchfab.com/3d-models/explosive-barrel-4b5d41298d6f4914911699a16f10704c",
      "title": "Explosive barrel"
    },
    "generator": "Sketchfab-12.63.0",
    "version": "2.0"
  },
  "bufferViews": [
    {
      "buffer": 0,
      "byteLength": 47856,
      "name": "floatBufferViews",
      "target": 34963
    },
    {
      "buffer": 0,
      "byteLength": 23480,
      "byteOffset": 47856,
      "byteStride": 8,
      "name": "floatBufferViews",
      "target": 34962
    },
    {
      "buffer": 0,
      "byteLength": 70440,
      "byteOffset": 71336,
      "byteStride": 12,
      "name": "floatBufferViews",
      "target": 34962
    },
    {
      "buffer": 0,
      "byteLength": 46960,
      "byteOffset": 141776,
      "byteStride": 16,
      "name": "floatBufferViews",
      "target": 34962
    }
  ],
  "buffers": [
    {
      "byteLength": 188736,
      "uri": "scene.bin"
    }
  ],
  "images": [
    {
      "uri": "textures/Base_barrel_baseColor.jpeg"
    },
    {
      "uri": "textures/Base_barrel_metallicRoughness.png"
    },
    {
      "uri": "textures/Base_barrel_normal.png"
    },
    {
      "uri": "textures/material_baseColor.jpeg"
    },
    {
      "uri": "textures/material_metallicRoughness.png"
    },
    {
      "uri": "textures/material_normal.png"
    },
    {
      "uri": "textures/material_2_baseColor.jpeg"
    },
    {
      "uri": "textures/material_2_metallicRoughness.png"
    },
    {
      "uri": "textures/material_2_normal.png"
    }
  ],
  "materials": [
    {
      "doubleSided": true,
      "name": "Base_barrel",
      "normalTexture": {
        "index": 2
      },
      "pbrMetallicRoughness": {
        "baseColorTexture": {
          "index": 0
        },
        "metallicRoughnessTexture": {
          "index": 1
        }
      }
    },
    {
      "doubleSided": true,
      "name": "material",
      "normalTexture": {
        "index": 5
      },
      "pbrMetallicRoughness": {
        "baseColorTexture": {
          "index": 3
        },
        "metallicRoughnessTexture": {
          "index": 4
        }
      }
    },
    {
      "doubleSided": true,
      "name": "material_2",
      "normalTexture": {
        "index": 8
      },
      "pbrMetallicRoughness": {
        "baseColorTexture": {
          "index": 6
        },
        "metallicRoughnessTexture": {
          "index": 7
        }
      }
    }
  ],
  "meshes": [
    {
      "name": "defaultMaterial",
      "primitives": [
        {
          "attributes": {
            "NORMAL": 1,
            "POSITION": 0,
            "TANGENT": 2,
            "TEXCOORD_0": 3
          },
          "indices": 4,
          "material": 2,
          "mode": 4
        }
      ]
    },
    {
      "name": "defaultMaterial",
      "primitives": [
        {
          "attributes": {
            "NORMAL": 6,
            "POSITION": 5,
            "TANGENT": 7,
            "TEXCOORD_0": 8
          },
          "indices": 9,
          "material": 1,
          "mode": 4
        }
      ]
    },
    {
      "name": "defaultMaterial",
      "primitives": [
        {
          "attributes": {
            "NORMAL": 11,
            "POSITION": 10,
            "TANGENT": 12,
            "TEXCOORD_0": 13
          },
          "indices": 14,
          "material": 0,
          "mode": 4
        }
      ]
    }
  ],
  "nodes": [
    {
      "children": [
        1
      ],
      "matrix": [
        1.0,
        0.0,
        0.0,
        0.0,
        0.0,
        2.220446049250313e-16,
        -1.0,
        0.0,
        0.0,
        1.0,
        2.220446049250313e-16,
        0.0,
        0.0,
        0.0,
        0.0,
        1.0
      ],
      "name": "Sketchfab_model"
    },
    {
      "children": [
        2,
        4,
        6
      ],
      "matrix": [
        1.0,
        0.0,
        0.0,
        0.0,
        0.0,
        -4.371139006309477e-08,
        0.999999999999999,
        0.0,
        0.0,
        -0.999999999999999,
        -4.371139006309477e-08,
        0.0,
        0.0,
        0.0,
        0.0,
        1.0
      ],
      "name": "Collada visual scene group"
    },
    {
      "children": [
        3
      ],
      "name": "Cylinder"
    },
    {
      "mesh": 0,
      "name": "defaultMaterial"
    },
    {
      "children": [
        5
      ],
      "name": "Cylinder"
    },
    {
      "mesh": 1,
      "name": "defaultMaterial"
    },
    {
      "children": [
        7
      ],
      "name": "Cylinder"
    },
    {
      "mesh": 2,
      "name": "defaultMaterial"
    }
  ],
  "samplers": [
    {
      "magFilter": 9729,
      "minFilter": 9987,
      "wrapS": 10497,
      "wrapT": 10497
    }
  ],
  "scene": 0,
  "scenes": [
    {
      "name": "Sketchfab_Scene",
      "nodes": [
        0
      ]
    }
  ],
  "textures": [
    {
      "sampler": 0,
      "source": 0
    },
    {
      "sampler": 0,
      "source": 1
    },
    {
      "sampler": 0,
      "source": 2
    },
    {
      "sampler": 0,
      "source": 3
    },
    {
      "sampler": 0,
      "source": 4
    },
    {
      "sampler": 0,
      "source": 5
    },
    {
      "sampler": 0,
      "source": 6
    },
    {
      "sampler": 0,
      "source": 7
    },
    {
      "sampler": 0,
      "source": 8
    }
  ]
}
