<?xml version="1.0" encoding="UTF-8"?>
<svg id="Layer_1" data-name="Layer 1" xmlns="http://www.w3.org/2000/svg" viewBox="0 0 219.03 176.11">
  <defs>
    <style>
      .cls-1 {
        fill: none;
        stroke: #fff;
        stroke-miterlimit: 10;
      }

      .cls-2 {
        fill: #fff;
        stroke-width: 0px;
      }
    </style>
  </defs>
  <g>
    <path class="cls-2" d="M.66,140.01c-.23,0-.4-.09-.51-.27-.1-.18-.16-.38-.16-.59.03-.44.13-.69.31-.74.18-.05.4-.08.66-.08.83,0,1.42-.15,1.76-.45.34-.3.55-.68.64-1.13.09-.45.14-.93.14-1.42v-15.48c0-.49-.05-.97-.14-1.42-.09-.45-.31-.83-.64-1.13-.34-.3-.92-.45-1.76-.45-.26,0-.48-.03-.66-.08-.18-.05-.29-.3-.31-.74,0-.21.05-.4.16-.58.1-.18.27-.27.51-.27.83.03,1.62.05,2.36.08.74.03,1.5.04,2.28.04h11.27c.29,0,.53.06.72.19.19.13.29.38.29.74l.12,5.46c0,.26-.12.46-.37.58-.25.13-.48.19-.68.19-.29,0-.55-.06-.8-.18-.25-.12-.4-.29-.45-.53-.16-1.17-.36-2.11-.6-2.83-.25-.71-.61-1.23-1.09-1.56-.48-.32-1.18-.5-2.09-.53h-4.25v10.14h6.98c.21.03.36.13.47.31.1.18.16.38.16.58,0,.18-.05.36-.16.53-.1.17-.26.25-.47.25h-6.98v6.67c.03.49.08.97.16,1.42.08.46.29.83.64,1.13s.93.45,1.74.45c.26,0,.48.03.66.08.18.05.29.3.31.74,0,.21-.05.4-.16.59-.1.18-.29.27-.55.27-1.66-.08-3.28-.12-4.84-.12-.78,0-1.55,0-2.3.02-.75.01-1.55.04-2.38.1Z"/>
    <path class="cls-2" d="M21.61,140.01c-.23,0-.4-.09-.51-.27-.1-.18-.16-.38-.16-.59.03-.44.13-.69.31-.74.18-.05.4-.08.66-.08.83,0,1.42-.15,1.76-.45.34-.3.55-.68.64-1.13.09-.45.14-.93.14-1.42v-15.48c0-.49-.05-.97-.14-1.42-.09-.45-.31-.83-.64-1.13-.34-.3-.92-.45-1.76-.45-.26,0-.48-.03-.66-.08-.18-.05-.29-.3-.31-.74,0-.21.05-.4.16-.58.1-.18.27-.27.51-.27.86.03,1.65.05,2.38.08.73.03,1.48.04,2.26.04h12.25c.29,0,.53.06.72.19.19.13.29.38.29.74l.12,5.46c0,.26-.12.46-.37.58-.25.13-.47.19-.68.19-.29,0-.55-.06-.78-.18-.23-.12-.38-.29-.43-.53-.18-1.17-.4-2.11-.64-2.83-.25-.71-.61-1.23-1.09-1.56-.48-.32-1.18-.5-2.09-.53h-5.23v9.91h7.06c.21.03.36.13.45.31.09.18.14.38.14.58,0,.18-.05.36-.14.53-.09.17-.24.25-.45.25h-7.06v7.37c.03.34.08.71.16,1.11.08.4.31.75.68,1.03.38.29,1.01.42,1.89.39h3.59c.91-.03,1.6-.18,2.09-.45.48-.27.86-.73,1.15-1.38.29-.65.6-1.55.94-2.69.1-.26.28-.43.53-.51.25-.08.51-.09.8-.04.21.03.42.12.64.27.22.16.32.36.29.62l-.78,4.91c-.08.36-.2.59-.37.68-.17.09-.42.14-.76.14h-12.87c-.78,0-1.54,0-2.28.02-.74.01-1.54.04-2.4.1Z"/>
    <path class="cls-2" d="M45.79,140.01c-.26,0-.44-.09-.55-.27-.1-.18-.16-.38-.16-.59.03-.44.13-.69.31-.74.18-.05.4-.08.66-.08.83,0,1.42-.15,1.76-.45.34-.3.55-.68.64-1.13.09-.45.14-.93.14-1.42v-15.44c0-.49-.05-.98-.14-1.44-.09-.47-.31-.85-.64-1.15-.34-.3-.92-.45-1.76-.45-.26,0-.48-.03-.66-.08-.18-.05-.29-.3-.31-.74,0-.21.05-.4.16-.58.1-.18.29-.27.55-.27.83.03,1.62.05,2.36.08.74.03,1.5.04,2.28.04h6.71c2.11.03,3.82.35,5.13.98,1.31.62,2.27,1.42,2.87,2.38.6.96.9,1.96.9,3,0,1.38-.55,2.68-1.66,3.9-1.11,1.22-2.66,2.09-4.66,2.61.99,1.56,1.99,3.13,3,4.7,1.01,1.57,2.18,3.05,3.51,4.43.36.29.72.52,1.07.7.35.18.77.3,1.27.35.21.03.42.06.62.1s.33.28.35.72c0,.21-.05.4-.16.59-.1.18-.29.27-.55.27-.55-.03-.98-.05-1.31-.06-.33-.01-.64-.03-.96-.04-.31-.01-.73-.02-1.25-.02-1.07-.21-1.97-.58-2.71-1.13s-1.46-1.3-2.16-2.26c-.73-.99-1.4-1.99-2.03-3s-1.24-2-1.83-2.96c-.34-.55-.68-.94-1.03-1.19s-1.01-.37-1.97-.37h-1.13v6.36c.03.49.08.97.16,1.42.08.46.29.83.64,1.13s.93.45,1.74.45c.26,0,.48.03.66.08.18.05.29.3.31.74,0,.21-.05.4-.16.59-.1.18-.29.27-.55.27-1.66-.08-3.29-.12-4.88-.12-.78,0-1.53,0-2.26.02-.73.01-1.51.04-2.34.1ZM52.46,127.45h3.43c1.33,0,2.37-.18,3.14-.55.77-.36,1.35-.83,1.74-1.4.39-.57.64-1.17.76-1.79.12-.62.18-1.2.18-1.72,0-.86-.19-1.69-.57-2.5-.38-.81-1.04-1.47-1.99-1.99-.95-.52-2.27-.78-3.96-.78-1.12,0-1.85.21-2.2.64-.35.43-.53,1.29-.53,2.59v7.49Z"/>
    <path class="cls-2" d="M72.97,140.01c-.26,0-.44-.09-.55-.27-.1-.18-.16-.38-.16-.59.03-.44.13-.69.31-.74.18-.05.4-.08.66-.08.83,0,1.41-.15,1.74-.45s.53-.68.6-1.13c.08-.45.12-.93.12-1.42l.08-15.48c0-1.22-.21-2-.62-2.34-.42-.34-1.08-.6-1.99-.78-.39-.08-.65-.15-.78-.21-.13-.06-.19-.29-.19-.68,0-.44.16-.68.47-.72s.68-.06,1.09-.06c1.46,0,2.63.12,3.53.35.9.23,1.69.65,2.38,1.25.69.6,1.44,1.44,2.24,2.54l10.69,14.04h.12l-.08-13.38c0-.49-.04-.97-.12-1.42-.08-.45-.28-.83-.6-1.13-.33-.3-.9-.45-1.74-.45-.26,0-.48-.03-.66-.08-.18-.05-.3-.3-.35-.74,0-.21.06-.4.18-.58.12-.18.29-.27.53-.27.57.03,1.03.05,1.38.06.35.01.7.03,1.05.04.35.01.79.02,1.31.02s.95,0,1.29-.02c.34-.01.68-.03,1.03-.04.35-.01.8-.03,1.35-.06.26,0,.44.09.55.27.1.18.16.38.16.58-.03.44-.12.69-.29.74-.17.05-.4.08-.68.08-.81,0-1.38.15-1.72.45-.34.3-.54.68-.6,1.13-.07.46-.11.93-.14,1.42l-.08,19.66c-.03.21-.15.35-.37.41-.22.06-.42.1-.6.1-.49,0-.87-.17-1.13-.51l-14.7-19.66h-.12l.08,15.48c.03.49.07.97.14,1.42.06.46.27.83.6,1.13s.91.45,1.72.45c.29,0,.52.03.7.08.18.05.29.3.31.74,0,.21-.06.4-.18.59-.12.18-.29.27-.53.27-.55-.03-1.01-.05-1.38-.06-.38-.01-.74-.03-1.09-.04-.35-.01-.79-.02-1.31-.02s-.94,0-1.27.02c-.33.01-.66.03-.99.04-.34.01-.79.03-1.37.06Z"/>
    <path class="cls-2" d="M110.29,140.67c-2.7,0-4.78-.47-6.24-1.42-1.46-.95-2.18-2.35-2.18-4.19,0-.94.32-1.71.96-2.32.64-.61,1.46-.92,2.48-.92.68.03,1.15.2,1.42.51s.41.55.41.7c0,.05-.12.14-.35.25-.23.12-.47.33-.7.62s-.35.76-.35,1.38c0,1.17.36,2.1,1.09,2.79.73.69,1.89,1.03,3.47,1.03,1.12,0,2.07-.21,2.87-.64.79-.43,1.4-.99,1.81-1.68.42-.69.62-1.4.62-2.13,0-1.09-.31-1.99-.94-2.69s-1.44-1.31-2.44-1.81c-1-.51-2.06-.99-3.18-1.46-1.12-.47-2.18-1-3.18-1.6-1-.6-1.83-1.35-2.48-2.24-.65-.9-.99-2.02-1.01-3.37-.03-1.64.32-2.97,1.05-4,.73-1.03,1.74-1.78,3.04-2.26,1.3-.48,2.74-.72,4.33-.72,1.17,0,2.32.17,3.45.51s2.07.86,2.81,1.58c.74.72,1.11,1.66,1.11,2.83,0,.94-.32,1.71-.96,2.32s-1.46.92-2.48.92c-.68-.05-1.15-.23-1.42-.53-.27-.3-.41-.53-.41-.68,0-.08.16-.18.47-.29.31-.12.62-.33.94-.62s.47-.75.47-1.35c0-.99-.38-1.75-1.13-2.28-.75-.53-1.69-.8-2.81-.8-1.69,0-2.92.4-3.69,1.19-.77.79-1.15,1.68-1.15,2.67s.26,1.74.78,2.34c.52.6,1.3,1.18,2.34,1.75,1.17.62,2.35,1.2,3.55,1.74,1.2.53,2.31,1.12,3.33,1.77,1.03.65,1.85,1.46,2.48,2.44.62.98.94,2.23.94,3.76,0,1.33-.41,2.51-1.23,3.55-.82,1.04-1.92,1.86-3.3,2.46-1.38.6-2.91.9-4.6.9Z"/>
    <path class="cls-2" d="M136.15,140.67c-2.18,0-4.19-.52-6.01-1.56-1.82-1.04-3.28-2.52-4.39-4.45-1.11-1.92-1.66-4.22-1.66-6.9s.52-4.97,1.56-6.96c1.04-1.99,2.52-3.54,4.43-4.64,1.91-1.1,4.17-1.66,6.77-1.66.94,0,1.9.09,2.91.27,1,.18,1.93.49,2.79.92.86.43,1.55.99,2.09,1.7.53.7.8,1.57.8,2.61.03,1.12-.31,2.1-1.01,2.94-.7.85-1.69,1.27-2.96,1.27-.78,0-1.33-.19-1.66-.57-.33-.38-.47-.66-.45-.84,0-.08.16-.21.49-.41.32-.19.65-.49.98-.9.32-.4.49-.94.49-1.62,0-1.17-.39-2.1-1.17-2.79-.78-.69-1.89-1.03-3.31-1.03-1.56,0-2.96.44-4.19,1.33-1.24.88-2.2,2.18-2.91,3.88-.7,1.7-1.05,3.79-1.05,6.26,0,2.08.37,3.97,1.11,5.67.74,1.7,1.78,3.06,3.12,4.06,1.34,1,2.89,1.5,4.66,1.5,1.4,0,2.61-.29,3.61-.88,1-.58,1.9-1.53,2.71-2.83.23-.44.65-.48,1.25-.12.23.16.42.35.55.57.13.22.1.45-.08.68-.99,1.25-1.92,2.19-2.81,2.83-.88.64-1.85,1.07-2.89,1.31-1.04.23-2.29.35-3.74.35Z"/>
    <path class="cls-2" d="M148.32,140.01c-.26,0-.44-.09-.55-.27-.1-.18-.16-.38-.16-.59.03-.44.13-.69.31-.74.18-.05.4-.08.66-.08.7,0,1.23-.14,1.6-.43.36-.29.66-.66.88-1.13.22-.47.44-.95.64-1.44l6.83-16.15c.26-.62.31-1.1.16-1.42-.16-.33-.42-.56-.78-.7-.36-.14-.77-.25-1.21-.33-.39-.08-.65-.15-.78-.21-.13-.06-.19-.29-.19-.68,0-.44.16-.68.47-.72s.68-.06,1.09-.06c1.07,0,1.98.1,2.73.31.75.21,1.4.6,1.95,1.19.55.58,1.05,1.46,1.52,2.63l6.55,16.15c.18.44.38.9.58,1.36.21.47.49.85.84,1.15s.8.46,1.35.49c.29,0,.51.03.68.08.17.05.27.3.29.74,0,.21-.06.4-.18.59-.12.18-.29.27-.53.27-.83-.05-1.56-.08-2.18-.1-.62-.01-1.33-.02-2.11-.02-1.53,0-3.15.04-4.84.12-.26,0-.44-.09-.55-.27-.1-.18-.16-.38-.16-.59.03-.44.13-.69.31-.74.18-.05.4-.08.66-.08,1.27,0,1.97-.23,2.09-.7.12-.47,0-1.23-.37-2.3l-1.33-3.24h-9.63c-.39.99-.67,1.7-.84,2.15-.17.44-.27.73-.31.86-.04.13-.07.21-.1.23-.29.88-.44,1.54-.45,1.97-.01.43.19.71.62.84.43.13,1.15.19,2.16.19.29,0,.51.03.68.08.17.05.27.3.29.74,0,.21-.06.4-.18.59-.12.18-.29.27-.53.27-.83-.05-1.55-.08-2.16-.1-.61-.01-1.31-.02-2.09-.02-.52,0-.96,0-1.31.02-.35.01-.71.03-1.07.04-.36.01-.83.03-1.4.06ZM155.73,130.41h8.19l-3.94-10.02h-.12l-4.13,10.02Z"/>
    <path class="cls-2" d="M175.31,140.01c-.23,0-.41-.09-.53-.27-.12-.18-.18-.38-.18-.59.03-.44.14-.69.33-.74.19-.05.42-.08.68-.08.83,0,1.42-.15,1.76-.45.34-.3.55-.68.64-1.13.09-.45.14-.93.14-1.42v-15.48c0-.49-.05-.97-.14-1.42-.09-.45-.31-.83-.64-1.13-.34-.3-.92-.45-1.76-.45-.26,0-.49-.03-.68-.08-.2-.05-.31-.3-.33-.74,0-.21.06-.4.18-.58.12-.18.29-.27.53-.27.83.03,1.62.05,2.38.08.75.03,1.52.04,2.3.04h5.85c.49,0,1.14.04,1.93.12.79.08,1.64.23,2.54.47s1.75.61,2.55,1.13c.81.52,1.46,1.21,1.97,2.07.51.86.76,1.94.76,3.24,0,1.22-.28,2.33-.84,3.31-.56.99-1.3,1.83-2.22,2.54-.92.7-1.96,1.24-3.12,1.62-1.16.38-2.33.57-3.53.57-.57,0-1.2-.04-1.87-.12-.68-.08-1.35-.25-2.03-.51v5.62c.03.49.08.97.16,1.42.08.46.29.83.64,1.13s.93.45,1.74.45c.29,0,.52.03.7.08.18.05.29.3.31.74,0,.21-.06.4-.18.59-.12.18-.29.27-.53.27-1.66-.08-3.29-.12-4.88-.12-.78,0-1.54,0-2.28.02-.74.01-1.53.04-2.36.1ZM184.74,128.58c.6,0,1.27-.1,2.01-.29.74-.19,1.46-.52,2.15-.98.69-.45,1.25-1.08,1.7-1.87.44-.79.66-1.8.66-3.02,0-1.33-.26-2.37-.78-3.14-.52-.77-1.16-1.33-1.93-1.7-.77-.36-1.53-.6-2.28-.7-.75-.1-1.36-.16-1.83-.16-.62,0-1.12.07-1.48.19-.36.13-.62.41-.76.84-.14.43-.21,1.09-.21,1.97v8.42c.26.1.64.2,1.13.29.49.09,1.04.14,1.64.14Z"/>
    <path class="cls-2" d="M199.56,140.01c-.23,0-.4-.09-.51-.27-.1-.18-.16-.38-.16-.59.03-.44.13-.69.31-.74.18-.05.4-.08.66-.08.83,0,1.42-.15,1.76-.45.34-.3.55-.68.64-1.13.09-.45.14-.93.14-1.42v-15.48c0-.49-.05-.97-.14-1.42-.09-.45-.31-.83-.64-1.13-.34-.3-.92-.45-1.76-.45-.26,0-.48-.03-.66-.08-.18-.05-.29-.3-.31-.74,0-.21.05-.4.16-.58.1-.18.27-.27.51-.27.86.03,1.65.05,2.38.08.73.03,1.48.04,2.26.04h12.25c.29,0,.53.06.72.19.19.13.29.38.29.74l.12,5.46c0,.26-.12.46-.37.58-.25.13-.47.19-.68.19-.29,0-.55-.06-.78-.18-.23-.12-.38-.29-.43-.53-.18-1.17-.4-2.11-.64-2.83-.25-.71-.61-1.23-1.09-1.56-.48-.32-1.18-.5-2.09-.53h-5.23v9.91h7.06c.21.03.36.13.45.31.09.18.14.38.14.58,0,.18-.05.36-.14.53-.09.17-.24.25-.45.25h-7.06v7.37c.03.34.08.71.16,1.11.08.4.31.75.68,1.03.38.29,1.01.42,1.89.39h3.59c.91-.03,1.6-.18,2.09-.45.48-.27.86-.73,1.15-1.38.29-.65.6-1.55.94-2.69.1-.26.28-.43.53-.51.25-.08.51-.09.8-.04.21.03.42.12.64.27.22.16.32.36.29.62l-.78,4.91c-.08.36-.2.59-.37.68-.17.09-.42.14-.76.14h-12.87c-.78,0-1.54,0-2.28.02-.74.01-1.54.04-2.4.1Z"/>
    <path class="cls-2" d="M34.63,174.77c-.01.32-.14.59-.36.8-.23.21-.5.32-.8.32-.35,0-.63-.11-.84-.32s-.31-.48-.31-.8v-13.16c0-.32.11-.59.33-.8.22-.21.51-.32.86-.32.29,0,.55.11.78.32.23.21.34.48.34.8v13.16Z"/>
    <path class="cls-2" d="M55.25,160.49c.29,0,.53.1.71.3.18.2.27.44.27.74v13.24c0,.32-.11.59-.32.8-.21.21-.48.32-.8.32-.16,0-.32-.03-.48-.09s-.29-.14-.37-.24l-9.04-11.7.51-.31v11.33c0,.28-.1.52-.29.72-.19.2-.43.3-.73.3-.31,0-.55-.1-.74-.3-.18-.2-.27-.44-.27-.72v-13.27c0-.32.11-.59.32-.8s.48-.32.8-.32c.16,0,.33.03.52.1.18.07.32.16.41.3l8.82,11.48-.33.31v-11.15c0-.29.09-.54.28-.74.18-.2.43-.3.74-.3Z"/>
    <path class="cls-2" d="M65.35,162.6c-.31,0-.57-.1-.79-.3-.22-.2-.33-.45-.33-.76s.11-.58.33-.77c.22-.19.48-.29.79-.29h9.99c.32,0,.59.1.8.3.21.2.32.45.32.76,0,.32-.11.58-.32.77-.21.19-.48.29-.8.29h-9.99ZM70.34,175.89c-.35,0-.64-.11-.86-.32-.22-.21-.33-.48-.33-.8v-13.18h2.38v13.18c0,.32-.11.59-.34.8-.23.21-.51.32-.85.32Z"/>
    <path class="cls-2" d="M85.56,160.49h7.59c.32,0,.59.1.8.31.21.21.32.46.32.77s-.11.56-.32.75c-.21.19-.48.29-.8.29h-6.62l.22-.37v4.93l-.2-.22h5.61c.32,0,.59.1.8.31.21.21.32.47.32.79s-.11.56-.32.75c-.21.19-.48.29-.8.29h-5.57l.15-.2v5.08l-.15-.18h6.56c.32,0,.59.11.8.32.21.21.32.46.32.74,0,.31-.11.56-.32.76-.21.2-.48.3-.8.3h-7.59c-.32,0-.59-.11-.8-.32-.21-.21-.32-.48-.32-.8v-13.16c0-.32.11-.59.32-.8s.48-.32.8-.32Z"/>
    <path class="cls-2" d="M103.82,175.89c-.35,0-.66-.11-.92-.32-.26-.21-.4-.48-.4-.8v-13.16c0-.32.11-.59.32-.8s.48-.32.8-.32h6.2c.79,0,1.52.19,2.18.58.66.39,1.19.92,1.59,1.61s.6,1.47.6,2.36c0,.59-.12,1.14-.35,1.67-.23.53-.55,1-.95,1.41-.4.41-.84.73-1.34.95l-.24-.44c.45.18.85.41,1.19.71.34.3.6.65.8,1.06.2.4.3.85.32,1.35.04.46.08.83.12,1.13.04.3.09.55.17.74.07.19.21.34.4.44.26.15.43.37.49.66.07.29,0,.56-.19.79-.13.18-.3.29-.51.34-.21.05-.41.06-.62.02-.21-.04-.37-.09-.51-.16-.25-.15-.49-.36-.73-.63-.23-.27-.43-.65-.57-1.13-.15-.48-.22-1.12-.22-1.91,0-.37-.06-.68-.18-.94-.12-.26-.28-.47-.48-.65-.21-.18-.45-.3-.73-.37-.28-.07-.59-.11-.92-.11h-4.66l.31-.46v5.26c0,.32-.09.59-.26.8-.18.21-.42.32-.73.32ZM104.53,168.04h5.26c.34-.01.66-.15.97-.4.31-.25.56-.6.77-1.04.21-.45.31-.95.31-1.51,0-.7-.21-1.29-.63-1.77-.42-.48-.91-.71-1.48-.71h-5.15l.24-.55v6.45l-.29-.46Z"/>
    <path class="cls-2" d="M125.29,174.77c-.01.32-.14.59-.36.8-.23.21-.5.32-.8.32-.35,0-.63-.11-.84-.32s-.31-.48-.31-.8v-13.16c0-.32.11-.59.33-.8.22-.21.51-.32.86-.32.29,0,.55.11.78.32.23.21.34.48.34.8v13.16Z"/>
    <path class="cls-2" d="M148.39,168.19c0,1.11-.18,2.15-.55,3.11-.37.96-.88,1.8-1.55,2.52-.67.72-1.46,1.28-2.36,1.68-.91.4-1.91.6-2.99.6s-2.08-.2-2.98-.6c-.9-.4-1.69-.96-2.35-1.68s-1.18-1.56-1.55-2.52c-.37-.96-.55-2-.55-3.11s.18-2.15.55-3.11c.37-.96.88-1.8,1.55-2.52.67-.72,1.45-1.28,2.35-1.68.9-.4,1.9-.6,2.98-.6s2.08.2,2.99.6c.91.4,1.7.96,2.36,1.68.67.72,1.18,1.56,1.55,2.52.37.96.55,2,.55,3.11ZM146.02,168.19c0-1.08-.22-2.06-.66-2.93-.44-.87-1.04-1.55-1.79-2.05s-1.63-.75-2.63-.75-1.86.25-2.62.75c-.76.5-1.36,1.18-1.78,2.03-.43.86-.64,1.84-.64,2.94s.21,2.06.64,2.93c.43.87,1.02,1.55,1.78,2.05.76.5,1.64.75,2.62.75s1.87-.25,2.63-.75c.76-.5,1.35-1.18,1.79-2.05.44-.87.66-1.84.66-2.93Z"/>
    <path class="cls-2" d="M157.92,175.89c-.35,0-.66-.11-.92-.32-.26-.21-.4-.48-.4-.8v-13.16c0-.32.11-.59.32-.8s.48-.32.8-.32h6.2c.79,0,1.52.19,2.18.58.66.39,1.19.92,1.59,1.61s.6,1.47.6,2.36c0,.59-.12,1.14-.35,1.67-.23.53-.55,1-.95,1.41-.4.41-.84.73-1.34.95l-.24-.44c.45.18.85.41,1.19.71.34.3.6.65.8,1.06.2.4.3.85.32,1.35.04.46.08.83.12,1.13.04.3.09.55.17.74.07.19.21.34.4.44.26.15.43.37.49.66.07.29,0,.56-.19.79-.13.18-.3.29-.51.34-.21.05-.41.06-.62.02-.21-.04-.37-.09-.51-.16-.25-.15-.49-.36-.73-.63-.23-.27-.43-.65-.57-1.13-.15-.48-.22-1.12-.22-1.91,0-.37-.06-.68-.18-.94-.12-.26-.28-.47-.48-.65-.21-.18-.45-.3-.73-.37-.28-.07-.59-.11-.92-.11h-4.66l.31-.46v5.26c0,.32-.09.59-.26.8-.18.21-.42.32-.73.32ZM158.62,168.04h5.26c.34-.01.66-.15.97-.4.31-.25.56-.6.77-1.04.21-.45.31-.95.31-1.51,0-.7-.21-1.29-.63-1.77-.42-.48-.91-.71-1.48-.71h-5.15l.24-.55v6.45l-.29-.46Z"/>
    <path class="cls-2" d="M181.81,176.11c-1.06,0-2-.14-2.82-.43s-1.61-.77-2.35-1.44c-.16-.13-.28-.28-.36-.45-.08-.17-.12-.34-.12-.52,0-.28.1-.53.31-.75.21-.22.46-.33.77-.33.23,0,.45.08.66.24.56.51,1.14.9,1.75,1.17.61.26,1.32.4,2.15.4.59,0,1.12-.1,1.62-.29.49-.19.88-.45,1.18-.77.29-.32.44-.7.44-1.12-.02-.53-.17-.96-.46-1.3-.29-.34-.72-.62-1.29-.86-.56-.23-1.24-.43-2.04-.57-.73-.15-1.39-.34-1.98-.57-.59-.23-1.08-.53-1.48-.89-.4-.36-.72-.79-.94-1.29-.22-.5-.33-1.07-.33-1.72,0-.89.23-1.67.7-2.32.47-.65,1.11-1.16,1.91-1.51.81-.35,1.72-.53,2.73-.53.92,0,1.79.14,2.6.43s1.46.67,1.96,1.15c.35.31.53.64.53.99,0,.28-.11.53-.32.75-.21.22-.46.33-.74.33-.21,0-.38-.06-.53-.18-.23-.25-.55-.47-.95-.67-.4-.2-.82-.36-1.27-.5s-.88-.2-1.29-.2c-.66,0-1.23.09-1.69.27-.47.18-.83.43-1.08.75-.25.32-.37.69-.37,1.13,0,.5.14.91.43,1.22.29.32.69.57,1.2.77.51.2,1.1.38,1.76.54.81.18,1.53.37,2.17.59.64.22,1.18.5,1.62.85s.78.77,1.01,1.29c.23.51.35,1.15.35,1.91,0,.88-.25,1.65-.75,2.31-.5.66-1.16,1.17-1.97,1.54-.81.37-1.72.55-2.72.55Z"/>
  </g>
  <g>
    <path class="cls-2" d="M64.15,99.83c30.28-9.34,55.04-34.55,63.43-65.13,5.84-9.54,10.8-21.74,6.14-32.69,0,0-.06-.15-.06-.15.08.27.31.57.56.71.31.21.82.25,1.09.12.01,0-.04.02-.09.05-6.78,5.58-9.38,15.08-8.4,23.63.32,3.04,1.08,6.04,2.07,8.98.06.17-.2.28-.28.11-5.56-10.96-4.89-25.89,4.52-34.59.67-.58,1.65-1.23,2.56-.66.27.16.51.48.61.77l-.06-.15c1.38,2.88,2.21,6.05,2.34,9.23.65,8.9-4.25,19.86-8.52,25.74-7.08,23.03-22.96,43.12-43.92,55.01-6.9,3.96-14.21,7.27-21.92,9.31-.08.02-.16-.03-.18-.11-.02-.08.03-.16.11-.18h0Z"/>
    <path class="cls-2" d="M125.67,45.46c12.83,1.69,20.3-1.63,27.9-12.03,0,0,.75,2.12.75,2.12-4.53-.51-9.04-.14-13.51.68-4.55.87-8.91,2.36-13.1,4.41-.14.09-.31-.12-.18-.24,3.47-3.41,7.94-5.68,12.62-6.99,4.72-1.42,9.79-1.3,14.59-.39.7.09,1.19.75,1.08,1.45-.04.26-.16.49-.33.66-1.84,1.96-3.68,4.15-5.88,5.98-4.29,3.78-10.05,5.75-15.72,5.65-2.81.06-5.57-.46-8.27-1-.18-.04-.14-.33.06-.29h0Z"/>
    <path class="cls-2" d="M120.47,53.97c8.43-5.11,20.32-7.5,28.57-.75,0,0-1.55.05-1.55.05-.09-.56,2.09-.24,1.89.42.17.3-.02.98-.15,1.07-1.88,2.32-4.49,3.94-7.13,5.24-7.79,3.69-17.01,3.19-24.98.46-.15-.05-.12-.3.05-.3,5.45.11,10.88.16,16.2-.8,4.91-.92,10.03-2.22,13.76-5.71,0,0,.15-.15.15-.15l.06-.07.02-.02s-.01.02-.02.03c.04-.05-.05.04-.15.32-.06.25-.06.46.03.71-.21.66,1.98.98,1.88.43l-1.55.05c-7.38-6.69-18.66-4.76-26.93-.75-.15.1-.32-.16-.15-.26h0Z"/>
    <path class="cls-2" d="M111.11,68.7c8.16-5.16,18.72-2.93,26.59,1.72.52.26.72.9.45,1.41-.27.46-.69.82-1.06,1.14-4.72,3.62-10.65,5.85-16.64,5.69-4.83-.1-9.71-1.75-13.57-4.6-.14-.1-.03-.33.14-.27,3.84,1.15,7.54,1.97,11.49,1.99,3.79-.04,7.57-.64,11.2-1.78,2.28-.74,4.53-1.78,6.44-3.22l.36,1.55c-7.24-4.86-17.06-7.56-25.22-3.38-.15.11-.34-.14-.17-.25h0Z"/>
    <path class="cls-2" d="M100.63,79.47c8.28-.76,17.83.28,23.81,6.69.84.95,1.57,2,2.19,3.12.29.52.1,1.17-.42,1.46-3.04,1.27-5.88,1.39-9.01,1.73-2.93.26-5.87.27-8.8-.03-5.79-.65-11.79-2.14-16.54-5.63-.13-.1-.02-.32.14-.26,2.75.92,5.5,1.53,8.27,1.97,5.55.88,11.19,1.08,16.8,1.18,2.6-.03,5.71-.12,8.08-.9,0,0-.52,1.51-.52,1.51-4.24-8.63-15.21-10.54-23.98-10.51-.18.02-.22-.28-.03-.3h0Z"/>
    <path class="cls-2" d="M125.49,40.03c.84-7.02-2.92-13.72-7.7-18.57-.46-.43-1.71-1.56-2.19-2-1.75-1.51-4.47-3.35-6.45-4.58,0,0,.99.12.99.12.25-.07.26-.18.25-.12-.57,2.25.28,4.69,1,6.88.95,2.59,2.19,5.11,3.48,7.61,2.24,4.41,6.21,10.47,8.9,14.72.04.07.02.16-.05.21-2.37-1.61-4.38-4.08-6.34-6.27-4.74-5.68-8.84-12.36-9.62-19.91-.1-1.23-.13-2.5.27-3.74.26-.67.47-1.23,1.38-1.61.34-.14.72-.08.99.12,0,0,3.35,2.43,3.35,2.43,2.07,1.74,4.25,3.63,5.97,5.73,4.39,5.15,7.45,12.21,6.07,19.04-.05.18-.34.13-.29-.07h0Z"/>
    <path class="cls-2" d="M118.69,57.21c-.23-10.62-6.54-19.98-16.46-23.81,0,0,1.65-.87,1.65-.87.3,7.48,2.82,14.86,7.08,21.02,1.41,2.16,3.14,4.08,4.87,6.11.11.12-.05.32-.19.23-9.41-5.45-15.74-16.89-14.11-27.82.08-.64.67-1.09,1.31-.98.19-.02,1.96.97,2.16,1.06,6.67,3.39,11.66,9.87,13.3,17.15.61,2.6.88,5.28.7,7.93-.02.18-.31.18-.3-.02h0Z"/>
    <path class="cls-2" d="M106.8,71.76c-.58-9.89-3.44-21.85-13.1-26.53,0,0,1.42-.32,1.42-.32-1.85,5.06-.34,10.64,1.35,15.57,1.95,5.34,5.11,10.1,8.34,14.76.09.13-.1.31-.22.2-4.68-3.67-8.51-8.34-10.93-13.83-2.23-5.23-2.91-11.41-1.03-16.86.32-.82.96-2.2,2.06-1.63,7.6,3.92,11.02,12.59,12.05,20.63.35,2.66.5,5.34.38,8.02-.01.18-.3.19-.3,0h0Z"/>
    <path class="cls-2" d="M94.62,84.12c-1.01-10.64-5.53-22.03-15.18-27.53.21.13.48.18.71.13.18-.04.38-.15.42-.2-.01.03-.07.14-.11.25-.71,2.17-.59,4.57-.35,6.84.69,5.49,2.43,10.8,4.91,15.79,1.26,2.52,2.7,4.98,4.22,7.45.09.13-.1.32-.23.19-4.42-3.89-7.86-8.89-9.97-14.41-1.6-4.21-2.25-8.83-1.68-13.34.25-1.63.81-5.77,3.31-4.74,7.39,4.68,11.75,12.81,13.38,21.2.56,2.76.9,5.55.89,8.36,0,.18-.29.2-.3,0h0Z"/>
  </g>
  <line class="cls-1" x1="0" y1="149.79" x2="219.03" y2="149.79"/>
</svg>