<?xml version="1.0" encoding="UTF-8"?>
<svg width="36px" height="36px" viewBox="0 0 36 36" version="1.1" xmlns="http://www.w3.org/2000/svg" xmlns:xlink="http://www.w3.org/1999/xlink">
    <!-- Generator: Sketch 52.6 (67491) - http://www.bohemiancoding.com/sketch -->
    <title>linkedin-svgrepo-com</title>
    <desc>Created with Sketch.</desc>
    <g id="linkedin" stroke="none" stroke-width="1" fill="none" fill-rule="evenodd">
        <g id="linkedin-svgrepo-com" transform="translate(0.000000, -0.130379)">
            <circle id="Oval" fill="#007AB9" cx="17.8719292" cy="18.1901947" r="17.8719292"></circle>
            <path d="M28.5502301,19.6282832 L28.5502301,26.9964956 L24.2783363,26.9964956 L24.2783363,20.1220885 C24.2783363,18.396 23.6615575,17.2172389 22.1148319,17.2172389 C20.9344779,17.2172389 20.2332743,18.0108319 19.9236106,18.7792566 C19.8111504,19.0538761 19.7821593,19.4352212 19.7821593,19.8203894 L19.7821593,26.996177 L15.5099469,26.996177 C15.5099469,26.996177 15.567292,15.3532035 15.5099469,14.148 L19.7824779,14.148 L19.7824779,15.968708 C19.7738761,15.9830442 19.7617699,15.9970619 19.7541239,16.0107611 L19.7824779,16.0107611 L19.7824779,15.968708 C20.3501947,15.0951504 21.3626549,13.8463009 23.6325664,13.8463009 C26.443115,13.8463009 28.5502301,15.6826195 28.5502301,19.6282832 Z M11.0408496,7.95472566 C9.57950442,7.95472566 8.62343363,8.9139823 8.62343363,10.1743009 C8.62343363,11.4078584 9.55178761,12.3948319 10.9847788,12.3948319 L11.0124956,12.3948319 C12.5025133,12.3948319 13.4289558,11.4078584 13.4289558,10.1743009 C13.4006018,8.9139823 12.5025133,7.95472566 11.0408496,7.95472566 Z M8.87734513,26.9964956 L13.1479646,26.9964956 L13.1479646,14.148 L8.87734513,14.148 L8.87734513,26.9964956 Z" id="Shape" fill="#F1F2F2" fill-rule="nonzero"></path>
        </g>
    </g>
</svg>