{
  "accessors": [
    {
      "bufferView": 2,
      "componentType": 5126,
      "count": 136,
      "max": [
        14.345707893371582,
        25.725807189941406,
        23.672012329101563
      ],
      "min": [
        -13.691930770874023,
        -6.940040588378906,
        -4.500201225280762
      ],
      "type": "VEC3"
    },
    {
      "bufferView": 2,
      "byteOffset": 1632,
      "componentType": 5126,
      "count": 136,
      "max": [
        1.0,
        0.9998157024383545,
        0.9790219068527222
      ],
      "min": [
        -1.0,
        -0.9999722242355347,
        -0.9998155236244202
      ],
      "type": "VEC3"
    },
    {
      "bufferView": 1,
      "componentType": 5126,
      "count": 136,
      "max": [
        0.9923356771469116,
        0.7343493103981018
      ],
      "min": [
        0.4654430150985718,
        0.23724421858787537
      ],
      "type": "VEC2"
    },
    {
      "bufferView": 1,
      "byteOffset": 1088,
      "componentType": 5126,
      "count": 136,
      "max": [
        0.9923356771469116,
        0.7343493103981018
      ],
      "min": [
        0.4654430150985718,
        0.23724421858787537
      ],
      "type": "VEC2"
    },
    {
      "bufferView": 0,
      "componentType": 5125,
      "count": 396,
      "type": "SCALAR"
    },
    {
      "bufferView": 2,
      "byteOffset": 3264,
      "componentType": 5126,
      "count": 557,
      "max": [
        60.71683883666992,
        128.50543212890625,
        11.941863059997559
      ],
      "min": [
        -61.32447052001953,
        -79.1817398071289,
        -7.884334564208984
      ],
      "type": "VEC3"
    },
    {
      "bufferView": 2,
      "byteOffset": 9948,
      "componentType": 5126,
      "count": 557,
      "max": [
        1.0,
        1.0,
        1.0
      ],
      "min": [
        -1.0,
        -1.0,
        -1.0
      ],
      "type": "VEC3"
    },
    {
      "bufferView": 1,
      "byteOffset": 2176,
      "componentType": 5126,
      "count": 557,
      "max": [
        0.9975693225860596,
        0.9939008951187134
      ],
      "min": [
        0.0,
        0.0
      ],
      "type": "VEC2"
    },
    {
      "bufferView": 1,
      "byteOffset": 6632,
      "componentType": 5126,
      "count": 557,
      "max": [
        0.9975693225860596,
        0.9939008951187134
      ],
      "min": [
        0.0,
        0.0
      ],
      "type": "VEC2"
    },
    {
      "bufferView": 0,
      "byteOffset": 1584,
      "componentType": 5125,
      "count": 1734,
      "type": "SCALAR"
    },
    {
      "bufferView": 2,
      "byteOffset": 16632,
      "componentType": 5126,
      "count": 41,
      "max": [
        23.282686233520508,
        65.25811767578125,
        10.85090446472168
      ],
      "min": [
        8.86899185180664,
        51.54986572265625,
        6.423253536224365
      ],
      "type": "VEC3"
    },
    {
      "bufferView": 2,
      "byteOffset": 17124,
      "componentType": 5126,
      "count": 41,
      "max": [
        0.7839341163635254,
        0.7455663084983826,
        1.0
      ],
      "min": [
        -0.7839338779449463,
        -0.7455661296844482,
        0.620841920375824
      ],
      "type": "VEC3"
    },
    {
      "bufferView": 1,
      "byteOffset": 11088,
      "componentType": 5126,
      "count": 41,
      "max": [
        1.0005654096603394,
        0.9912587404251099
      ],
      "min": [
        0.8867490291595459,
        0.8827918767929077
      ],
      "type": "VEC2"
    },
    {
      "bufferView": 0,
      "byteOffset": 8520,
      "componentType": 5125,
      "count": 210,
      "type": "SCALAR"
    },
    {
      "bufferView": 2,
      "byteOffset": 17616,
      "componentType": 5126,
      "count": 41,
      "max": [
        6.251812934875488,
        65.25811767578125,
        10.85090446472168
      ],
      "min": [
        -8.161881446838379,
        51.54986572265625,
        6.423253536224365
      ],
      "type": "VEC3"
    },
    {
      "bufferView": 2,
      "byteOffset": 18108,
      "componentType": 5126,
      "count": 41,
      "max": [
        0.7839341163635254,
        0.7455658912658691,
        1.0
      ],
      "min": [
        -0.7839338779449463,
        -0.7455666661262512,
        0.6208415031433105
      ],
      "type": "VEC3"
    },
    {
      "bufferView": 1,
      "byteOffset": 11416,
      "componentType": 5126,
      "count": 41,
      "max": [
        0.8748476505279541,
        0.9912587404251099
      ],
      "min": [
        0.7610313892364502,
        0.8827918767929077
      ],
      "type": "VEC2"
    },
    {
      "bufferView": 0,
      "byteOffset": 9360,
      "componentType": 5125,
      "count": 210,
      "type": "SCALAR"
    },
    {
      "bufferView": 2,
      "byteOffset": 18600,
      "componentType": 5126,
      "count": 15,
      "max": [
        -16.321651458740234,
        57.41127014160156,
        6.299639701843262
      ],
      "min": [
        -23.458850860595703,
        50.4530029296875,
        6.299639701843262
      ],
      "type": "VEC3"
    },
    {
      "bufferView": 2,
      "byteOffset": 18780,
      "componentType": 5126,
      "count": 15,
      "max": [
        0.1580294966697693,
        0.15406647324562073,
        1.0
      ],
      "min": [
        -0.1580294370651245,
        -0.15406794846057892,
        0.9874342679977417
      ],
      "type": "VEC3"
    },
    {
      "bufferView": 1,
      "byteOffset": 11744,
      "componentType": 5126,
      "count": 15,
      "max": [
        0.7484709024429321,
        0.9747978448867798
      ],
      "min": [
        0.6656880378723145,
        0.8920145630836487
      ],
      "type": "VEC2"
    },
    {
      "bufferView": 0,
      "byteOffset": 10200,
      "componentType": 5125,
      "count": 42,
      "type": "SCALAR"
    }
  ],
  "asset": {
    "extras": {
      "author": "TampaJoey (https://sketchfab.com/TampaJoey)",
      "license": "CC-BY-4.0 (http://creativecommons.org/licenses/by/4.0/)",
      "source": "https://sketchfab.com/3d-models/sci-fi-power-panel-switch-c4fc41058f5c4d21968e4f76e3f505a7",
      "title": "Sci-fi Power Panel Switch"
    },
    "generator": "Sketchfab-15.12.0",
    "version": "2.0"
  },
  "bufferViews": [
    {
      "buffer": 0,
      "byteLength": 10368,
      "name": "floatBufferViews",
      "target": 34963
    },
    {
      "buffer": 0,
      "byteLength": 11864,
      "byteOffset": 10368,
      "byteStride": 8,
      "name": "floatBufferViews",
      "target": 34962
    },
    {
      "buffer": 0,
      "byteLength": 18960,
      "byteOffset": 22232,
      "byteStride": 12,
      "name": "floatBufferViews",
      "target": 34962
    }
  ],
  "buffers": [
    {
      "byteLength": 41192,
      "uri": "scene.bin"
    }
  ],
  "extensionsRequired": [
    "KHR_materials_pbrSpecularGlossiness"
  ],
  "extensionsUsed": [
    "KHR_materials_pbrSpecularGlossiness"
  ],
  "images": [
    {
      "uri": "textures/lambert1_diffuse.png"
    }
  ],
  "materials": [
    {
      "alphaMode": "BLEND",
      "doubleSided": true,
      "extensions": {
        "KHR_materials_pbrSpecularGlossiness": {
          "diffuseFactor": [
            0.44952517950530896,
            0.44952517950530896,
            0.44952517950530896,
            1.0
          ],
          "diffuseTexture": {
            "index": 0
          },
          "glossinessFactor": 0.4,
          "specularFactor": [
            0.0,
            0.0,
            0.0
          ]
        }
      },
      "name": "lambert1"
    },
    {
      "doubleSided": true,
      "extensions": {
        "KHR_materials_pbrSpecularGlossiness": {
          "diffuseFactor": [
            0.0,
            0.703,
            0.0,
            1.0
          ],
          "glossinessFactor": 0.4,
          "specularFactor": [
            0.0,
            0.0,
            0.0
          ]
        }
      },
      "name": "RightLight"
    },
    {
      "doubleSided": true,
      "extensions": {
        "KHR_materials_pbrSpecularGlossiness": {
          "diffuseFactor": [
            0.804,
            0.0,
            0.0,
            1.0
          ],
          "glossinessFactor": 0.4,
          "specularFactor": [
            0.0,
            0.0,
            0.0
          ]
        }
      },
      "name": "LeftLight"
    },
    {
      "doubleSided": true,
      "extensions": {
        "KHR_materials_pbrSpecularGlossiness": {
          "diffuseFactor": [
            0.6923,
            1.0,
            0.0,
            1.0
          ],
          "glossinessFactor": 0.4,
          "specularFactor": [
            0.0,
            0.0,
            0.0
          ]
        }
      },
      "name": "PowerButton"
    }
  ],
  "meshes": [
    {
      "name": "Switch_lambert1_0",
      "primitives": [
        {
          "attributes": {
            "NORMAL": 1,
            "POSITION": 0,
            "TEXCOORD_0": 2,
            "TEXCOORD_1": 3
          },
          "indices": 4,
          "material": 0,
          "mode": 4
        }
      ]
    },
    {
      "name": "Panel_lambert1_0",
      "primitives": [
        {
          "attributes": {
            "NORMAL": 6,
            "POSITION": 5,
            "TEXCOORD_0": 7,
            "TEXCOORD_1": 8
          },
          "indices": 9,
          "material": 0,
          "mode": 4
        }
      ]
    },
    {
      "name": "Panel_RightLight_0",
      "primitives": [
        {
          "attributes": {
            "NORMAL": 11,
            "POSITION": 10,
            "TEXCOORD_0": 12
          },
          "indices": 13,
          "material": 1,
          "mode": 4
        }
      ]
    },
    {
      "name": "Panel_LeftLight_0",
      "primitives": [
        {
          "attributes": {
            "NORMAL": 15,
            "POSITION": 14,
            "TEXCOORD_0": 16
          },
          "indices": 17,
          "material": 2,
          "mode": 4
        }
      ]
    },
    {
      "name": "Panel_PowerButton_0",
      "primitives": [
        {
          "attributes": {
            "NORMAL": 19,
            "POSITION": 18,
            "TEXCOORD_0": 20
          },
          "indices": 21,
          "material": 3,
          "mode": 4
        }
      ]
    }
  ],
  "nodes": [
    {
      "children": [
        1
      ],
      "matrix": [
        1.0,
        0.0,
        0.0,
        0.0,
        0.0,
        2.220446049250313e-16,
        -1.0,
        0.0,
        0.0,
        1.0,
        2.220446049250313e-16,
        0.0,
        0.0,
        0.0,
        0.0,
        1.0
      ],
      "name": "Sketchfab_model"
    },
    {
      "children": [
        2
      ],
      "matrix": [
        0.009999999776482582,
        0.0,
        0.0,
        0.0,
        0.0,
        0.0,
        0.009999999776482582,
        0.0,
        0.0,
        -0.009999999776482582,
        0.0,
        0.0,
        0.0,
        0.0,
        0.0,
        1.0
      ],
      "name": "Scifi_PowerPanel.fbx"
    },
    {
      "children": [
        3,
        5
      ],
      "name": "RootNode"
    },
    {
      "children": [
        4
      ],
      "name": "Switch"
    },
    {
      "mesh": 0,
      "name": "Switch_lambert1_0"
    },
    {
      "children": [
        6,
        7,
        8,
        9
      ],
      "name": "Panel"
    },
    {
      "mesh": 1,
      "name": "Panel_lambert1_0"
    },
    {
      "mesh": 2,
      "name": "Panel_RightLight_0"
    },
    {
      "mesh": 3,
      "name": "Panel_LeftLight_0"
    },
    {
      "mesh": 4,
      "name": "Panel_PowerButton_0"
    }
  ],
  "samplers": [
    {
      "magFilter": 9729,
      "minFilter": 9987,
      "wrapS": 10497,
      "wrapT": 10497
    }
  ],
  "scene": 0,
  "scenes": [
    {
      "name": "Sketchfab_Scene",
      "nodes": [
        0
      ]
    }
  ],
  "textures": [
    {
      "sampler": 0,
      "source": 0
    }
  ]
}
