<?xml version="1.0" encoding="UTF-8"?>
<svg version="1.1" xmlns="http://www.w3.org/2000/svg" width="512" height="512">
<path d="M0 0 C4.85055011 2.89101067 8.97159106 6.45142842 13.1875 10.1875 C17.67001231 14.12035848 22.17246542 18.00227976 26.8125 21.75 C31.17582785 25.28191087 35.3383848 28.98706936 39.48828125 32.765625 C42.00151232 35.00134533 44.57311479 37.13377682 47.1875 39.25 C53.62548906 44.46386438 59.85163566 49.91041253 66.09912109 55.34912109 C74.04605682 62.25089085 82.06677899 69.06687286 90.1081543 75.8581543 C97.02861531 81.70700605 103.89654547 87.61716563 110.77050781 93.52050781 C116.99703239 98.86686105 123.2298939 104.2047783 129.5 109.5 C133.99403849 113.29529944 138.47264212 117.10790883 142.9375 120.9375 C143.51669189 121.43419189 144.09588379 121.93088379 144.69262695 122.44262695 C147.66756041 124.99510418 150.6397708 127.55069982 153.609375 130.109375 C158.94120634 134.6983591 164.28329671 139.25877834 169.75 143.6875 C174.22473397 147.3186906 178.52001261 151.10854891 182.76953125 155 C184.63164018 156.66970188 186.52477373 158.21955834 188.5 159.75 C191.59452186 162.53506967 192.78207529 164.75912509 193.18960571 168.94967651 C193.28112823 171.31123337 193.30337538 173.66400925 193.30078125 176.02734375 C193.30506638 176.89388077 193.3093515 177.76041779 193.31376648 178.6532135 C193.31949543 180.48128386 193.32002064 182.30937701 193.31567383 184.13745117 C193.31251449 186.92471436 193.33598832 189.7109148 193.36132812 192.49804688 C193.36360143 194.2786445 193.36430447 196.05924497 193.36328125 197.83984375 C193.372491 198.66814194 193.38170074 199.49644012 193.39118958 200.34983826 C193.35208093 205.27382835 192.84563127 208.79490107 190 213 C187.14533048 214.78248828 185.01138312 215.24301976 181.671875 215.1953125 C180.87265625 215.18886719 180.0734375 215.18242187 179.25 215.17578125 C178.0125 215.15064453 178.0125 215.15064453 176.75 215.125 C175.90953125 215.11597656 175.0690625 215.10695313 174.203125 215.09765625 C172.13529396 215.07415817 170.06761005 215.03828908 168 215 C168.00276538 215.95398524 168.00553076 216.90797049 168.00837994 217.89086437 C168.07494778 241.09225687 168.12426263 264.293637 168.15543652 287.49510479 C168.17091226 298.71511413 168.19201535 309.93506042 168.22631836 321.1550293 C168.256199 330.93316258 168.27556985 340.7112502 168.28226548 350.48942786 C168.28617999 355.66797875 168.29539442 360.84639901 168.31719017 366.02490807 C168.33753418 370.89791846 168.343838 375.77074427 168.33932304 380.64379311 C168.34014918 382.43325427 168.34612722 384.22272153 168.35761642 386.012146 C168.37252801 388.4541408 168.36895868 390.89543738 168.36076355 393.33744812 C168.36950207 394.0466003 168.3782406 394.75575247 168.38724393 395.48639411 C168.34780582 399.8300049 167.67293728 402.55463679 165 406 C161.69541918 408.20305388 160.69369996 408.25353769 156.85147095 408.26742554 C155.78597519 408.27595551 154.72047943 408.28448547 153.62269592 408.29327393 C152.45379318 408.29236755 151.28489044 408.29146118 150.08056641 408.29052734 C148.84945633 408.29724457 147.61834625 408.30396179 146.34992981 408.31088257 C142.97170499 408.32664344 139.59372598 408.33323865 136.21548128 408.33451414 C133.39494359 408.33641329 130.57442949 408.34377105 127.75390089 408.35085833 C121.09861708 408.36714651 114.44338738 408.37202692 107.78808594 408.37060547 C100.9243976 408.36940412 94.06102375 408.39050333 87.19741499 408.4220928 C81.30346721 408.44825208 75.40962216 408.45897291 69.51561677 408.45769465 C65.99591099 408.45718487 62.47648463 408.462876 58.9568367 408.48405075 C55.03050726 408.5070269 51.10460839 408.49791428 47.17822266 408.48583984 C46.01336838 408.49707886 44.8485141 408.50831787 43.64836121 408.51989746 C35.76918642 408.45818891 35.76918642 408.45818891 31.80136108 406.09463501 C28.62081188 402.3962706 28.75008513 399.83168756 29 395 C30.18767855 391.61968411 30.89825225 391.06783183 34 389 C36.16514111 388.75390434 36.16514111 388.75390434 38.72660828 388.75949097 C39.69835999 388.75674164 40.67011169 388.75399231 41.67131042 388.75115967 C42.73585953 388.75835022 43.80040863 388.76554077 44.8972168 388.77294922 C46.01931549 388.77265717 47.14141418 388.77236511 48.29751587 388.77206421 C52.01482821 388.77346007 55.73194132 388.78903352 59.44921875 388.8046875 C62.02325837 388.80841671 64.5972994 388.81126412 67.17134094 388.81326294 C73.25928368 388.82012489 79.34714393 388.83589561 85.43505555 388.85596192 C92.36605932 388.87831155 99.2970665 388.88931199 106.22809732 388.89935279 C120.48543677 388.92026161 134.74271584 388.95544344 149 389 C148.99539104 388.03570729 148.99078207 387.07141459 148.98603344 386.07790089 C148.87508869 362.62618901 148.79289653 339.17451113 148.74093914 315.72259235 C148.71514576 304.38145439 148.67997341 293.04048967 148.62280273 281.69946289 C148.57300268 271.81585345 148.54071724 261.93236946 148.52955753 252.04863805 C148.52303305 246.81409534 148.5076749 241.57991157 148.47134972 236.34548378 C148.43744406 231.41985858 148.42693611 226.49474059 148.43446159 221.56900978 C148.43308462 219.7601801 148.42311978 217.95133369 148.40397263 216.14260483 C148.37911851 213.67393817 148.38506562 211.20719003 148.39872742 208.73847961 C148.38416321 208.02154554 148.369599 207.30461147 148.35459346 206.56595212 C148.41273741 202.68296699 148.91178475 201.108677 151.39309406 198.05182171 C154.17508344 195.86219679 155.18463419 195.39403518 158.64453125 195.51171875 C159.48564453 195.52783203 160.32675781 195.54394531 161.19335938 195.56054688 C162.05767578 195.60244141 162.92199219 195.64433594 163.8125 195.6875 C165.13797852 195.72133789 165.13797852 195.72133789 166.49023438 195.75585938 C168.6608891 195.81452572 170.8306669 195.90420021 173 196 C174.09943256 181.75792126 174.09943256 181.75792126 169.8359375 168.71875 C167.00342255 166.51656936 164.11775817 164.76953842 161 163 C159.29479609 161.54395831 157.62675284 160.04319571 156 158.5 C152.68010514 155.47717579 149.30235888 152.57487839 145.8125 149.75 C139.37451094 144.53613562 133.14836434 139.08958747 126.90087891 133.65087891 C118.95394318 126.74910915 110.93322101 119.93312714 102.8918457 113.1418457 C98.93513994 109.79782204 94.99473788 106.43525315 91.0625 103.0625 C90.48330811 102.56580811 89.90411621 102.06911621 89.30737305 101.55737305 C86.33243959 99.00489582 83.3602292 96.44930018 80.390625 93.890625 C75.05879366 89.3016409 69.71670329 84.74122166 64.25 80.3125 C59.86848205 76.75732096 55.68289319 73.03230463 51.51171875 69.234375 C48.99848768 66.99865467 46.42688521 64.86622318 43.8125 62.75 C39.36147808 59.14529915 35.00801395 55.44629733 30.6875 51.6875 C30.05400635 51.13642578 29.4205127 50.58535156 28.76782227 50.01757812 C27.48168345 48.89837515 26.19563212 47.77907163 24.90966797 46.65966797 C16.05422464 38.96351561 7.12563496 31.37500295 -2 24 C-6.46046822 25.41923989 -9.3282346 27.86639504 -12.625 31.0625 C-16.42042726 34.64243062 -20.24638447 38.09901155 -24.3125 41.375 C-30.71900521 46.53886411 -36.89839988 51.95148867 -43.10351562 57.35351562 C-47.79784521 61.42902525 -52.52898741 65.46183847 -57.25292969 69.50292969 C-59.03835624 71.03286759 -60.82036145 72.56670801 -62.6015625 74.1015625 C-67.93550064 78.69377135 -73.28042213 83.25644957 -78.75 87.6875 C-83.13151795 91.24267904 -87.31710681 94.96769537 -91.48828125 98.765625 C-94.00151232 101.00134533 -96.57311479 103.13377682 -99.1875 105.25 C-105.62548906 110.46386438 -111.85163566 115.91041253 -118.09912109 121.34912109 C-126.04605682 128.25089085 -134.06677899 135.06687286 -142.1081543 141.8581543 C-146.06486043 145.20217827 -150.00522453 148.56479023 -153.9375 151.9375 C-154.51089111 152.42911621 -155.08428223 152.92073242 -155.67504883 153.42724609 C-158.75064049 156.06567819 -161.82232378 158.70856184 -164.890625 161.35546875 C-165.52621338 161.90275635 -166.16180176 162.45004395 -166.81665039 163.01391602 C-168.03579516 164.06378374 -169.25379009 165.11498865 -170.47045898 166.16772461 C-172.91398237 168.27040781 -175.31367187 170.20911458 -178 172 C-178.50960691 174.51385259 -178.50960691 174.51385259 -178.51171875 177.4453125 C-178.54716797 178.52167969 -178.58261719 179.59804687 -178.61914062 180.70703125 C-178.64169922 181.83496094 -178.66425781 182.96289062 -178.6875 184.125 C-178.72166016 185.26066406 -178.75582031 186.39632812 -178.79101562 187.56640625 C-178.87369502 190.37750579 -178.94277937 193.18828553 -179 196 C-177.02966797 195.91298828 -177.02966797 195.91298828 -175.01953125 195.82421875 C-173.28388977 195.77730952 -171.54820977 195.73181061 -169.8125 195.6875 C-168.51602539 195.6246582 -168.51602539 195.6246582 -167.19335938 195.56054688 C-166.35224609 195.54443359 -165.51113281 195.52832031 -164.64453125 195.51171875 C-163.87471924 195.48553467 -163.10490723 195.45935059 -162.31176758 195.43237305 C-158.72573836 196.31287975 -157.30194155 198.16411727 -155 201 C-154.51698219 203.78809224 -154.3422716 205.95939924 -154.39872742 208.73847961 C-154.39445529 209.51045958 -154.39018317 210.28243955 -154.38578159 211.07781285 C-154.37755482 213.660948 -154.40502963 216.24245429 -154.43237305 218.82543945 C-154.43378359 220.67836977 -154.43299141 222.53130288 -154.43016052 224.38423157 C-154.42872522 229.41294544 -154.45813368 234.44106369 -154.49303031 239.46963906 C-154.52427465 244.72534943 -154.52722304 249.98107327 -154.53315735 255.23686218 C-154.54870142 265.18871426 -154.58973763 275.14029188 -154.6399048 285.09202307 C-154.7062273 298.54027065 -154.73322823 311.98859322 -154.76241589 325.43696308 C-154.80943899 346.62484765 -154.90904769 367.81215305 -155 389 C-108.14 389 -61.28 389 -13 389 C-13.92122516 363.20569555 -14.99032174 339.70713272 -25 316 C-25.62261719 316.0721875 -26.24523437 316.144375 -26.88671875 316.21875 C-50.42209224 318.58213479 -73.38191685 317.86106674 -93 303 C-93.66515625 302.51144531 -94.3303125 302.02289063 -95.015625 301.51953125 C-112.37019007 287.68370673 -119.06749857 264.20712972 -121.484375 243.0065918 C-122.11076593 236.34892953 -122.20893391 229.68350689 -122.25 223 C-122.2593457 221.94949463 -122.26869141 220.89898926 -122.27832031 219.81665039 C-122.21570712 204.69195142 -122.21570712 204.69195142 -118.61425781 200.31640625 C-113.52717456 196.16795602 -104.86189879 198.11772589 -98.71972656 198.68408203 C-70.49869407 201.96218042 -43.55576859 212.75465033 -24.8125 234.6875 C-14.47119901 248.18980594 -9.8418188 263.90667803 -9.875 280.8125 C-9.87185791 281.51681152 -9.86871582 282.22112305 -9.86547852 282.94677734 C-9.87563985 286.79659602 -10.19383791 290.35669547 -10.9375 294.125 C-11.73173521 300.10212911 -8.39885539 304.97277252 -5.56640625 309.99609375 C-4 313 -4 313 -4 316 C-3.34 316 -2.68 316 -2 316 C-1.89945313 315.30390625 -1.79890625 314.6078125 -1.6953125 313.890625 C-0.88244768 310.51129935 0.52431924 307.83224109 2.125 304.75 C4.44126556 299.81414838 5.5091502 296.84672099 4.4453125 291.546875 C1.39857714 274.12168678 5.57927579 254.46089627 15.109375 239.7421875 C17.3035772 236.72326791 19.58670149 233.84602789 22 231 C22.90492188 229.92492187 22.90492188 229.92492187 23.828125 228.828125 C42.33728537 208.70947242 73.2041953 199.99729837 99.625 198.125 C100.38345215 198.06344727 101.1419043 198.00189453 101.92333984 197.93847656 C106.54112152 197.68797148 109.37006699 198.07176408 113 201 C121.54020485 213.81030728 116.44226497 240.68419325 113.54345703 255.30224609 C109.17441594 275.90514977 100.21820526 295.13214057 82 307 C68.98056186 314.05486796 56.54970642 317.19930301 41.8125 317.125 C40.88864502 317.12306641 39.96479004 317.12113281 39.01293945 317.11914062 C32.29705039 317.0767728 25.67567003 316.77399073 19 316 C12.36916009 333.26228657 7.9554711 350.74888326 7.7890625 369.3203125 C7.76101785 371.08985338 7.73235359 372.85938453 7.703125 374.62890625 C7.66179205 377.38492806 7.62485006 380.14076306 7.59863281 382.89697266 C7.57097642 385.58011983 7.5251427 388.26247333 7.4765625 390.9453125 C7.47330963 391.76419952 7.47005676 392.58308655 7.46670532 393.42678833 C7.36235943 398.30541846 6.80338691 401.82953426 4 406 C0.50954906 408.37391101 -2.68426656 408.25612956 -6.82530212 408.26742554 C-7.51122879 408.27195665 -8.19715546 408.27648776 -8.90386778 408.28115618 C-11.20152402 408.29381315 -13.49894362 408.29217901 -15.79663086 408.29052734 C-17.44426275 408.29651173 -19.09189183 408.30331707 -20.73951721 408.31088257 C-25.21469494 408.32855739 -29.68979619 408.33323853 -34.16500545 408.33451414 C-37.90019145 408.336413 -41.63535963 408.34377026 -45.37053877 408.35085833 C-54.18184948 408.36714497 -62.99311932 408.37202697 -71.80444336 408.37060547 C-80.89653033 408.36940345 -89.98838014 408.39051668 -99.08040708 408.4220928 C-106.88518356 408.44823333 -114.68988247 408.45897372 -122.4947024 408.45769465 C-127.15678497 408.45718443 -131.81865673 408.46290095 -136.48069572 408.48405075 C-140.86466078 408.50339617 -145.24821311 408.50358312 -149.63219261 408.48901749 C-151.24104667 408.48692378 -152.84992631 408.49166366 -154.45873642 408.5037384 C-156.65554907 408.51915844 -158.85093272 408.50990627 -161.04771423 408.49447632 C-162.89134253 408.49611062 -162.89134253 408.49611062 -164.77221584 408.49777794 C-168.63038511 407.90278414 -170.28013627 406.75643533 -173 404 C-174.18111548 400.45665355 -174.13527104 397.26387035 -174.12025452 393.57795715 C-174.12110894 392.81585314 -174.12196337 392.05374913 -174.12284368 391.26855105 C-174.12449464 388.70741203 -174.11898338 386.14633809 -174.11352539 383.58520508 C-174.11324341 381.75227358 -174.11340147 379.91934196 -174.1139679 378.08641052 C-174.11425545 373.10326617 -174.10836553 368.12014577 -174.10139394 363.137007 C-174.09515338 357.93197135 -174.09455604 352.72693518 -174.09336853 347.52189636 C-174.09025729 337.66218566 -174.08204669 327.80248602 -174.07201904 317.9427802 C-174.06085148 306.71922554 -174.05534583 295.49567036 -174.05032361 284.27211154 C-174.03986392 261.18140156 -174.02226847 238.0907014 -174 215 C-175.25296875 215.02320313 -176.5059375 215.04640625 -177.796875 215.0703125 C-179.4479107 215.08907427 -181.09895285 215.10727403 -182.75 215.125 C-183.9875 215.15013672 -183.9875 215.15013672 -185.25 215.17578125 C-186.04921875 215.18222656 -186.8484375 215.18867188 -187.671875 215.1953125 C-188.4050293 215.20578613 -189.13818359 215.21625977 -189.89355469 215.22705078 C-192.35565106 214.96166487 -193.90453798 214.30868486 -196 213 C-199.34828455 208.04154408 -199.44087385 203.64127685 -199.3984375 197.875 C-199.40130768 197.00987793 -199.40417786 196.14475586 -199.40713501 195.25341797 C-199.40916898 193.43130841 -199.40368593 191.60917669 -199.39111328 189.78710938 C-199.37504981 187.00861479 -199.39098436 184.23157469 -199.41015625 181.453125 C-199.4081737 179.67708014 -199.40432978 177.90103619 -199.3984375 176.125 C-199.40451019 175.29983887 -199.41058289 174.47467773 -199.4168396 173.62451172 C-199.3434465 167.56297678 -198.16900629 163.31873247 -193.90625 158.76171875 C-193.1121875 158.07722656 -192.318125 157.39273438 -191.5 156.6875 C-190.613125 155.91792969 -189.72625 155.14835938 -188.8125 154.35546875 C-185.14417229 151.28324429 -181.43870904 148.25940506 -177.71875 145.25 C-175.07852271 143.06498431 -172.5327028 140.80828609 -170 138.5 C-166.68010514 135.47717579 -163.30235888 132.57487839 -159.8125 129.75 C-155.36147808 126.14529915 -151.00801395 122.44629733 -146.6875 118.6875 C-145.73725952 117.86088867 -145.73725952 117.86088867 -144.76782227 117.01757812 C-143.48168345 115.89837515 -142.19563212 114.77907163 -140.90966797 113.65966797 C-133.76608759 107.45127377 -126.60354128 101.27176028 -119.25 95.3125 C-114.86848205 91.75732096 -110.68289319 88.03230463 -106.51171875 84.234375 C-103.99848768 81.99865467 -101.42688521 79.86622318 -98.8125 77.75 C-92.37451094 72.53613562 -86.14836434 67.08958747 -79.90087891 61.65087891 C-71.95394318 54.74910915 -63.93322101 47.93312714 -55.8918457 41.1418457 C-49.56552711 35.79513549 -43.28381663 30.39652647 -37 25 C-32.91877288 21.49505205 -28.83514625 17.99296948 -24.74658203 14.49658203 C-22.9515282 12.95846629 -21.16130363 11.4148429 -19.37109375 9.87109375 C-18.20590009 8.87219642 -17.04054169 7.87349121 -15.875 6.875 C-15.34253662 6.41343506 -14.81007324 5.95187012 -14.26147461 5.47631836 C-9.55121814 1.45636462 -6.32380431 -0.75885652 0 0 Z M-103 218 C-103.83484445 240.81908163 -100.89169566 265.40580912 -85.75 283.5 C-76.64306445 292.93218324 -63.78267532 297.7239245 -50.81640625 298.08984375 C-43.82493319 298.26778936 -43.82493319 298.26778936 -37 297 C-41.98617626 285.31197393 -55.86932598 277.06738395 -67.0625 272.3125 C-67.94035156 271.97863281 -68.81820312 271.64476562 -69.72265625 271.30078125 C-72.63122272 269.63945597 -73.6150696 268.0212508 -75 265 C-74.88105265 261.55052696 -74.67554298 259.06664681 -72.8125 256.125 C-69.99271387 254.37478792 -68.38025114 254.06036163 -65 254 C-53.26663358 256.8668905 -43.09766594 263.74014408 -33.9609375 271.3984375 C-32.08878463 273.04703005 -32.08878463 273.04703005 -30 274 C-30.55363913 262.92721732 -34.67251187 253.30448655 -42 245 C-42.56203125 244.34515625 -43.1240625 243.6903125 -43.703125 243.015625 C-58.13723627 227.36856321 -82.15662096 219.48881279 -103 218 Z M37 244 C36.41347656 244.57492187 35.82695312 245.14984375 35.22265625 245.7421875 C29.03893329 252.31927706 25.54516567 261.19255565 24 270 C24.41398947 272.1637169 24.41398947 272.1637169 25 274 C25.42667969 273.5875 25.85335937 273.175 26.29296875 272.75 C34.72991474 264.95669732 47.96182657 254.65071208 60 254 C63.65003004 254.73000601 65.45604569 255.38585804 67.9375 258.1875 C69.36341011 261.96196793 69.12298709 264.13973189 68 268 C65.33773991 270.91184698 62.43839785 272.2926278 58.875 273.8125 C47.12453518 278.89273396 38.52458066 286.6487112 30 296 C30 296.33 30 296.66 30 297 C44.59183657 300.24263035 59.38957172 297.3331106 72.1640625 289.86328125 C85.42409702 281.15110981 91.21181449 266.11593341 94.64453125 251.19921875 C96.84830563 240.2437648 97.18069196 229.14267102 97 218 C75.28457822 218 52.01900058 229.00786704 37 244 Z " fill="#000000" transform="translate(259,52)"/>
</svg>
