<?xml version="1.0" encoding="UTF-8"?>
<svg version="1.1" xmlns="http://www.w3.org/2000/svg" width="512" height="512">
<path d="M0 0 C0.80042725 0.09821045 1.60085449 0.1964209 2.42553711 0.29760742 C9.61195911 1.29570163 16.0045474 3.38019731 22.5625 6.5 C23.35785156 6.86996094 24.15320313 7.23992188 24.97265625 7.62109375 C38.39349061 14.46169539 48.05861599 25.15225184 54.875 38.375 C55.20072998 38.99834229 55.52645996 39.62168457 55.86206055 40.26391602 C60.80044391 50.34232804 62.02442375 60.65248046 61.99609375 71.75390625 C62.0013356 72.97601303 62.00657745 74.19811981 62.01197815 75.45726013 C62.01835932 78.02284999 62.01711249 80.58846925 62.00854492 83.15405273 C62.00001485 87.05570907 62.02888712 90.95590883 62.06054688 94.85742188 C62.06215881 97.3645829 62.0615815 99.87174649 62.05859375 102.37890625 C62.06982773 103.53129288 62.08106171 104.6836795 62.09263611 105.87098694 C61.9938992 117.46581673 58.83065171 127.15062872 50.5625 135.5 C45.31242343 139.83015165 41.25594036 141.58758847 34.5625 143.5 C34.5625 190.36 34.5625 237.22 34.5625 285.5 C48.7525 285.5 62.9425 285.5 77.5625 285.5 C77.5625 269.33 77.5625 253.16 77.5625 236.5 C75.9125 236.17 74.2625 235.84 72.5625 235.5 C63.97895044 231.18583335 58.51396952 224.89008228 55.21392822 215.9085083 C53.97810031 211.3393145 54.11554093 206.72479046 54.12890625 202.01953125 C54.1236644 200.9296843 54.11842255 199.83983734 54.11302185 198.71696472 C54.10662178 196.41833341 54.1079124 194.11966927 54.11645508 191.82104492 C54.12493211 188.34037497 54.0962262 184.86136623 54.06445312 181.38085938 C53.99722908 159.95831507 53.99722908 159.95831507 58.5625 149.5 C58.91997314 148.60684082 59.27744629 147.71368164 59.64575195 146.79345703 C64.89096688 134.17407932 77.28878812 123.0362836 89.625 117.6875 C108.78556274 110.30874794 108.78556274 110.30874794 116.828125 113.359375 C118.5625 114.5 118.5625 114.5 119.5625 116.5 C119.6662628 119.3153192 119.70930479 122.10608961 119.70776367 124.921875 C119.71280159 126.22958107 119.71280159 126.22958107 119.71794128 127.56370544 C119.72747409 130.45915131 119.72939611 133.3545394 119.73046875 136.25 C119.73368167 138.26342798 119.73704577 140.27685572 119.74055481 142.2902832 C119.74655327 146.52051331 119.74839417 150.75072297 119.74780273 154.98095703 C119.74770152 160.38320285 119.76130849 165.78531603 119.77857494 171.18753052 C119.78973863 175.3518737 119.79172054 179.51618538 119.79119301 183.68054199 C119.79236828 185.6706996 119.79676451 187.66085815 119.80452538 189.65100098 C119.81440564 192.4484153 119.81141488 195.24554918 119.80541992 198.04296875 C119.81103943 198.85479111 119.81665894 199.66661346 119.82244873 200.5030365 C119.76271047 211.56264717 117.45469648 220.93118766 109.9296875 229.3203125 C103.25432585 235.49890305 96.50136705 237.38264162 87.5625 238.5 C87.5625 254.01 87.5625 269.52 87.5625 285.5 C94.4925 285.5 101.4225 285.5 108.5625 285.5 C115.5625 291.5 115.5625 291.5 116.5625 294.5 C117.23535435 303.83474259 115.95625785 313.24971316 115.03369141 322.53100586 C114.86900737 324.22737908 114.70477957 325.92379664 114.54096985 327.62025452 C114.09741794 332.19926488 113.64722793 336.77759971 113.19556856 341.3558166 C112.72203084 346.16515248 112.25392177 350.97501723 111.78500366 355.7848053 C110.99679937 363.86073122 110.20429153 371.93622603 109.40917969 380.01147461 C108.49241593 389.32275114 107.58234747 398.63466345 106.67590392 407.9469499 C105.80086792 416.93505097 104.92117211 425.92269014 104.0393486 434.91012764 C103.66550408 438.72106323 103.29324504 442.53214864 102.9222908 446.34336662 C102.48446931 450.83931455 102.04253453 455.33484041 101.5975399 459.83008385 C101.43570994 461.47133486 101.27523835 463.11272052 101.11629295 464.75425339 C98.35708816 493.21912121 98.35708816 493.21912121 92.5625 498.5 C86.3080451 502.96132436 80.13039771 503.06786562 72.67041016 503.00170898 C71.50202606 503.00711197 70.33364197 503.01251495 69.12985229 503.01808167 C65.28682763 503.03054038 61.44455592 503.01410185 57.6015625 502.99609375 C54.92734766 502.99624874 52.25315955 502.99768387 49.57894897 503.00050354 C43.98564919 503.00319842 38.39256492 502.98978488 32.79931641 502.96655273 C26.33027391 502.9398692 19.86158979 502.93822315 13.39251101 502.9499411 C7.16248968 502.96070728 0.93259813 502.95454607 -5.29741287 502.94038582 C-7.94728848 502.93585915 -10.59717464 502.93554506 -13.24705124 502.93945122 C-16.9388501 502.94234735 -20.63005356 502.92593535 -24.32177734 502.90405273 C-25.97527191 502.91080521 -25.97527191 502.91080521 -27.66217041 502.91769409 C-28.66305695 502.90778946 -29.66394348 502.89788483 -30.69515991 502.88768005 C-31.56784704 502.88525016 -32.44053417 502.88282026 -33.33966637 502.88031673 C-34.03195147 502.75481221 -34.72423656 502.62930769 -35.4375 502.5 C-37.4375 499.5 -37.4375 499.5 -37.125 496.875 C-36.4375 494.5 -36.4375 494.5 -35.4375 493.5 C-33.95617438 493.39652255 -32.46996619 493.3620493 -30.98504639 493.35523987 C-30.02326981 493.34834137 -29.06149323 493.34144287 -28.0705719 493.33433533 C-27.00668747 493.33172195 -25.94280304 493.32910858 -24.84667969 493.32641602 C-23.17601692 493.3163855 -23.17601692 493.3163855 -21.47160339 493.30615234 C-19.04343528 493.29206292 -16.61525362 493.2801814 -14.18706512 493.27020454 C-10.34619758 493.25385014 -6.50543015 493.23061384 -2.66461182 493.20530701 C8.25918642 493.13438344 19.18302551 493.07438048 30.10693359 493.02319336 C36.78006876 492.99184074 43.45307665 492.95014138 50.12612152 492.90299797 C52.67302154 492.88696475 55.21994774 492.87464931 57.76688385 492.86609077 C61.32940693 492.85394964 64.89166314 492.82980312 68.45410156 492.80297852 C70.03778282 492.8020948 70.03778282 492.8020948 71.65345764 492.80119324 C72.62651352 492.79147491 73.5995694 492.78175659 74.60211182 492.77174377 C75.44425358 492.76751184 76.28639534 492.7632799 77.15405655 492.75891972 C80.90903778 492.35524045 83.57798596 491.46460252 86.30078125 488.796875 C87.94598726 485.80188697 88.31055159 483.13037235 88.75 479.75 C88.90855469 478.57953125 89.06710937 477.4090625 89.23046875 476.203125 C89.39482422 474.86507812 89.39482422 474.86507812 89.5625 473.5 C73.40253481 473.53721419 57.2428368 473.5971445 41.08306885 473.68390274 C33.57930151 473.72366281 26.07563857 473.75607062 18.57177734 473.77099609 C12.02917415 473.78402844 5.48680098 473.81103314 -1.05567265 473.85461307 C-4.51790589 473.87719272 -7.97985579 473.89291281 -11.44216919 473.89188385 C-15.31324471 473.89099579 -19.18374381 473.9213109 -23.0546875 473.95410156 C-24.19476761 473.9490712 -25.33484772 473.94404083 -26.50947571 473.93885803 C-33.32318614 474.02805718 -37.56379495 475.03666909 -43.4375 478.5 C-46.4375 479.25 -46.4375 479.25 -48.4375 479.5 C-48.355 480.655 -48.2725 481.81 -48.1875 483 C-48.21801168 488.75653635 -50.18660698 493.14167799 -54.15625 497.30078125 C-59.07078774 501.66347471 -62.44579133 502.62317553 -69.0769043 502.67700195 C-69.74724197 502.68357315 -70.41757965 502.69014435 -71.10823059 502.69691467 C-73.32606119 502.71661859 -75.54382406 502.72830568 -77.76171875 502.73828125 C-78.52126169 502.74235678 -79.28080463 502.7464323 -80.06336403 502.75063133 C-84.08610384 502.77148288 -88.10880966 502.78578673 -92.1315918 502.79516602 C-96.27306665 502.80620941 -100.41400111 502.84058739 -104.55528545 502.88033772 C-107.75105236 502.90657213 -110.94669204 502.91486401 -114.14255714 502.91844749 C-115.66828866 502.92329838 -117.19401507 502.93486944 -118.71964073 502.95348549 C-133.53546699 503.12298842 -133.53546699 503.12298842 -140.4375 498.5 C-142.27734375 496.68359375 -142.27734375 496.68359375 -143.375 494.9375 C-143.75527344 494.35871094 -144.13554687 493.77992188 -144.52734375 493.18359375 C-146.25873892 489.98088422 -146.55165211 487.37649563 -146.5 483.8125 C-146.49097656 483.00425781 -146.48195312 482.19601562 -146.47265625 481.36328125 C-146.46105469 480.74839844 -146.44945312 480.13351562 -146.4375 479.5 C-147.05496094 479.35304688 -147.67242187 479.20609375 -148.30859375 479.0546875 C-154.97419643 477.28936807 -159.96304414 474.65444688 -165.4375 470.5 C-166.05496094 470.05914062 -166.67242187 469.61828125 -167.30859375 469.1640625 C-176.25249048 462.27188373 -182.24935488 450.48408496 -184.4375 439.5 C-184.55146693 436.93460287 -184.61521263 434.39507433 -184.63037109 431.82910156 C-184.63854858 431.06108215 -184.64672607 430.29306274 -184.65515137 429.50177002 C-184.67992567 426.96472946 -184.69650123 424.42774458 -184.7109375 421.890625 C-184.71626118 421.02167351 -184.72158485 420.15272202 -184.72706985 419.25743866 C-184.75376732 414.65763736 -184.77315274 410.05786289 -184.78759766 405.45800781 C-184.8009323 401.65958552 -184.82878076 397.86170102 -184.86962891 394.06347656 C-184.91904205 389.46818148 -184.94372907 384.87337379 -184.95082474 380.2778244 C-184.95752099 378.53157985 -184.97270061 376.78534549 -184.99671555 375.03925323 C-185.21032779 358.56771718 -185.21032779 358.56771718 -180.86685181 352.9052124 C-176.06358477 348.18306466 -172.2687418 346.21384155 -165.4375 346.1875 C-163.76946629 346.26682226 -162.10173448 346.36233354 -160.4375 346.5 C-160.4435097 343.57928415 -160.49086262 340.66922336 -160.5625 337.75 C-160.55992187 336.925 -160.55734375 336.1 -160.5546875 335.25 C-160.6317376 332.86144684 -160.77538386 330.79824511 -161.4375 328.5 C-164.21234564 326.02131309 -164.21234564 326.02131309 -167.4375 324.5 C-170.4087312 321.67697749 -173.05533073 318.70386201 -173.4375 314.5 C-173.540625 313.4275 -173.64375 312.355 -173.75 311.25 C-173.24527311 305.19327735 -170.99654337 300.5616909 -166.375 296.5625 C-163.4375 294.5 -163.4375 294.5 -160.4375 293.5 C-159.33037215 291.11016018 -159.33037215 291.11016018 -158.5 288.25 C-155.59790471 279.80555732 -150.84178794 275.34436207 -143.0625 271.25 C-136.73483721 269.44209634 -130.87308955 269.26765307 -124.4375 270.5 C-124.39625 269.38625 -124.355 268.2725 -124.3125 267.125 C-123.20228246 258.41287623 -117.05623435 250.94069264 -110.4375 245.5 C-109.53 245.04625 -108.6225 244.5925 -107.6875 244.125 C-104.54413472 241.85479174 -104.29270209 239.34737142 -103.23828125 235.71875 C-101.64430957 231.30228212 -98.44158372 229.14707618 -94.625 226.6875 C-89.26006972 224.68880048 -85.16755589 224.99291465 -79.8125 226.5625 C-75.69231548 228.92779111 -72.91029054 231.43003 -70.4375 235.5 C-69.90234375 237.5234375 -69.90234375 237.5234375 -69.5625 239.5625 C-68.87998645 243.1909649 -67.70151574 244.40156263 -64.6875 246.5 C-63.9759375 246.97953125 -63.264375 247.4590625 -62.53125 247.953125 C-56.18813975 252.63945272 -52.50190339 260.03734323 -50.4375 267.5 C-49.98897818 272.05928597 -50.05488143 276.54965934 -50.1875 281.125 C-50.20554687 282.31996094 -50.22359375 283.51492188 -50.2421875 284.74609375 C-50.2888888 287.66492527 -50.3543666 290.58201761 -50.4375 293.5 C-49.25921631 293.71039917 -49.25921631 293.71039917 -48.05712891 293.92504883 C-43.85767141 294.84673778 -41.33162229 297.42678599 -38.4375 300.5 C-34.47709697 306.83664485 -34.28696109 313.22067806 -34.33984375 320.5234375 C-34.34196617 321.64270126 -34.34196617 321.64270126 -34.34413147 322.78457642 C-34.34969126 325.14809318 -34.36223611 327.51151227 -34.375 329.875 C-34.3800202 331.48567571 -34.3845822 333.09635291 -34.38867188 334.70703125 C-34.39964749 338.63805799 -34.41688404 342.56901248 -34.4375 346.5 C-33.76565674 346.48187256 -33.09381348 346.46374512 -32.40161133 346.44506836 C-31.5123999 346.43096924 -30.62318848 346.41687012 -29.70703125 346.40234375 C-28.38989136 346.37515259 -28.38989136 346.37515259 -27.04614258 346.34741211 C-22.09468978 346.6370385 -18.20466573 348.56578875 -14.8671875 352.21875 C-8.79146793 360.41229181 -10.4375 364.45318695 -10.4375 376.5 C25.8625 376.5 62.1625 376.5 99.5625 376.5 C99.8925 370.56 100.2225 364.62 100.5625 358.5 C100.8925 357.84 101.2225 357.18 101.5625 356.5 C100.24927261 356.50222061 98.93604523 356.50444122 97.58302307 356.50672913 C85.23648926 356.52695802 72.8899588 356.54197092 60.54341221 356.55181217 C54.19519424 356.55704164 47.8469896 356.56414044 41.4987793 356.57543945 C35.37801418 356.58626606 29.25726191 356.59227635 23.13648796 356.59487724 C20.79559057 356.5967319 18.45469391 356.60035329 16.11380196 356.60573006 C12.84741798 356.61293748 9.58108785 356.61399107 6.31469727 356.61352539 C5.336465 356.61712067 4.35823273 356.62071594 3.35035706 356.62442017 C2.46549622 356.6230455 1.58063538 356.62167084 0.66896057 356.62025452 C-0.10442374 356.62117631 -0.87780806 356.6220981 -1.67462826 356.62304783 C-3.4375 356.5 -3.4375 356.5 -4.4375 355.5 C-4.5625 352 -4.5625 352 -4.4375 348.5 C-3.4375 347.5 -3.4375 347.5 -1.65901089 347.37695217 C-0.4878729 347.37833486 -0.4878729 347.37833486 0.70692444 347.37974548 C2.04683693 347.37768349 2.04683693 347.37768349 3.41381836 347.37557983 C4.40140137 347.37917511 5.38898438 347.38277039 6.40649414 347.38647461 C7.44051865 347.38632858 8.47454315 347.38618256 9.53990173 347.3860321 C12.97584086 347.38673173 16.41172653 347.39452642 19.84765625 347.40234375 C22.22277293 347.40420775 24.59789 347.40563174 26.9730072 347.40663147 C33.23826144 347.41045803 39.50349267 347.4202895 45.76873779 347.43133545 C52.1563689 347.4415466 58.54400371 347.44612845 64.93164062 347.45117188 C77.47527026 347.46191164 90.01888391 347.47879873 102.5625 347.5 C102.52125 346.283125 102.48 345.06625 102.4375 343.8125 C102.41769062 337.61216291 103.50764903 331.593648 104.5625 325.5 C103.88920465 325.50276538 103.21590931 325.50553076 102.52221107 325.50837994 C86.15658988 325.57456758 69.79101095 325.6242453 53.42528725 325.65543652 C45.51101507 325.6709204 37.59683211 325.69203882 29.68261719 325.72631836 C22.78640891 325.75617434 15.89026522 325.77556393 8.99399412 325.78226548 C5.3407901 325.78618424 1.68777091 325.79542503 -1.96537399 325.81719017 C-6.0386864 325.84126287 -10.11167534 325.84197246 -14.18505859 325.84057617 C-16.01169289 325.85675491 -16.01169289 325.85675491 -17.87522888 325.8732605 C-18.98023239 325.86913651 -20.0852359 325.86501251 -21.22372437 325.86076355 C-22.67001756 325.86491162 -22.67001756 325.86491162 -24.14552879 325.86914349 C-24.90187929 325.74732614 -25.65822979 325.62550879 -26.4375 325.5 C-28.4375 322.5 -28.4375 322.5 -28.125 319.875 C-27.4375 317.5 -27.4375 317.5 -26.4375 316.5 C-24.72924312 316.40377964 -23.01697886 316.37812372 -21.30601501 316.37974548 C-20.19397202 316.37837082 -19.08192902 316.37699615 -17.93618774 316.37557983 C-16.70548553 316.37917511 -15.47478333 316.38277039 -14.20678711 316.38647461 C-12.91916977 316.38632858 -11.63155243 316.38618256 -10.30491638 316.3860321 C-6.7637524 316.38574414 -3.22262201 316.39164064 0.31853414 316.39860606 C4.01544988 316.40483983 7.71236631 316.40544342 11.4092865 316.40663147 C18.41453899 316.40974472 25.41977595 316.41795801 32.42502159 316.42798096 C40.39828876 316.4391423 48.37155665 316.4446526 56.34482968 316.44967639 C72.75072889 316.46014063 89.15661247 316.47773995 105.5625 316.5 C105.59138146 313.18751813 105.60925799 309.87506833 105.625 306.5625 C105.63337891 305.61697266 105.64175781 304.67144531 105.65039062 303.69726562 C105.65361328 302.79814453 105.65683594 301.89902344 105.66015625 300.97265625 C105.66539307 300.14000244 105.67062988 299.30734863 105.67602539 298.44946289 C105.77893292 296.49483202 105.77893292 296.49483202 104.5625 295.5 C102.71961014 295.39567174 100.87269889 295.36201002 99.02687073 295.35523987 C97.82516235 295.34834137 96.62345398 295.34144287 95.3853302 295.33433533 C94.04147354 295.33162039 92.69761672 295.32898326 91.35375977 295.32641602 C89.94800612 295.32011439 88.54225448 295.31334903 87.13650513 295.30615234 C84.10263548 295.29145614 81.06877369 295.27974219 78.0348835 295.27020454 C73.24131239 295.25479199 68.44780809 295.23084381 63.65428162 295.20530701 C50.02111016 295.13399579 36.38790041 295.074273 22.75463867 295.02319336 C15.23028685 294.99492631 7.70600147 294.95956518 0.18171924 294.91653961 C-4.58708576 294.88970364 -9.35581557 294.87183768 -14.12468135 294.86050236 C-17.08789313 294.85140003 -20.05101329 294.83404964 -23.0141716 294.81432343 C-24.39205427 294.80682678 -25.76996039 294.8027656 -27.14786339 294.80232811 C-29.02356535 294.80125135 -30.89924586 294.78687674 -32.77488708 294.77174377 C-33.82627585 294.76751184 -34.87766462 294.7632799 -35.96091366 294.75891972 C-38.4375 294.5 -38.4375 294.5 -40.4375 292.5 C-40.625 289.4375 -40.625 289.4375 -40.4375 286.5 C-40.1075 286.17 -39.7775 285.84 -39.4375 285.5 C-33.4975 285.5 -27.5575 285.5 -21.4375 285.5 C-21.4375 271.97 -21.4375 258.44 -21.4375 244.5 C-23.4175 244.17 -25.3975 243.84 -27.4375 243.5 C-35.14805792 239.99520094 -40.52278688 234.36867848 -43.80123138 226.51180649 C-44.9197681 222.97512504 -44.837573 219.50740697 -44.79394531 215.82666016 C-44.79598969 214.98843719 -44.79803406 214.15021423 -44.80014038 213.28659058 C-44.80313016 210.5371871 -44.78473272 207.7883939 -44.765625 205.0390625 C-44.76256541 203.12332304 -44.76069081 201.20758136 -44.75994873 199.2918396 C-44.75535778 195.28903614 -44.74097262 191.28643523 -44.71875 187.28369141 C-44.69035372 182.14192143 -44.67952574 177.00030997 -44.6750679 171.85846901 C-44.67092255 167.90894983 -44.66111438 163.95946293 -44.64919281 160.00996017 C-44.6434814 158.11285028 -44.63872559 156.21573727 -44.63492584 154.31862259 C-44.62808889 151.67801628 -44.6144719 149.03753834 -44.59863281 146.39697266 C-44.59751495 145.60740173 -44.59639709 144.81783081 -44.59524536 144.0043335 C-44.55219507 138.61469507 -44.55219507 138.61469507 -43.4375 137.5 C-35.27377456 136.85970781 -28.03721292 137.44521343 -20.4375 140.5 C-19.62796875 140.81710938 -18.8184375 141.13421875 -17.984375 141.4609375 C-6.59068048 146.51285866 2.92011191 155.87576498 7.7734375 167.3671875 C9.81943059 172.83767967 11.6700371 177.98981273 11.72363281 183.86621094 C11.73324036 184.72100037 11.7428479 185.57578979 11.75274658 186.45648193 C11.7591214 187.831539 11.7591214 187.831539 11.765625 189.234375 C11.77132507 190.1863678 11.77702515 191.1383606 11.78289795 192.11920166 C11.79233655 194.13316745 11.7988774 196.1471486 11.80273438 198.16113281 C11.81242061 201.22488754 11.84344702 204.28796566 11.875 207.3515625 C11.88153257 209.31249604 11.88678204 211.27343435 11.890625 213.234375 C11.9029718 214.14298279 11.9153186 215.05159058 11.92803955 215.98773193 C11.89573321 225.32513149 9.17415855 231.66581436 2.75390625 238.51171875 C-1.63499231 242.49380319 -5.50204512 244.5 -11.4375 244.5 C-11.4375 258.03 -11.4375 271.56 -11.4375 285.5 C0.4425 285.5 12.3225 285.5 24.5625 285.5 C24.2325 239.3 23.9025 193.1 23.5625 145.5 C19.9325 144.84 16.3025 144.18 12.5625 143.5 C2.76540104 139.92487426 -4.60343724 133.76190176 -9.4375 124.5 C-12.33563592 117.6822618 -12.87400555 111.50295921 -12.84155273 104.15283203 C-12.84841599 103.0541832 -12.85527924 101.95553436 -12.86235046 100.82359314 C-12.88054704 97.21819892 -12.87679353 93.61324244 -12.87109375 90.0078125 C-12.87565653 87.49437316 -12.88096239 84.98093506 -12.88697815 82.46749878 C-12.89589333 77.21396932 -12.89373651 71.96055272 -12.88354492 66.70703125 C-12.87202577 60.63498732 -12.886214 54.56338313 -12.9129414 48.49139702 C-12.93774075 42.63780532 -12.94028328 36.78438537 -12.93382454 30.9307518 C-12.93367087 28.44357443 -12.93975243 25.95638874 -12.95211601 23.4692421 C-12.96693061 20.0027568 -12.95642118 16.53725448 -12.93920898 13.07080078 C-12.95371094 11.52323845 -12.95371094 11.52323845 -12.96850586 9.94441223 C-12.95375465 8.53153679 -12.95375465 8.53153679 -12.93870544 7.09011841 C-12.93849616 6.2712723 -12.93828688 5.45242619 -12.93807125 4.60876656 C-12.4375 2.5 -12.4375 2.5 -10.64811802 0.71507072 C-7.16691206 -1.19838126 -3.79383038 -0.49718252 0 0 Z M6.5625 11.5 C6.91441406 12.1084375 7.26632812 12.716875 7.62890625 13.34375 C16.89731469 29.79940989 23.12623684 47.1717766 27.5625 65.5 C31.31836182 60.71771749 34.01705348 55.41080084 36.875 50.0625 C37.45056641 49.02544922 38.02613281 47.98839844 38.61914062 46.91992188 C39.15345703 45.91638672 39.68777344 44.91285156 40.23828125 43.87890625 C40.73239502 42.9669751 41.22650879 42.05504395 41.7355957 41.11547852 C42.81858814 38.50438731 42.81858814 38.50438731 41.85327148 35.84082031 C40.11030336 32.67993921 37.85121379 30.21396919 35.3125 27.6875 C34.78817383 27.16559082 34.26384766 26.64368164 33.72363281 26.10595703 C26.19260533 18.91362655 16.96307259 13.16409161 6.5625 11.5 Z M-2.4375 17.5 C-2.71142673 22.46171338 -2.90987539 27.4189516 -3.04174805 32.38647461 C-3.09674896 34.07182513 -3.17158758 35.75665827 -3.26733398 37.44018555 C-4.05350769 47.59194914 -4.05350769 47.59194914 -0.10473633 56.54321289 C2.68229703 58.83063746 5.45579031 60.67956214 8.5625 62.5 C10.13900304 63.66884587 11.70461484 64.85281112 13.25 66.0625 C14.35225364 66.87759337 15.45559722 67.69123149 16.5625 68.5 C17.5525 68.005 17.5525 68.005 18.5625 67.5 C12.37639097 40.34812962 12.37639097 40.34812962 -2.4375 17.5 Z M47.5625 48.5 C33.55217248 69.91429748 28.14521686 85.84445995 32.56968689 111.28549194 C33.84564511 118.65461256 34.23756152 126.03707903 34.5625 133.5 C41.44375074 130.20273402 47.61276406 125.51911161 50.4519043 118.21044922 C53.08867683 109.3276219 52.98621876 100.45087552 52.89868164 91.27392578 C52.87510488 88.63673121 52.87813931 86.00055468 52.88476562 83.36328125 C52.86566542 71.48574203 52.58517824 59.81160665 48.5625 48.5 C48.2325 48.5 47.9025 48.5 47.5625 48.5 Z M-2.4375 66.5 C-2.56504127 73.15262205 -2.65215991 79.80492492 -2.7121582 86.45849609 C-2.73718909 88.71838157 -2.77122438 90.97818702 -2.81469727 93.23779297 C-2.87585233 96.49987619 -2.90382502 99.76088245 -2.92578125 103.0234375 C-2.95158768 104.02176605 -2.9773941 105.0200946 -3.00398254 106.04867554 C-3.00725493 114.36918295 -0.56606441 120.66922132 4.703125 127.12109375 C10.86914007 132.43071784 16.30936265 135.5 24.5625 135.5 C24.73564763 129.33081425 24.74110649 123.1845792 24.61669922 117.01416016 C24.57938575 114.59483557 24.57234871 112.17491658 24.59033203 109.75537109 C25.02458507 94.48020398 25.02458507 94.48020398 19.52197266 80.73583984 C13.11036942 74.47879412 5.4995974 70.46675794 -2.4375 66.5 Z M77.65625 138.3515625 C73.79933358 141.90363777 73.79933358 141.90363777 72.58984375 146.69921875 C74.01485159 150.80255458 76.04293948 154.50867427 78.125 158.3125 C78.54974609 159.10076172 78.97449219 159.88902344 79.41210938 160.70117188 C80.45646554 162.6373378 81.5067077 164.57005367 82.5625 166.5 C84.69637844 165.71323299 84.69637844 165.71323299 85.21337891 163.8203125 C85.40335449 163.09585938 85.59333008 162.37140625 85.7890625 161.625 C86.01247314 160.81216553 86.23588379 159.99933105 86.46606445 159.16186523 C86.70413818 158.28344971 86.94221191 157.40503418 87.1875 156.5 C89.64815483 147.80892638 92.89684326 139.87837205 96.92578125 131.80859375 C98.60164406 128.61124043 98.60164406 128.61124043 99.5625 125.5 C91.14093681 125.5 83.49711033 132.94687031 77.65625 138.3515625 Z M108.5625 130.5 C102.36430002 139.74731448 91.81733319 157.1236947 93.9921875 168.80859375 C94.18039062 169.36675781 94.36859375 169.92492187 94.5625 170.5 C96.68887234 168.87676928 98.81363436 167.2515047 100.9375 165.625 C101.54078125 165.16480469 102.1440625 164.70460937 102.765625 164.23046875 C105.14501391 162.40627059 107.43991212 160.62258788 109.5625 158.5 C109.84126767 155.58512078 109.84126767 155.58512078 109.7578125 152.1796875 C109.75136719 150.92285156 109.74492187 149.66601562 109.73828125 148.37109375 C109.72152344 147.05238281 109.70476562 145.73367187 109.6875 144.375 C109.67746983 143.03516279 109.66834404 141.69531848 109.66015625 140.35546875 C109.63652075 137.07013427 109.60357234 133.78515535 109.5625 130.5 C109.2325 130.5 108.9025 130.5 108.5625 130.5 Z M-35.4375 147.5 C-35.50718359 156.74943028 -35.56040413 165.9987694 -35.59293652 175.24840546 C-35.60855488 179.54395355 -35.62972266 183.8393213 -35.66381836 188.13476562 C-35.69654913 192.2844875 -35.71438179 196.43403651 -35.72213173 200.58387756 C-35.72765072 202.1626304 -35.73842777 203.74137438 -35.75469017 205.3200531 C-36.18410407 218.18485454 -36.18410407 218.18485454 -30.7890625 229.5234375 C-25.52276034 233.64592743 -21.52204393 236.02283529 -14.5546875 235.8125 C-9.37867427 235.04851281 -5.07262567 232.52702162 -1.5625 228.6875 C2.14004002 223.13368997 2.81616415 217.74429978 2.828125 211.16796875 C2.83003845 210.49131668 2.8319519 209.81466461 2.83392334 209.11750793 C2.83527537 207.69478989 2.83164806 206.27205909 2.82324219 204.84936523 C2.81257862 202.70332227 2.82314456 200.55812589 2.8359375 198.41210938 C2.8538904 183.21492378 0.36942917 169.74173936 -10.45703125 158.24609375 C-17.24503995 152.26139969 -26.23912436 147.21502451 -35.4375 147.5 Z M66.5625 157.5 C63.65808046 164.08335095 63.39624969 170.44155636 63.359375 177.51953125 C63.35367493 178.3775383 63.34797485 179.23554535 63.34210205 180.11955261 C63.33268982 181.92905458 63.32613316 183.73857339 63.32226562 185.5480957 C63.31256733 188.29344059 63.28151123 191.03803376 63.25 193.78320312 C63.24346786 195.54947477 63.23821822 197.31575171 63.234375 199.08203125 C63.2220282 199.89170853 63.2096814 200.7013858 63.19696045 201.53559875 C63.22379018 208.51578609 64.54600486 215.23178002 68.875 220.875 C71.63572562 223.5715227 74.10223539 224.86770966 77.5625 226.5 C77.99279887 221.1983212 78.41994977 215.89640148 78.84423828 210.59423828 C78.9888894 208.79208598 79.13438704 206.99000141 79.28076172 205.18798828 C79.49150838 202.59164676 79.69916805 199.99507357 79.90625 197.3984375 C79.97187134 196.5982016 80.03749268 195.7979657 80.10510254 194.97348022 C80.27549702 192.81643575 80.42392877 190.6592912 80.5625 188.5 C80.6346875 187.45134766 80.706875 186.40269531 80.78125 185.32226562 C80.50807336 181.79779921 79.38592376 179.55523279 77.71875 176.4453125 C77.13222656 175.33671875 76.54570312 174.228125 75.94140625 173.0859375 C75.32136719 171.94382813 74.70132812 170.80171875 74.0625 169.625 C73.43506553 168.44851988 72.80875162 167.27144143 72.18359375 166.09375 C70.65414453 163.22309147 69.11354726 160.35902942 67.5625 157.5 C67.2325 157.5 66.9025 157.5 66.5625 157.5 Z M100.125 177.8125 C99.33544922 178.40740234 98.54589844 179.00230469 97.73242188 179.61523438 C96.97638672 180.19208984 96.22035156 180.76894531 95.44140625 181.36328125 C94.7460376 181.89219971 94.05066895 182.42111816 93.33422852 182.96606445 C89.13817782 186.59894119 88.95030828 190.62071105 88.4375 195.8125 C88.35258301 196.63468018 88.26766602 197.45686035 88.18017578 198.30395508 C87.24580073 208.35365699 87.37625709 218.41852785 87.5625 228.5 C94.9868178 227.71421454 100.43196386 225.36495102 105.2109375 219.46484375 C109.23380409 213.24451536 109.70700378 208.15408576 109.66015625 200.796875 C109.6587413 199.95908508 109.65732635 199.12129517 109.65586853 198.25811768 C109.65028197 195.58870843 109.63773194 192.9193838 109.625 190.25 C109.61998326 188.43750121 109.61542066 186.62500111 109.61132812 184.8125 C109.60031694 180.37496752 109.58306155 175.93749809 109.5625 171.5 C106.51751485 171.5 102.46496559 176.02378544 100.125 177.8125 Z M-93.375 238.125 C-95.68295802 241.28608029 -95.68295802 241.28608029 -95.5625 244.625 C-94.12602667 248.29598741 -92.90385872 249.61610939 -89.4375 251.5 C-85.96991058 251.44021398 -83.54923251 251.10965977 -80.5 249.4375 C-78.73792849 246.22431078 -78.6904269 243.00278615 -79.4375 239.5 C-81.97221766 236.51797922 -83.62462339 235.66934929 -87.4375 234.875 C-90.69944656 235.29359356 -90.69944656 235.29359356 -93.375 238.125 Z M-106.375 255.15234375 C-111.58547948 260.92531817 -115.31003915 266.14664428 -115.5 274.125 C-114.16490626 277.10932719 -112.28614166 279.13681278 -110.0078125 281.4609375 C-104.76300099 288.27136439 -104.97033575 295.14452651 -104.92578125 303.43359375 C-104.90783005 304.66666763 -104.88987885 305.89974152 -104.87138367 307.17018127 C-104.81738045 311.0925865 -104.78341579 315.0148707 -104.75 318.9375 C-104.71844323 321.60356137 -104.68232796 324.26953685 -104.64648438 326.93554688 C-104.55920627 333.45704774 -104.4990483 339.97800285 -104.4375 346.5 C-95.1975 346.5 -85.9575 346.5 -76.4375 346.5 C-76.41171875 343.7775 -76.3859375 341.055 -76.359375 338.25 C-76.32088296 335.59218323 -76.27574595 332.93455579 -76.22998047 330.27685547 C-76.20188069 328.44003447 -76.18061182 326.60309503 -76.16650391 324.76611328 C-76.14492103 322.11429686 -76.09819501 319.46388815 -76.046875 316.8125 C-76.04564636 316.00071289 -76.04441772 315.18892578 -76.04315186 314.35253906 C-75.87049455 307.5210239 -74.01573747 302.07823747 -69.125 297.1875 C-65.9908625 295.2195532 -62.85036622 293.92836253 -59.4375 292.5 C-58.57722906 272.66111068 -58.57722906 272.66111068 -67.97265625 255.7421875 C-69.5357964 254.26035205 -69.5357964 254.26035205 -72.4375 253.5 C-73.94675176 254.71396337 -75.45155079 255.93549332 -76.90234375 257.21875 C-81.03831697 260.6706564 -85.20551182 260.95103346 -90.4375 260.5 C-95.2041826 258.88417539 -97.98503382 257.07576855 -101.4375 253.5 C-104.48146052 253.17555282 -104.48146052 253.17555282 -106.375 255.15234375 Z M-146.375 286.4375 C-148.31645833 289.32027146 -149.13586913 291.08151676 -149.4375 294.5 C-148.53 295.056875 -147.6225 295.61375 -146.6875 296.1875 C-142.59972953 299.09610591 -140.03248566 301.71504302 -138.4375 306.5 C-137.7598779 312.13203944 -138.34021327 316.75219375 -141.015625 321.7734375 C-142.7281632 323.85294817 -144.21424581 324.36640343 -146.6875 325.375 C-147.925 326.40625 -149.1625 327.4375 -150.4375 328.5 C-150.4375 334.44 -150.4375 340.38 -150.4375 346.5 C-138.2275 346.5 -126.0175 346.5 -113.4375 346.5 C-113.36847673 339.38293347 -113.30878627 332.26703738 -113.27270508 325.14990234 C-113.25765721 322.7309169 -113.23721412 320.31195857 -113.21118164 317.89306641 C-113.174623 314.40780937 -113.1577331 310.9229144 -113.14453125 307.4375 C-113.12904739 306.36322754 -113.11356354 305.28895508 -113.09761047 304.18212891 C-113.09607162 297.25194271 -113.52959142 291.06942333 -118.0859375 285.4765625 C-127.48503712 278.11889628 -137.82568891 276.90267755 -146.375 286.4375 Z M-65.4375 307.5 C-67.05051773 310.72603545 -66.55803599 314.24710038 -66.53515625 317.7890625 C-66.5337413 318.60748627 -66.53232635 319.42591003 -66.53086853 320.26913452 C-66.5252629 322.88779325 -66.51270948 325.50636704 -66.5 328.125 C-66.49498572 329.89843627 -66.49042269 331.67187387 -66.48632812 333.4453125 C-66.47614174 337.79693419 -66.4565675 342.14837182 -66.4375 346.5 C-59.1775 346.5 -51.9175 346.5 -44.4375 346.5 C-44.36843876 341.62478796 -44.30876508 336.75128892 -44.27270508 331.87597656 C-44.25766535 330.21934237 -44.23722823 328.56274769 -44.21118164 326.90625 C-44.17458485 324.5181297 -44.15772561 322.13053812 -44.14453125 319.7421875 C-44.12904739 319.00757294 -44.11356354 318.27295837 -44.09761047 317.51608276 C-44.09578819 311.88440664 -45.33763034 307.83318852 -49.125 303.625 C-56.04500884 300.25850921 -60.52353761 302.46618487 -65.4375 307.5 Z M-161.4375 305.5625 C-163.75109359 308.39917338 -163.75109359 308.39917338 -163.5625 312.0625 C-162.22922189 316.13640532 -161.20880118 317.48863937 -157.4375 319.5 C-153.80674173 319.5 -152.01701586 318.91176127 -149.0625 316.8125 C-146.91074855 313.75039216 -146.83738095 312.17572916 -147.4375 308.5 C-148.84628096 305.5098357 -148.84628096 305.5098357 -151.4375 303.5 C-155.87821826 302.69259668 -157.70540056 302.99668164 -161.4375 305.5625 Z M-172.4375 358.5 C-175.29688624 362.76918112 -175.8125577 366.18925149 -175.80981445 371.26464844 C-175.81346512 371.91270447 -175.81711578 372.5607605 -175.82087708 373.22845459 C-175.82893483 375.3557008 -175.81540731 377.48217326 -175.80078125 379.609375 C-175.80026181 381.10142008 -175.80078274 382.59346585 -175.80229187 384.08551025 C-175.80220234 387.20912937 -175.79181789 390.33248938 -175.77368164 393.45605469 C-175.75107414 397.43456857 -175.75043826 401.41270172 -175.75719929 405.39126205 C-175.76056344 408.47303573 -175.7538622 411.55472471 -175.74407005 414.63648224 C-175.74025383 416.10190638 -175.73905477 417.56734001 -175.7406559 419.03276825 C-175.74257067 429.51917198 -175.51086533 439.33881612 -170.5625 448.8125 C-170.07007813 449.77800781 -169.57765625 450.74351562 -169.0703125 451.73828125 C-163.41831615 461.29799756 -154.4132703 467.49806066 -143.82565308 470.5365448 C-139.49899523 471.59636564 -135.41570643 471.78949836 -130.97705078 471.7746582 C-130.17264557 471.77976913 -129.36824036 471.78488007 -128.53945923 471.79014587 C-125.90383274 471.80394447 -123.26847062 471.80309243 -120.6328125 471.80078125 C-118.78490097 471.80467364 -116.93699032 471.80900942 -115.08908081 471.81376648 C-111.22423395 471.82120787 -107.35947847 471.82095263 -103.49462891 471.81567383 C-98.56328535 471.80988324 -93.63231789 471.82681045 -88.70103645 471.8500185 C-84.88668666 471.86481296 -81.07242624 471.86561977 -77.25805283 471.86250877 C-75.44093964 471.86301916 -73.62382108 471.86820327 -71.80673599 471.87832069 C-56.25155874 471.95430844 -43.44944845 470.33519139 -31.625 459.125 C-21.01044794 447.73621002 -19.96114631 435.8908561 -19.96875 420.953125 C-19.96163932 419.25160474 -19.95393901 417.55008685 -19.94567871 415.84857178 C-19.93228946 412.29823108 -19.93064205 408.74811266 -19.93652344 405.19775391 C-19.94244224 400.65241668 -19.91171314 396.10813923 -19.87140656 391.56300735 C-19.84555334 388.05593131 -19.84264941 384.54911224 -19.84629822 381.04195404 C-19.84460757 379.36582506 -19.83497023 377.68968413 -19.81715393 376.01364899 C-19.79498834 373.67276164 -19.80464783 371.33404465 -19.82226562 368.99316406 C-19.80900238 368.30527298 -19.79573914 367.6173819 -19.78207397 366.90864563 C-19.8475169 363.16172951 -20.38039897 361.57250555 -22.72595215 358.59417725 C-26.79956937 355.4480493 -30.01582368 355.37463794 -35.07919312 355.35955811 C-36.22875992 355.35384796 -37.37832672 355.34813782 -38.56272888 355.34225464 C-39.81997269 355.34113678 -41.07721649 355.34001892 -42.37255859 355.33886719 C-43.71315141 355.33423667 -45.05374291 355.32921169 -46.39433289 355.32382202 C-50.03281211 355.31072002 -53.6712729 355.30425756 -57.30977201 355.29981136 C-59.58395478 355.29687756 -61.85813254 355.2927722 -64.13231277 355.28830719 C-71.25074565 355.2746391 -78.36916704 355.26496863 -85.48761213 355.2611053 C-93.69947803 355.25662373 -101.91117756 355.23906846 -110.12299287 355.2101047 C-116.47471055 355.18848056 -122.82638143 355.17840066 -129.17813551 355.17706418 C-132.97000189 355.17601683 -136.76171171 355.17012383 -140.55353928 355.15224457 C-144.1207859 355.13575072 -147.68775848 355.13361459 -151.25502968 355.14238358 C-153.18377806 355.14351943 -155.11251741 355.12981287 -157.04121399 355.1156311 C-165.2489711 354.98965434 -165.2489711 354.98965434 -172.4375 358.5 Z M-10.4375 386.5 C-10.4375 392.11 -10.4375 397.72 -10.4375 403.5 C24.8725 403.5 60.1825 403.5 96.5625 403.5 C97.96595728 395.02867283 97.96595728 395.02867283 98.5625 386.5 C62.5925 386.5 26.6225 386.5 -10.4375 386.5 Z M-10.4375 413.5 C-10.4375 420.43 -10.4375 427.36 -10.4375 434.5 C23.8825 434.5 58.2025 434.5 93.5625 434.5 C95.72749158 421.70208153 95.72749158 421.70208153 95.5625 413.5 C60.5825 413.5 25.6025 413.5 -10.4375 413.5 Z M-12.4375 444.5 C-14.7475 449.12 -17.0575 453.74 -19.4375 458.5 C-20.7575 460.48 -22.0775 462.46 -23.4375 464.5 C14.1825 464.5 51.8025 464.5 90.5625 464.5 C92.68119981 458.14390057 92.16906732 451.18835552 92.5625 444.5 C57.9125 444.5 23.2625 444.5 -12.4375 444.5 Z M-136.4375 481.5 C-137.06219505 487.31942409 -137.06219505 487.31942409 -134.1875 490.3125 C-130.07230559 493.5859501 -126.84881055 493.62645843 -121.6784668 493.66113281 C-119.9409742 493.67554413 -119.9409742 493.67554413 -118.16838074 493.69024658 C-116.92043228 493.69449646 -115.67248383 493.69874634 -114.38671875 493.703125 C-112.45576103 493.71167511 -112.45576103 493.71167511 -110.48579407 493.72039795 C-107.76144009 493.73088785 -105.03711545 493.73674349 -102.31274414 493.74023438 C-98.83602583 493.74571176 -95.35970057 493.76973156 -91.88310528 493.79820633 C-88.55098449 493.82140536 -85.21891606 493.82328708 -81.88671875 493.828125 C-80.64484299 493.8404718 -79.40296722 493.8528186 -78.12345886 493.86553955 C-67.93595908 493.85474438 -67.93595908 493.85474438 -59.5 488.625 C-58.064822 486.15061438 -58.064822 486.15061438 -58.4375 481.5 C-84.1775 481.5 -109.9175 481.5 -136.4375 481.5 Z " fill="#000000" transform="translate(389.4375,5.5)"/>
<path d="M0 0 C5.13912773 2.7097219 8.6270303 5.70645221 11 11 C11.66 10.67 12.32 10.34 13 10 C18.31135952 9.47059979 22.67272741 9.33636371 27.5 11.75 C31.23683089 15.1131478 33.7564449 17.92440888 34.16796875 23.12109375 C34.17441406 23.88550781 34.18085938 24.64992188 34.1875 25.4375 C34.20167969 26.19933594 34.21585938 26.96117188 34.23046875 27.74609375 C33.97612666 30.23347315 33.24017196 31.84808106 32 34 C33.051875 34.0309375 33.051875 34.0309375 34.125 34.0625 C38.34533914 35.43869755 40.52024438 38.40592382 43 42 C44.68268168 47.04804504 44.56212419 51.32083946 42.4375 56.1875 C40.13406479 60.47006006 37.34865643 61.9929278 33 64 C33.15855469 64.57105469 33.31710938 65.14210938 33.48046875 65.73046875 C34.65177577 70.84723099 34.84608305 76.01698221 32.5 80.8125 C29.91343075 84.74262289 26.42469693 86.61624647 22 88 C17.39243396 88.46856604 14.16351207 88.01867252 10 86 C9.6596875 87.36125 9.6596875 87.36125 9.3125 88.75 C7.58076137 93.0381147 5.08020427 94.95989786 1 97 C0.67 128.02 0.34 159.04 0 191 C17.16 191 34.32 191 52 191 C51.74974307 184.48490591 51.74974307 184.48490591 49.44140625 182.328125 C48.82136719 181.97234375 48.20132813 181.6165625 47.5625 181.25 C44.7412114 179.57725269 43.92379913 178.88569869 42 176 C42 175.01 42 174.02 42 173 C41.03900391 173.25136719 41.03900391 173.25136719 40.05859375 173.5078125 C34.43771203 174.83135842 30.4514342 175.45848993 25 173 C20.73708082 169.60904156 18.5874944 166.20345388 17 161 C17.01276762 157.47613722 17.40524776 154.18950447 19 151 C18.45730469 150.69707031 17.91460937 150.39414063 17.35546875 150.08203125 C9.57402853 145.52533202 9.57402853 145.52533202 8 141 C7.34914178 135.6201213 7.30022219 131.39955563 9.75 126.5 C11.74875029 124.27916634 13.42045929 122.49779783 16 121 C16.99 121 17.98 121 19 121 C18.82082031 120.29875 18.64164063 119.5975 18.45703125 118.875 C17.21210365 113.32186839 16.40792768 108.98144684 18.90234375 103.72265625 C21.44667522 99.72959512 23.8629763 97.52817496 28.40234375 96.40625 C33.41412945 95.74303625 37.29728414 95.89615343 42 98 C42.04125 97.278125 42.0825 96.55625 42.125 95.8125 C43.33449124 91.92484958 45.55174077 89.95615534 49 88 C52.9898239 86.68138699 56.80056654 86 61 86 C62.59564005 84.43050419 62.59564005 84.43050419 64.125 82.375 C72.76846242 72.12218997 85.8022196 66.3536185 99 65 C107.02613822 64.34480504 115.54086624 64.7554924 123 68 C125.06160236 70.51049965 125.56645366 72.82473101 126 76 C126.226875 76.928125 126.45375 77.85625 126.6875 78.8125 C128.24740037 94.72348381 124.88369527 110.26835592 114.68359375 122.859375 C108.71469105 129.64265448 108.71469105 129.64265448 106 131 C105.68313671 133.15792469 105.68313671 133.15792469 105.625 135.6875 C105.15114591 141.50676072 103.28571914 144.92207351 98.9375 148.875 C97 150 97 150 94 150 C94.350625 150.804375 94.70125 151.60875 95.0625 152.4375 C96.60571756 158.30172674 96.03974939 162.99476904 93.25 168.375 C90.20720578 171.92492659 87.71160092 173.8132799 82.9921875 174.328125 C81.96351563 174.30234375 80.93484375 174.2765625 79.875 174.25 C78.84117187 174.23453125 77.80734375 174.2190625 76.7421875 174.203125 C74 174 74 174 71 173 C70.95875 173.721875 70.9175 174.44375 70.875 175.1875 C69.60534887 179.2685215 67.42277215 180.48531026 64 183 C63.34 183.33 62.68 183.66 62 184 C61.59270772 186.32156597 61.25561323 188.6568787 61 191 C62.02238014 190.99000725 62.02238014 190.99000725 63.06541443 190.97981262 C70.18736025 190.91321705 77.30921697 190.86809894 84.43139648 190.83520508 C87.08619776 190.8218603 89.74050853 190.79971989 92.39526367 190.77368164 C96.22060252 190.73711327 100.04561142 190.72023072 103.87109375 190.70703125 C105.04957382 190.69154739 106.22805389 190.67606354 107.44224548 190.66011047 C114.8196555 190.65861855 122.08589378 190.95809793 128.12109375 195.6484375 C128.77271484 196.50308594 128.77271484 196.50308594 129.4375 197.375 C129.88996094 197.93960938 130.34242188 198.50421875 130.80859375 199.0859375 C133.32698304 203.1318744 134.25100117 206.65469575 134.2746582 211.40112305 C134.28419022 212.45538986 134.29372223 213.50965668 134.30354309 214.59587097 C134.30217598 216.28671562 134.30217598 216.28671562 134.30078125 218.01171875 C134.30506638 219.17629105 134.3093515 220.34086334 134.31376648 221.54072571 C134.31950167 223.99760284 134.32001603 226.45449696 134.31567383 228.91137695 C134.3125029 232.68404725 134.33602203 236.45594163 134.36132812 240.22851562 C134.36359997 242.61458234 134.36430515 245.00065117 134.36328125 247.38671875 C134.372491 248.52002121 134.38170074 249.65332367 134.39118958 250.82096863 C134.38184639 252.38818413 134.38184639 252.38818413 134.37231445 253.98706055 C134.37294388 254.90907761 134.3735733 255.83109467 134.3742218 256.78105164 C134.18898201 257.87943108 134.18898201 257.87943108 134 259 C131 261 131 261 128.4375 260.8125 C126 260 126 260 124 257 C123.7484436 254.76795959 123.7484436 254.76795959 123.74462891 252.13305664 C123.73766998 251.1451564 123.73071106 250.15725616 123.72354126 249.13941956 C123.72453827 248.07376266 123.72553528 247.00810577 123.7265625 245.91015625 C123.70627617 243.65950021 123.68542543 241.4088492 123.6640625 239.15820312 C123.64143649 235.60518145 123.62498332 232.05235805 123.61914062 228.49926758 C123.60963809 225.07336473 123.57588838 221.64835892 123.5390625 218.22265625 C123.54663071 216.62720726 123.54663071 216.62720726 123.55435181 214.99952698 C123.58716697 209.30003598 123.58716697 209.30003598 121.09130859 204.36108398 C116.86571124 201.61094328 113.24600747 201.8517726 108.32719421 201.85282898 C106.96397442 201.84731395 106.96397442 201.84731395 105.57321483 201.8416875 C102.50933487 201.83062071 99.44548878 201.82680177 96.3815918 201.82299805 C94.19239188 201.81673572 92.00319303 201.81008913 89.81399536 201.80308533 C83.85322807 201.78565549 77.89246882 201.77511842 71.93168235 201.7668798 C68.21057034 201.76173445 64.48946084 201.75565854 60.7683506 201.74936867 C49.80213573 201.73140584 38.83592549 201.71702683 27.86969851 201.70919226 C25.86243246 201.70775375 23.85516642 201.70630238 21.84790039 201.70483398 C20.85120358 201.70410837 20.85120358 201.70410837 19.83437148 201.7033681 C9.06782347 201.69506584 -1.69861351 201.66972576 -12.46511302 201.63725331 C-23.51559516 201.60419569 -34.56601795 201.58650525 -45.61654919 201.58297569 C-51.82237001 201.58062071 -58.02801535 201.57160197 -64.23378944 201.54651451 C-70.07045436 201.52330076 -75.90682742 201.51897362 -81.74352646 201.52927589 C-83.88775158 201.52977298 -86.03199073 201.52340203 -88.17617226 201.50971985 C-91.0998825 201.49210481 -94.0225335 201.49905596 -96.94624329 201.51225281 C-97.79799631 201.50128356 -98.64974933 201.49031432 -99.52731305 201.47901267 C-103.5108423 201.52252815 -105.53225862 201.71297479 -109.00335979 203.8429842 C-111.76987846 206.8317172 -112.12379735 209.23806942 -112.15821838 213.15715027 C-112.17290161 214.42545937 -112.17290161 214.42545937 -112.18788147 215.71939087 C-112.19363693 216.64367889 -112.1993924 217.56796692 -112.20532227 218.52026367 C-112.22017166 219.98395638 -112.22017166 219.98395638 -112.23532104 221.47721863 C-112.26694671 224.70744386 -112.29169777 227.93768381 -112.31640625 231.16796875 C-112.33697485 233.40570969 -112.3579713 235.64344674 -112.37937927 237.88117981 C-112.43460963 243.77481943 -112.4840147 249.66849417 -112.53222656 255.56219482 C-112.58243451 261.57469819 -112.63812427 267.58715047 -112.69335938 273.59960938 C-112.80095276 285.39969596 -112.90239515 297.19982687 -113 309 C-112.34 308.67 -111.68 308.34 -111 308 C-102.47281682 307.09694762 -94.90120021 308.29123739 -87.9609375 313.54296875 C-81.65039984 319.41042611 -78.48563538 325.88992203 -77.97265625 334.4921875 C-78.06079302 342.57558799 -80.64034582 348.92039227 -86 355 C-91.55680184 359.80699309 -97.84437963 363.35796992 -105.359375 362.83618164 C-106.14828125 362.73684326 -106.9371875 362.63750488 -107.75 362.53515625 C-108.54921875 362.43726807 -109.3484375 362.33937988 -110.171875 362.23852539 C-110.77515625 362.15981201 -111.3784375 362.08109863 -112 362 C-109.39639235 379.32534889 -106.63178347 396.35311061 -101 413 C-100.58524414 414.23194092 -100.58524414 414.23194092 -100.16210938 415.48876953 C-95.78996955 428.19807666 -90.17866527 440.26666987 -84.21655273 452.29150391 C-83.67071533 453.3954248 -83.12487793 454.4993457 -82.5625 455.63671875 C-82.06878906 456.62373779 -81.57507813 457.61075684 -81.06640625 458.62768555 C-80 461 -80 461 -80 463 C-30.83 463 18.34 463 69 463 C69.66 464.65 70.32 466.3 71 468 C70.34 469.32 69.68 470.64 69 472 C20.49 472 -28.02 472 -78 472 C-78.22444967 485.82118199 -78.22444967 485.82118199 -74 492 C-69.88856785 493.9056532 -66.23785494 494.25207155 -61.74488831 494.26069641 C-60.50987579 494.26778122 -59.27486328 494.27486603 -58.00242615 494.28216553 C-56.64688073 494.27987207 -55.29133567 494.27736242 -53.93579102 494.2746582 C-52.4980035 494.27900881 -51.0602183 494.28419313 -49.62243652 494.29014587 C-45.72779168 494.30350914 -41.83324404 494.30411757 -37.93858075 494.30158257 C-34.68315158 494.30051111 -31.42774194 494.30540067 -28.17231697 494.310188 C-20.49043271 494.32127379 -12.80859736 494.32172572 -5.12670898 494.31567383 C2.78951313 494.3096331 10.70555754 494.32194964 18.62174934 494.3432439 C25.42703044 494.36087452 32.23225505 494.36685898 39.03755814 494.36360615 C43.09824811 494.36179559 47.15881129 494.36440685 51.21948051 494.37832069 C55.03874535 494.39091838 58.85773362 494.38893677 62.67699432 494.37590981 C64.07537239 494.37354874 65.47377003 494.37626187 66.87212563 494.38453293 C76.87629486 494.54653256 76.87629486 494.54653256 86 491 C87.62581072 488.61456185 87.62581072 488.61456185 88.375 485.875 C90 481 90 481 91 480 C93.4375 479.8125 93.4375 479.8125 96 480 C98.36092149 482.36092149 98.31949234 482.96250484 98.375 486.1875 C98.25333435 491.23256885 96.95601981 493.92548621 94 498 C88.98556038 502.63835665 85.35816894 504.24676968 78.53656006 504.27415466 C77.88950206 504.27939134 77.24244406 504.28462802 76.57577825 504.29002339 C74.40950561 504.30501437 72.24346937 504.30572833 70.07714844 504.30639648 C68.52305198 504.3140187 66.96895929 504.32244631 65.41487122 504.33161926 C61.1936239 504.35356771 56.97244902 504.36236386 52.75115108 504.36744571 C50.11244537 504.37108951 47.47375861 504.37732976 44.83506012 504.3844471 C35.62522041 504.40894483 26.41543703 504.42199375 17.20556641 504.42553711 C8.62812403 504.42917048 0.05103989 504.45905064 -8.52629304 504.50094169 C-15.8954523 504.53566705 -23.264493 504.55108595 -30.63373351 504.55178314 C-35.03272845 504.55257533 -39.43135864 504.56128666 -43.83026886 504.58978081 C-47.97054704 504.61599945 -52.1101591 504.61814588 -56.25048256 504.60212517 C-57.76616941 504.60031355 -59.28189489 504.60697559 -60.7974987 504.62294388 C-70.75914706 504.72146099 -77.10339551 503.76774647 -84.375 496.6875 C-87.64804558 491.27438616 -88.12769551 485.91126446 -87.91967773 479.76318359 C-87.68566891 467.90929373 -92.21763052 459.49387083 -97.72265625 449.25390625 C-119.65633337 408.33286684 -123.33402786 363.93624659 -123.30158257 318.39006877 C-123.30049217 315.34507724 -123.30544568 312.30010557 -123.310188 309.25511843 C-123.32115183 302.07623151 -123.32179033 294.89739702 -123.31567383 287.71850586 C-123.30959032 280.34721766 -123.32208501 272.97611821 -123.3432439 265.60486215 C-123.36088409 259.22122304 -123.36685904 252.83764403 -123.36360615 246.45398146 C-123.36180338 242.66403576 -123.36433179 238.87422611 -123.37832069 235.0843029 C-123.39094109 231.53561586 -123.38891573 227.98722607 -123.37590981 224.43854332 C-123.37244202 222.53086943 -123.38367899 220.62318621 -123.39547729 218.71554565 C-123.34645712 210.65923933 -122.90206024 203.51302029 -117.625 197.125 C-111.28003283 191.98859801 -106.93110283 190.87253258 -98.84472656 190.88647461 C-98.13213181 190.88632858 -97.41953705 190.88618256 -96.68534851 190.8860321 C-94.33707605 190.88672709 -91.98888355 190.89450006 -89.640625 190.90234375 C-88.00966434 190.9042094 -86.37870312 190.90563261 -84.7477417 190.90663147 C-80.46025031 190.91044506 -76.17279292 190.92026546 -71.88531494 190.93133545 C-67.50818339 190.94157447 -63.13104633 190.94613443 -58.75390625 190.95117188 C-50.16925525 190.96188877 -41.58463186 190.97895128 -33 191 C-33.14114675 187.22897636 -33.2888013 183.4582328 -33.4375 179.6875 C-33.47681641 178.63498047 -33.51613281 177.58246094 -33.55664062 176.49804688 C-33.83098364 169.63947152 -34.30680652 162.82901897 -35 156 C-36.51013672 156.48146484 -36.51013672 156.48146484 -38.05078125 156.97265625 C-48.90000824 160.04946541 -59.27314326 158.3977205 -69 153 C-82.67588606 145.05265619 -91.44398475 133.3893021 -95.875 118.25 C-97.4461023 111.08539494 -98.20713538 103.25075395 -97 96 C-94.24092582 92.48888651 -91.78374719 90.48685658 -87.5 89.25 C-86.7678125 89.02828125 -86.035625 88.8065625 -85.28125 88.578125 C-72.4148367 85.31745862 -59.28805977 85.99052109 -47 91 C-45.9171875 91.41572266 -45.9171875 91.41572266 -44.8125 91.83984375 C-33.97359423 96.58186502 -24.28461185 105.86084317 -19.84765625 116.85546875 C-17.54535317 125.39627049 -17.8998104 133.79609228 -21.9375 141.6875 C-22.48277344 142.61949219 -23.02804688 143.55148438 -23.58984375 144.51171875 C-25.78003247 148.37640078 -26.30601316 150.7289387 -25.125 155 C-22.30524559 166.77437989 -22.88679549 178.97516493 -23 191 C-18.71 191 -14.42 191 -10 191 C-9.99170394 178.81277722 -10.01545158 166.6260806 -10.0802784 154.43901443 C-10.1093689 148.78019448 -10.12735833 143.12178998 -10.12011719 137.46289062 C-10.11353698 132.00313563 -10.13593485 126.54420253 -10.17855453 121.08461761 C-10.18970904 119.00022049 -10.19036489 116.91574024 -10.18042374 114.83133698 C-10.16829299 111.91431185 -10.19325509 108.99981158 -10.22705078 106.08300781 C-10.20871941 104.78612534 -10.20871941 104.78612534 -10.1900177 103.46304321 C-10.23831642 101.15442552 -10.33198634 99.21100822 -11 97 C-13.8164583 94.52234132 -13.8164583 94.52234132 -17 93 C-20 88.8 -20 88.8 -20 86 C-20.680625 86.33 -21.36125 86.66 -22.0625 87 C-27.13958202 88.72836835 -31.29466425 88.55651623 -36.1875 86.4375 C-40.31889866 84.13514774 -42.64775483 81.56490409 -44 77 C-44.47866257 72.43536269 -44.45599412 68.36798236 -43 64 C-44.0725 63.484375 -45.145 62.96875 -46.25 62.4375 C-50.32050365 60.08436909 -52.48160716 57.45575993 -54 53 C-54.90164571 47.70283146 -53.98107028 43.47160542 -51 39 C-49.09268913 37.02494312 -47.26927767 35.60740502 -45 34 C-44.01 34 -43.02 34 -42 34 C-42.32226562 33.44054688 -42.64453125 32.88109375 -42.9765625 32.3046875 C-44.75318245 28.30390211 -44.54294565 24.28927066 -44 20 C-41.66907123 15.15884024 -38.85901474 12.29698879 -34 10 C-24.83981154 9.08009423 -24.83981154 9.08009423 -21 11 C-20.443125 10.0925 -19.88625 9.185 -19.3125 8.25 C-14.00291279 0.78787744 -8.83927193 -1.00477131 0 0 Z M-9.64453125 11.640625 C-11.34403779 14.59884388 -11.50310544 16.85714012 -11.6875 20.25 C-11.75324219 21.32765625 -11.81898437 22.4053125 -11.88671875 23.515625 C-11.92410156 24.33546875 -11.96148437 25.1553125 -12 26 C-14.1875 26.75 -14.1875 26.75 -17 27 C-19.77051447 25.12990274 -22.04853139 22.95510847 -24.5 20.6875 C-26.86949402 18.72577547 -26.86949402 18.72577547 -29.6875 19.125 C-32.14951065 19.87543882 -32.14951065 19.87543882 -34 22 C-34.7555432 24.7412565 -34.7555432 24.7412565 -34 28 C-32.30263361 30.12488261 -30.50025584 31.99975634 -28.53125 33.875 C-26.50986168 36.68019195 -26.73137943 38.62305566 -27 42 C-28.46373047 42.05607422 -28.46373047 42.05607422 -29.95703125 42.11328125 C-31.86548828 42.21189453 -31.86548828 42.21189453 -33.8125 42.3125 C-35.70935547 42.39951172 -35.70935547 42.39951172 -37.64453125 42.48828125 C-40.91975879 42.74241504 -40.91975879 42.74241504 -42.953125 44.3203125 C-44.31988924 46.1741525 -44.31988924 46.1741525 -43.9375 49.5625 C-43.39731728 52.99499383 -43.39731728 52.99499383 -41.296875 54.1796875 C-38.5866356 55.14763014 -36.18218361 55.3824264 -33.3125 55.5625 C-28.09915014 55.90084986 -28.09915014 55.90084986 -27 57 C-26.5 59.125 -26.5 59.125 -27 62 C-28.5625 63.67578125 -28.5625 63.67578125 -30.5 65.4375 C-33.54157853 68.23770813 -33.54157853 68.23770813 -34.625 72.25 C-34.16950792 74.96362022 -34.16950792 74.96362022 -32.8125 76.875 C-30.14521272 78.53055762 -29.10766312 78.70628707 -26 78 C-24.27236265 76.41197607 -24.27236265 76.41197607 -22.5625 74.5 C-19.3910844 71.05793843 -19.3910844 71.05793843 -15.625 70.5 C-13 71 -13 71 -12 72 C-11.79538971 75.00549775 -11.68055811 78.00902744 -11.57421875 81.01953125 C-10.88493647 84.59723453 -9.89217668 85.83742869 -7 88 C-3.86637282 88.08892339 -3.86637282 88.08892339 -1 87 C1.27126455 83.59310318 1.33472756 81.89736441 1.5625 77.875 C1.90191083 72.09808917 1.90191083 72.09808917 3 71 C5.625 70.5 5.625 70.5 9 71 C10.92755009 72.69454953 12.59828162 74.53902014 14.33203125 76.4296875 C15.96990842 78.23756924 15.96990842 78.23756924 18.75 78.625 C21.50752992 77.85901947 22.54741354 77.50167668 24 75 C24.06534975 71.53646349 23.93736582 69.06942564 21.5859375 66.38671875 C20.49886421 65.38980557 19.40521043 64.40001433 18.3046875 63.41796875 C17 62 17 62 16.5625 59.1875 C17 57 17 57 18 56 C20.74293196 55.71437237 23.48608838 55.55160727 26.23828125 55.37890625 C28.98866892 55.00155462 30.72318676 54.57705872 33 53 C34.08333333 49.58333333 34.08333333 49.58333333 34 46 C32.94709421 44.19032742 32.94709421 44.19032742 31 43 C28.10402009 42.45709949 28.10402009 42.45709949 24.9375 42.375 C19.16194332 42.08097166 19.16194332 42.08097166 17 41 C16.5625 38.4375 16.5625 38.4375 17 35 C18.55859375 33.25390625 18.55859375 33.25390625 20.5 31.5 C23.54185595 28.73212902 23.54185595 28.73212902 24.6875 24.75 C24.20642912 21.94081833 24.20642912 21.94081833 22.3125 20.0625 C19.33551738 18.69469718 18.10591102 19.05472273 15 20 C12.84976003 21.7348527 10.99523567 23.62986038 9.0625 25.6015625 C7 27 7 27 4.25 26.7109375 C3.5075 26.47632812 2.765 26.24171875 2 26 C1.94392578 24.77023438 1.94392578 24.77023438 1.88671875 23.515625 C1.82097656 22.43796875 1.75523438 21.3603125 1.6875 20.25 C1.62949219 19.18265625 1.57148437 18.1153125 1.51171875 17.015625 C0.96220176 13.77725005 0.30994579 12.30445899 -2 10 C-5.37692599 9.437179 -7.14682081 9.14884736 -9.64453125 11.640625 Z M72.20703125 87.78515625 C70.68319904 89.54306826 70.68319904 89.54306826 69 92 C69.99 93.98 70.98 95.96 72 98 C72.71285156 97.89300781 73.42570313 97.78601563 74.16015625 97.67578125 C80.46104219 96.88711047 84.51839911 96.64391782 90 100 C93.4797874 103.02192063 94.27837996 105.56218779 94.8125 110 C95.04254122 113.50290046 95.01924943 116.60250189 94 120 C95.98 120.99 97.96 121.98 100 123 C109.65757456 116.16903263 114.79021325 105.42166885 117 94 C117.47498909 87.852284 117.36198379 82.02373319 116 76 C100.46039679 72.48645001 83.67571195 76.36644801 72.20703125 87.78515625 Z M52.85546875 97.12109375 C50.303369 99.70543055 50.43863671 101.48282725 50.3125 105.0625 C50.06622517 110.86754967 50.06622517 110.86754967 49 113 C46.5 113.4375 46.5 113.4375 43 113 C41.03125 111.40625 41.03125 111.40625 39 109.4375 C35.90821487 106.39198891 35.90821487 106.39198891 31.625 105.875 C28.711692 106.8406719 28.711692 106.8406719 27 110 C27.31675071 115.20138012 30.04946916 117.45560613 33.6015625 120.9375 C35 123 35 123 34.7109375 125.75 C34.47632813 126.4925 34.24171875 127.235 34 128 C30.18857488 129.27047504 26.59115342 129.26996848 22.59375 129.42578125 C19.8873875 129.78558438 19.8873875 129.78558438 18.11328125 131.84375 C16.66540314 134.08754486 16.66540314 134.08754486 17.6875 137.1875 C18.69493122 140.10638007 18.69493122 140.10638007 21 141 C23.0374763 141.22858114 25.08040303 141.41024278 27.125 141.5625 C28.22070312 141.64628906 29.31640625 141.73007813 30.4453125 141.81640625 C31.70988281 141.90728516 31.70988281 141.90728516 33 142 C33.66 143.65 34.32 145.3 35 147 C34.41089844 147.66386719 33.82179687 148.32773438 33.21484375 149.01171875 C32.46332031 149.89472656 31.71179688 150.77773437 30.9375 151.6875 C30.18339844 152.55761719 29.42929688 153.42773438 28.65234375 154.32421875 C26.7343645 156.86158076 26.7343645 156.86158076 27.14453125 159.7109375 C28.23869975 162.63871258 29.17174242 163.66443392 32 165 C35.71680602 164.29682048 37.81190348 162.30817313 40.5 159.8125 C43.63532973 156.99207239 43.63532973 156.99207239 46.875 157.0625 C49 158 49 158 50 159 C50.28549649 162.03623255 50.44868814 165.07257785 50.62109375 168.1171875 C50.80950152 171.19258834 50.80950152 171.19258834 53 174 C54.8064655 175.0146239 54.8064655 175.0146239 57 175 C59.69404323 173.9725455 59.69404323 173.9725455 62 172 C62.70915617 169.14732566 62.70915617 169.14732566 62.625 166 C62.6925 160.492 62.6925 160.492 64.2109375 158.0625 C66 157 66 157 68.4375 157.0859375 C72.15499015 158.41199344 74.21699962 160.82621332 76.9375 163.6015625 C78.94737751 165.26176313 78.94737751 165.26176313 81.625 164.8984375 C84.32729944 164.13951231 84.32729944 164.13951231 86 161 C86 157.88306527 85.76504989 155.82015044 83.58984375 153.48828125 C83.04457031 152.99714844 82.49929687 152.50601563 81.9375 152 C79.32475108 149.64291386 79.03873319 149.34859871 78.625 145.625 C78.810625 144.325625 78.810625 144.325625 79 143 C81.53564658 141.73217671 83.54627001 141.82021521 86.375 141.6875 C89.95180224 141.3823922 91.68373521 141.20125941 94.75 139.25 C96.23311426 137.04562187 96.23311426 137.04562187 95.875 134.375 C95.13532087 131.85594875 95.13532087 131.85594875 93 130 C90.43824536 129.57358892 90.43824536 129.57358892 87.5625 129.4375 C84.42036099 129.23248694 82.00105681 129.00035227 79 128 C78.5625 125.5 78.5625 125.5 79 122 C80.59375 120.03125 80.59375 120.03125 82.5625 118 C85.60801109 114.90821487 85.60801109 114.90821487 86.125 110.625 C85.1593281 107.711692 85.1593281 107.711692 82 106 C78.09876959 106 76.29024684 107.51539864 73.5625 110.0625 C70.91251726 112.49746221 70.30840335 112.966356 66.5625 113.375 C65.716875 113.25125 64.87125 113.1275 64 113 C62.72952496 109.18857488 62.73003152 105.59115342 62.57421875 101.59375 C62.21983438 98.88643113 62.21983438 98.88643113 60.14453125 97.15625 C57.26983674 95.60632364 55.74840617 95.6087567 52.85546875 97.12109375 Z M-75.25 96.5 C-76.4875 96.665 -77.725 96.83 -79 97 C-77.53880603 99.92238795 -75.58005273 100.09679513 -72.5625 101.25 C-54.53991325 108.57833315 -41.04262212 120.70107072 -32 138 C-28.8734621 134.8734621 -28.19797512 131.75625684 -27.890625 127.48828125 C-28.26519915 118.96671923 -32.99263391 112.97568478 -39.02734375 107.33203125 C-49.49695071 99.1186865 -61.91983129 94.72264417 -75.25 96.5 Z M-87 107 C-86.48312256 119.37921475 -81.44720761 130.1234866 -72.375 138.6875 C-64.97213657 144.74824124 -55.82331244 149.81156454 -46 149 C-43.39620011 148.2520503 -41.40032655 147.3045253 -39 146 C-42.81053848 137.30300628 -47.25840782 130.6737238 -54 124 C-54.66515625 123.30132812 -55.3303125 122.60265625 -56.015625 121.8828125 C-60.54004539 117.44473601 -65.46230937 114.43071708 -71.0625 111.5625 C-71.7232251 111.22009277 -72.3839502 110.87768555 -73.06469727 110.52490234 C-77.74105332 108.25016887 -81.81673845 107.41026931 -87 107 Z M-113 319 C-113 329.56 -113 340.12 -113 351 C-108.31039208 353.34480396 -105.03467996 353.96348204 -99.9453125 352.34765625 C-94.74635411 350.06207643 -91.69219352 346.97998029 -89 342 C-87.31525367 336.94576102 -87.41980686 332.71544468 -89.625 327.875 C-92.27085432 323.02583638 -95.67488209 319.7750393 -101 318 C-102.68545724 317.90712229 -104.374493 317.87002796 -106.0625 317.875 C-106.94035156 317.87242187 -107.81820312 317.86984375 -108.72265625 317.8671875 C-111.03198266 317.85166576 -111.03198266 317.85166576 -113 319 Z " fill="#000000" transform="translate(126,4)"/>
<path d="M0 0 C7.34123165 5.38864154 10.91306701 12.19105195 12.33984375 21.12890625 C12.73532145 28.95936467 10.28149793 35.92977458 5.3125 41.875 C-0.62084991 48.04830156 -6.7404053 50.58748277 -15.1875 51.25 C-24.27122157 50.65434613 -30.29324916 47.91014744 -36.859375 41.51953125 C-42.08097761 35.37366687 -43.71390991 28.71497597 -43.38671875 20.73828125 C-42.35737943 13.44972711 -39.3362873 7.09911897 -34 2 C-23.27418238 -5.0736575 -11.48525252 -6.7235392 0 0 Z M-29.8125 13.0625 C-33.40403457 17.88541786 -33.53844622 22.18677503 -33 28 C-30.91224548 34.03129084 -27.21684446 36.74820888 -22.125 40.3125 C-16.99678305 41.97162901 -12.55222053 41.52546357 -7.75 39.3125 C-3.44634552 36.91595515 -1.08359301 34.00464706 1.25 29.6875 C2.68964972 24.52875518 2.86331228 20.07139724 0.375 15.3125 C-2.44320569 10.92973883 -6.00055931 7.66648023 -11 6 C-19.35150338 5.12316402 -24.18463746 6.65121342 -29.8125 13.0625 Z " fill="#000000" transform="translate(92,402)"/>
<path d="M0 0 C2.93891801 1.66701058 4.97016945 3.60936334 7.12109375 6.203125 C7.82234375 6.945625 8.52359375 7.688125 9.24609375 8.453125 C13.88759329 15.26065765 15.05609604 22.5564445 13.72265625 30.609375 C11.8875011 38.33132653 7.6252988 44.20584149 0.99609375 48.6171875 C-6.32956088 52.47425566 -13.60880821 53.1532537 -21.69140625 51.265625 C-28.81984122 48.93664014 -34.43361695 44.11684833 -38.39453125 37.77734375 C-41.95157311 29.92429711 -42.15483061 21.95839663 -39.19140625 13.890625 C-35.45845424 5.77049228 -31.21330508 2.11134163 -23.1328125 -1.65625 C-15.13053349 -4.46137061 -7.62550981 -3.46503166 0 0 Z M-27.4140625 12.8984375 C-30.66568833 17.37281956 -31.60495495 21.30811926 -31.30078125 26.80859375 C-30.42158813 31.79882879 -28.12604847 35.0199388 -24.44140625 38.515625 C-19.53549942 41.74634413 -15.79827352 42.80509455 -9.87890625 42.203125 C-3.54334935 40.00822233 0.16429874 36.82319577 3.37109375 30.890625 C4.74734178 25.95906957 4.68354365 21.85738942 3.05859375 17.078125 C0.25900806 12.92390107 -3.36666942 9.45924341 -7.87890625 7.203125 C-15.83377757 6.39840336 -21.89418359 6.80269336 -27.4140625 12.8984375 Z " fill="#000000" transform="translate(89.87890625,229.796875)"/>
<path d="M0 0 C5.09117764 3.85396673 8.21686886 8.65307366 10.06640625 14.75 C11.41468011 25.169555 9.57456347 32.38458307 3.94140625 41 C-2.06980696 46.74985612 -8.90990223 49.49290293 -17.203125 49.87890625 C-25.31356115 49.49601012 -32.17762139 46.48039027 -37.93359375 40.75 C-44.15353495 32.58052499 -44.8038494 24.77817854 -43.93359375 14.75 C-41.62973425 6.57883475 -36.29773505 0.88561496 -29.0625 -3.34375 C-19.08687875 -7.82344686 -8.8344932 -5.71118752 0 0 Z M-31.24609375 11.125 C-34.38304593 16.00470339 -35.43703646 19.90962027 -34.46875 25.73046875 C-33.16494599 30.65066346 -30.94485364 33.96575764 -26.87109375 37.125 C-22.21599568 39.70016063 -18.18698871 40.28034273 -12.93359375 39.75 C-7.51205697 37.90667749 -3.93396686 34.54689281 -0.93359375 29.75 C0.84784326 25.32766075 1.22270158 21.77460271 0.50390625 17.0625 C-1.62422611 12.15854282 -4.23549922 8.93471711 -8.62109375 5.875 C-17.54459292 2.84437764 -24.65796709 4.35881586 -31.24609375 11.125 Z " fill="#000000" transform="translate(147.93359375,317.25)"/>
<path d="M0 0 C6.90889347 4.04715077 10.90341747 9.73232155 13.25390625 17.3203125 C15.18595933 25.5315381 14.04609996 32.78627877 9.69140625 40.0078125 C5.25484888 46.18229137 -1.03951378 50.67930004 -8.58203125 52.13671875 C-17.84742792 52.92277226 -25.31134702 51.03312372 -32.43359375 45.0703125 C-39.61852933 36.52606478 -41.67029213 29.51482814 -40.74609375 18.3203125 C-38.94130965 11.43119378 -34.79336432 4.84697667 -28.6875 1.03515625 C-19.3580348 -3.7408452 -9.67991098 -4.44374725 0 0 Z M-28.12890625 13.82421875 C-31.56638011 18.8121616 -31.61248926 24.47656317 -30.74609375 30.3203125 C-28.29233526 35.41658013 -24.12189392 39.90465437 -18.80859375 42.1328125 C-17.78765625 42.225625 -17.78765625 42.225625 -16.74609375 42.3203125 C-15.67359375 42.4234375 -14.60109375 42.5265625 -13.49609375 42.6328125 C-8.12827846 42.18549456 -4.13106196 40.54039402 -0.1640625 36.84765625 C3.62631592 32.22710849 4.71714603 27.23125209 4.25390625 21.3203125 C2.57580773 15.37445726 -0.78058278 11.80673509 -5.74609375 8.3203125 C-14.39266933 5.43812064 -21.94712482 7.10109488 -28.12890625 13.82421875 Z " fill="#000000" transform="translate(200.74609375,229.6796875)"/>
<path d="M0 0 C0.95003906 -0.01417969 1.90007812 -0.02835937 2.87890625 -0.04296875 C5.4375 0.1875 5.4375 0.1875 8.4375 2.1875 C8.75 5.1875 8.75 5.1875 8.4375 8.1875 C5.8005376 10.8244624 4.48153527 10.41175738 0.8125 10.5 C-5.11972587 10.91304814 -9.15387439 12.13244837 -13.5625 16.1875 C-17.40017387 21.22444695 -17.37965825 27.09513128 -16.5625 33.1875 C-14.37723658 37.63896251 -11.6230479 40.37635145 -7.5625 43.1875 C-4.40004459 44.2416518 -1.69301782 44.50025672 1.625 44.75 C2.71167969 44.83378906 3.79835937 44.91757812 4.91796875 45.00390625 C6.16513672 45.09478516 6.16513672 45.09478516 7.4375 45.1875 C9.515625 49.90625 9.515625 49.90625 8.8125 52.4375 C7.4375 54.1875 7.4375 54.1875 5.8125 54.9375 C-3.56522743 55.9246292 -10.75400667 54.09074125 -18.875 49.1875 C-24.81832212 43.50408993 -27.92178173 35.59491734 -28.1875 27.5 C-27.74661016 18.92828129 -24.72918897 12.21715144 -18.5625 6.1875 C-12.4269665 2.13013107 -7.37798533 0.05019038 0 0 Z " fill="#000000" transform="translate(187.5625,397.8125)"/>
<path d="M0 0 C4.70301376 2.63613993 8.08154516 5.88719609 9.66015625 11.11328125 C10.53196907 16.66797434 10.40917289 21.55595779 7.66015625 26.55078125 C4.73481568 30.55258141 1.41635813 32.75801942 -3.33984375 34.11328125 C-9.01846169 34.95063678 -13.52565395 34.42972312 -18.33984375 31.11328125 C-22.71126075 26.77264887 -25.43918831 23.26435081 -25.65234375 16.92578125 C-25.5474673 11.06223412 -23.92943421 6.62366071 -19.6796875 2.50390625 C-13.77189562 -1.81472601 -6.85629207 -2.59829432 0 0 Z M-13.77734375 10.73828125 C-15.83776146 13.87011617 -16.01659825 15.42872898 -15.33984375 19.11328125 C-12.85381926 22.47672614 -11.42558852 23.91385874 -7.27734375 24.67578125 C-4.29092119 24.2981418 -4.29092119 24.2981418 -1.96484375 22.55078125 C0.28356144 19.17817346 0.2279957 17.08815742 -0.33984375 13.11328125 C-1.75651042 10.52994792 -1.75651042 10.52994792 -4.33984375 9.11328125 C-8.31471992 8.5454418 -10.40473596 8.48987606 -13.77734375 10.73828125 Z " fill="#000000" transform="translate(190.33984375,122.88671875)"/>
<path d="M0 0 C4.74882451 2.66420273 7.73583631 6.16069747 9.44140625 11.3515625 C10.45827075 16.72488858 9.42939804 21.66188136 6.8125 26.4375 C3.59138544 29.99337242 0.10801941 33.22787922 -4.796875 33.67578125 C-15.33631343 33.92484758 -15.33631343 33.92484758 -20.1875 29.4375 C-23.90095928 25.51773743 -26.13342697 21.77801135 -26.22265625 16.265625 C-25.86059332 11.00246624 -24.70614095 7.52673137 -21.1875 3.4375 C-14.52297631 -1.59489544 -7.82922086 -3.46976834 0 0 Z M-15.1875 11.4375 C-16.3591367 14.80510187 -16.3591367 14.80510187 -16.1875 18.4375 C-14.38871842 21.61995972 -13.13640419 23.04820597 -9.75 24.4375 C-6.39271695 24.4375 -4.84070395 23.44533002 -2.1875 21.4375 C0.1098659 18.63015527 0.1098659 18.63015527 -0.3125 15.5 C-1.32721352 11.94850267 -2.17104788 10.55716906 -5.1875 8.4375 C-9.48366198 7.81097638 -12.27300322 8.09122592 -15.1875 11.4375 Z " fill="#000000" transform="translate(129.1875,36.5625)"/>
</svg>
