<?xml version="1.0" encoding="UTF-8"?>
<svg version="1.1" xmlns="http://www.w3.org/2000/svg" width="512" height="512">
<path d="M0 0 C1.19681729 -0.00694553 2.39363458 -0.01389106 3.62671906 -0.02104706 C6.93643395 -0.03614791 10.2452474 -0.03338288 13.55492127 -0.02289402 C17.12898449 -0.01589138 20.70295655 -0.031908 24.2769928 -0.04489136 C31.27388109 -0.06651897 38.27060666 -0.06640766 45.26751738 -0.05826581 C50.95522717 -0.05196255 56.64288954 -0.05310584 62.33059883 -0.05953789 C63.14052146 -0.06043954 63.95044409 -0.0613412 64.78490983 -0.06227018 C66.43033426 -0.0641214 68.07575867 -0.06598396 69.72118307 -0.06785773 C85.14659295 -0.08443193 100.57191133 -0.0757203 115.99731571 -0.05887216 C130.1047403 -0.04417607 144.21195189 -0.05880292 158.31934904 -0.08764232 C172.81091156 -0.11704605 187.3023758 -0.12800572 201.79396683 -0.11846012 C203.43359854 -0.11743758 205.07323027 -0.11644297 206.71286201 -0.11547661 C207.51955571 -0.11500022 208.32624941 -0.11452383 209.15738837 -0.114033 C214.83641329 -0.11187013 220.51534503 -0.1216662 226.19434929 -0.13624763 C233.11798308 -0.15377704 240.04134535 -0.15364507 246.9649685 -0.13089598 C250.49621418 -0.11975899 254.02698162 -0.11657819 257.55820656 -0.13519669 C261.38915165 -0.15513525 265.21935063 -0.13620455 269.05029297 -0.11352539 C270.16226325 -0.12536112 271.27423353 -0.13719685 272.41989988 -0.14939123 C279.26462842 -0.06702187 283.79356721 1.06549439 289.08863831 5.5146637 C294.47621237 11.04401602 295.38885873 16.90397256 295.34933472 24.39549255 C295.35316026 25.17084952 295.35698581 25.9462065 295.36092728 26.74505913 C295.37121547 29.33353218 295.36727311 31.92178168 295.36329651 34.51026917 C295.36764531 36.37007349 295.37282903 38.22987603 295.37878418 40.0896759 C295.3921677 45.1351716 295.39275353 50.18059236 295.39022088 55.22610235 C295.38915067 59.44077218 295.39403586 63.65542688 295.3988263 67.87009346 C295.40991939 77.8149422 295.41036009 87.75975317 295.40431213 97.7046051 C295.3982725 107.9576967 295.41058357 118.21065106 295.4318822 128.46371925 C295.44950635 137.27239381 295.45549825 146.08102473 295.45224446 154.88971627 C295.45043266 160.14817863 295.45305747 165.4065431 295.466959 170.66498947 C295.4795458 175.61116137 295.4775851 180.5571196 295.46454811 185.50328827 C295.4621846 187.31567329 295.46490894 189.1280734 295.47317123 190.94044113 C295.48365967 193.4204964 295.47552156 195.89983746 295.46286011 198.37986755 C295.47023439 199.09175228 295.47760868 199.80363701 295.48520643 200.537094 C295.42101817 206.54102598 294.0877348 211.97035907 290.32691956 216.7568512 C289.69141174 217.29567932 289.05590393 217.83450745 288.40113831 218.3896637 C287.77852112 218.94396057 287.15590393 219.49825745 286.51441956 220.0693512 C280.137361 223.86888689 273.27992886 223.7821279 266.08863831 223.6396637 C263.11863831 223.5984137 260.14863831 223.5571637 257.08863831 223.5146637 C257.08863831 232.0946637 257.08863831 240.6746637 257.08863831 249.5146637 C259.8744635 249.4832428 259.8744635 249.4832428 262.71656799 249.45118713 C268.85524956 249.38666691 274.99385082 249.3407161 281.13277817 249.30741501 C284.85458578 249.28654666 288.57602633 249.25824388 292.29762268 249.21290588 C295.88973341 249.16941957 299.48149125 249.14552092 303.07384491 249.13515472 C304.44381007 249.1277682 305.81375608 249.11334368 307.18357086 249.09174347 C309.10323219 249.06267889 311.0232492 249.06102954 312.94313049 249.06056213 C314.58194183 249.04723846 314.58194183 249.04723846 316.25386047 249.03364563 C319.85146833 249.64410418 320.82908543 250.69259874 323.08863831 253.5146637 C323.59200287 256.08840942 323.59200287 256.08840942 323.59657288 259.05592346 C323.60785217 260.18313812 323.61913147 261.31035278 323.63075256 262.47172546 C323.61860718 264.32022598 323.61860718 264.32022598 323.60621643 266.20606995 C323.61673035 268.15777603 323.61673035 268.15777603 323.62745667 270.14891052 C323.64568818 273.71509585 323.63862359 277.28081817 323.62594032 280.84701157 C323.61581159 284.57942195 323.62520564 288.31179276 323.63148499 292.04420471 C323.63876179 298.31209937 323.62917294 304.57980548 323.61012268 310.84767151 C323.58835369 318.09371201 323.59540505 325.33930232 323.6174283 332.58533192 C323.63558148 338.80711883 323.63814109 345.02877023 323.62767363 351.25057507 C323.62143817 354.96637539 323.62060428 358.68196413 323.63381958 362.39775085 C323.64752214 366.53985752 323.62852992 370.68118835 323.60621643 374.82325745 C323.61431335 376.05559113 323.62241028 377.2879248 323.63075256 378.55760193 C323.61947327 379.68481659 323.60819397 380.81203125 323.59657288 381.97340393 C323.59431072 383.44232338 323.59431072 383.44232338 323.59200287 384.94091797 C322.94673331 388.240236 321.66990319 389.43181031 319.08863831 391.5146637 C317.08863831 392.08106995 317.08863831 392.08106995 315.08863831 392.0771637 C314.42863831 392.09907776 313.76863831 392.12099182 313.08863831 392.14356995 C309.9163426 391.14603165 308.88193226 389.2556547 307.08863831 386.5146637 C306.60762024 383.17999268 306.60762024 383.17999268 306.63453674 379.33766174 C306.63395264 378.63467453 306.63336853 377.93168732 306.63276672 377.20739746 C306.63554123 374.89654709 306.66660041 372.5870059 306.69801331 370.27638245 C306.70547802 368.669278 306.71116986 367.06216443 306.71516418 365.45504761 C306.73040257 361.2347327 306.76966834 357.01497253 306.8139801 352.7948761 C306.86218487 347.72633579 306.88047543 342.6576095 306.90379333 337.58890533 C306.94252109 329.89710619 307.01918585 322.2065231 307.08863831 314.5146637 C290.58863831 314.5146637 274.08863831 314.5146637 257.08863831 314.5146637 C257.20652258 328.60371297 257.20652258 328.60371297 257.35890198 342.69239807 C257.48839335 360.74785227 256.56053952 378.90126963 244.34254456 393.2568512 C235.80096104 401.81323815 223.62374647 405.62796239 211.73780823 405.96876526 C209.09815655 405.96778206 206.45843953 405.94635019 203.81910706 405.9052887 C201.95155762 405.89924622 201.95155762 405.89924622 200.04627991 405.89308167 C195.45607984 405.87236916 190.86609211 405.81652628 186.27613831 405.7646637 C175.98426331 405.6821637 165.69238831 405.5996637 155.08863831 405.5146637 C155.08863831 435.5446637 155.08863831 465.5746637 155.08863831 496.5146637 C162.18879456 496.47985901 169.28895081 496.44505432 176.60426331 496.40919495 C181.09776109 496.39386945 185.59122674 496.37942779 190.08473206 496.36817932 C197.21972837 496.35023399 204.35460938 496.32898652 211.48951721 496.28834534 C217.24072789 496.25579021 222.99181496 496.23781871 228.74311066 496.23003197 C230.93920081 496.22448156 233.13528408 496.21364322 235.33132172 496.19747353 C238.40324619 496.17575066 241.47465741 496.17269465 244.54664612 496.17408752 C245.91365913 496.15790878 245.91365913 496.15790878 247.30828857 496.1414032 C253.43860956 496.17155395 253.43860956 496.17155395 256.63032532 497.85626221 C258.79904314 500.32253995 258.9589658 502.2728511 259.08863831 505.5146637 C258.03966249 509.36090835 257.48326369 510.25158011 254.08863831 512.5146637 C251.24940125 512.71076151 248.50823261 512.78849145 245.66848755 512.77536011 C244.79894988 512.77918565 243.92941222 512.7830112 243.03352493 512.78695267 C240.10855725 512.7973034 237.18378511 512.7932866 234.25880432 512.7893219 C232.16635455 512.79366722 230.07390637 512.79884976 227.98146057 512.80480957 C222.28938456 512.81823002 216.59737483 512.81877487 210.90528607 512.81624627 C206.15853015 512.81517864 201.41178775 512.82005458 196.66503471 512.82485169 C185.46955575 512.83595738 174.27411035 512.83637829 163.07862854 512.83033752 C151.51733629 512.82429544 139.95616567 512.83661234 128.39489418 512.85790759 C118.47892178 512.87550275 108.56298817 512.88152826 98.64700073 512.87826985 C92.72016498 512.87645355 86.79341598 512.87912769 80.86659431 512.89298439 C75.29423061 512.90552424 69.72205701 512.90365512 64.14969635 512.8905735 C62.10181299 512.88819979 60.05391641 512.89097068 58.0060482 512.89919662 C55.21573323 512.90959865 52.42606391 512.90161628 49.63577271 512.8888855 C48.82069844 512.89625978 48.00562418 512.90363407 47.1658507 512.91123182 C43.91828412 512.87994664 41.50969374 512.73788809 38.61303616 511.20221233 C36.15863869 508.48512959 36.15036342 506.0947203 36.08863831 502.5146637 C37.4342623 499.56710638 38.17418375 497.97189098 41.08863831 496.5146637 C44.17056276 496.42109684 47.2297678 496.38895076 50.31178284 496.40113831 C51.2679248 496.40099228 52.22406677 496.40084625 53.20918274 496.4006958 C56.37996158 496.4013943 59.55068219 496.4091838 62.72145081 496.41700745 C64.91577624 496.41887185 67.1101021 496.42029565 69.3044281 496.42129517 C75.08797855 496.4251186 80.871504 496.43494741 86.65504456 496.44599915 C93.59001143 496.45801259 100.52498664 496.46261634 107.45996094 496.46845245 C118.0028708 496.47815924 128.54572577 496.49731704 139.08863831 496.5146637 C139.08863831 476.0546637 139.08863831 455.5946637 139.08863831 434.5146637 C128.73714227 434.67272959 128.73714227 434.67272959 118.38648987 434.87501526 C117.0971051 434.88500549 115.80772034 434.89499573 114.47926331 434.9052887 C113.15958557 434.92623596 111.83990784 434.94718323 110.48023987 434.96876526 C107.08863831 434.5146637 107.08863831 434.5146637 104.65992737 432.61524963 C102.95714161 430.33887165 102.54481017 429.31966438 102.58863831 426.5146637 C102.57832581 425.8546637 102.56801331 425.1946637 102.55738831 424.5146637 C103.35147246 421.52517041 104.65920834 420.41464008 107.08863831 418.5146637 C110.48023987 418.06056213 110.48023987 418.06056213 114.47926331 418.1240387 C115.18387695 418.12969849 115.8884906 418.13535828 116.61445618 418.14118958 C118.85655258 418.16351291 121.09702818 418.21369616 123.33863831 418.2646637 C124.86205266 418.28473418 126.38549216 418.302984 127.90895081 418.3193512 C131.63603661 418.36336252 135.36217917 418.43235998 139.08863831 418.5146637 C139.08863831 414.2246637 139.08863831 409.9346637 139.08863831 405.5146637 C137.84471313 405.52576675 136.60078796 405.53686981 135.31916809 405.54830933 C123.60644332 405.64959018 111.89380719 405.72458357 100.18074417 405.77372456 C94.15864589 405.79983771 88.1369006 405.83526804 82.11500549 405.89186096 C76.30541761 405.94611806 70.49616962 405.97607128 64.68634796 405.98904991 C62.46789446 405.99830102 60.24945993 406.01636605 58.03115082 406.04331398 C54.92783148 406.0795196 51.82592332 406.08461247 48.72242737 406.08229065 C47.80173462 406.10026703 46.88104187 406.11824341 45.93244934 406.13676453 C39.70660451 406.08623728 39.70660451 406.08623728 36.51972961 403.13861084 C32.21732133 395.2500213 35.49023192 384.57030906 37.83082581 376.3506012 C42.70173139 360.71893113 53.76604298 350.36435391 67.90113831 342.8271637 C82.1799189 336.0341288 96.94045167 334.20071895 112.57789612 334.28761292 C113.98851514 334.28817855 115.39913474 334.28785751 116.80975342 334.28672791 C120.60029721 334.28615931 124.39071175 334.29783272 128.18122578 334.31187582 C132.15700927 334.32446637 136.13279645 334.32556019 140.1085968 334.32792664 C147.61995209 334.33411713 155.13124843 334.35049468 162.64257789 334.37062562 C171.20133072 334.39306073 179.76008652 334.4039971 188.31886148 334.41401649 C205.90882202 334.43486335 223.49872165 334.47039933 241.08863831 334.5146637 C241.08863831 327.9146637 241.08863831 321.3146637 241.08863831 314.5146637 C153.96863831 314.5146637 66.84863831 314.5146637 -22.91136169 314.5146637 C-22.79253662 377.85112754 -22.79253662 377.85112754 -22.64109802 441.18751526 C-22.62754822 453.42042542 -22.62754822 453.42042542 -22.62503052 459.14204407 C-22.62222868 463.14941868 -22.61095904 467.15667479 -22.59463501 471.16401672 C-22.57410671 476.27084915 -22.5678791 481.37750848 -22.57214487 486.48437834 C-22.57125245 488.36157686 -22.56527461 490.23878124 -22.5537163 492.11594439 C-22.53885555 494.64639038 -22.54236858 497.17615861 -22.55059814 499.70661926 C-22.54186015 500.44570904 -22.53312216 501.18479881 -22.52411938 501.94628525 C-22.55119597 505.03117329 -22.7451467 507.20679464 -24.22297192 509.94407272 C-26.9250391 512.45761692 -29.30558774 512.45249518 -32.91136169 512.5146637 C-35.85891901 511.1690397 -37.45413441 510.42911826 -38.91136169 507.5146637 C-38.91136169 495.3046637 -38.91136169 483.0946637 -38.91136169 470.5146637 C-83.13136169 470.5146637 -127.35136169 470.5146637 -172.91136169 470.5146637 C-172.91136169 482.3946637 -172.91136169 494.2746637 -172.91136169 506.5146637 C-175.91136169 511.5146637 -175.91136169 511.5146637 -177.77854919 512.36231995 C-178.44112732 512.43321838 -179.10370544 512.50411682 -179.78636169 512.5771637 C-180.44378357 512.67126526 -181.10120544 512.76536682 -181.77854919 512.86231995 C-185.21422005 512.30229301 -186.55003108 511.07791876 -188.91136169 508.5146637 C-189.67611357 505.14772224 -189.58119034 501.81983987 -189.53955078 498.379776 C-189.54664517 497.33787471 -189.55373956 496.29597342 -189.56104892 495.22249937 C-189.57869662 491.7199065 -189.56048864 488.21841336 -189.54246521 484.71583557 C-189.5476014 482.20944715 -189.5548804 479.70306234 -189.56414795 477.19668579 C-189.58077918 471.08897659 -189.57400197 464.9816773 -189.55605973 458.8739835 C-189.54204176 453.91079838 -189.53813917 448.9477001 -189.541502 443.98449707 C-189.54197944 443.27847681 -189.54245688 442.57245654 -189.54294879 441.84504172 C-189.54397511 440.41083576 -189.54503047 438.97662982 -189.54611456 437.5424239 C-189.55468483 424.85651144 -189.53799611 412.17075342 -189.50828552 399.48487854 C-189.47944727 387.17133598 -189.47236411 374.85801592 -189.48777771 362.54444885 C-189.5045336 349.14017822 -189.50858037 335.73601328 -189.49106735 322.3317399 C-189.48922294 320.90277005 -189.48738821 319.47380019 -189.48556328 318.04483032 C-189.48465119 317.341725 -189.4837391 316.63861968 -189.48279937 315.91420814 C-189.47719014 310.95621506 -189.48050474 305.9982735 -189.48710823 301.0402832 C-189.495641 294.3688166 -189.48270224 287.69771932 -189.45525932 281.02628899 C-189.44835595 278.57366325 -189.44829827 276.12100759 -189.45547485 273.66838264 C-189.46412376 270.32840986 -189.44828978 266.98944004 -189.42602539 263.64955139 C-189.43426616 262.67173942 -189.44250692 261.69392745 -189.45099741 260.68648481 C-189.3703996 254.16608304 -189.3703996 254.16608304 -187.0796957 250.91535187 C-183.99911891 248.92537825 -181.60644364 248.96712271 -177.95823669 248.9052887 C-177.29801514 248.88875244 -176.63779358 248.87221619 -175.95756531 248.85517883 C-173.85873543 248.80677919 -171.76062948 248.78534851 -169.66136169 248.7646637 C-168.2342421 248.73649686 -166.80715611 248.70656841 -165.38011169 248.67481995 C-161.89068561 248.60102606 -158.40139697 248.55140091 -154.91136169 248.5146637 C-155.3847699 247.86529846 -155.8581781 247.21593323 -156.34593201 246.54689026 C-169.50806877 228.1850646 -172.52177535 204.73291315 -170.91136169 182.5146637 C-170.03908786 179.87547621 -169.49288608 178.86918527 -167.12052917 177.42289734 C-164.6700741 176.41546546 -162.96664105 176.2727801 -160.32640076 176.28761292 C-159.42576904 176.28776398 -158.52513733 176.28791504 -157.59721375 176.28807068 C-156.63353882 176.29839325 -155.66986389 176.30871582 -154.67698669 176.3193512 C-153.68382446 176.32218109 -152.69066223 176.32501099 -151.66740417 176.32792664 C-148.49860025 176.33911226 -145.33008004 176.36421407 -142.16136169 176.3896637 C-140.0116262 176.39969558 -137.86188626 176.40882107 -135.71214294 176.41700745 C-130.44510672 176.43904634 -125.17828229 176.47356528 -119.91136169 176.5146637 C-120.40636169 170.5746637 -120.40636169 170.5746637 -120.91136169 164.5146637 C-122.31386169 164.5765387 -123.71636169 164.6384137 -125.16136169 164.7021637 C-137.90062808 164.64825989 -149.37611133 160.01835634 -158.72386169 151.3896637 C-166.35814359 143.31678751 -170.2333237 133.90158416 -170.05589294 122.91700745 C-169.87769459 119.9550618 -169.53513402 118.02413002 -167.91136169 115.5146637 C-160.04380309 109.25637844 -150.93723444 108.07370934 -141.11058044 108.69044495 C-133.64424752 109.76015111 -127.45855795 112.88114117 -120.91136169 116.5146637 C-120.00639124 109.70129978 -120.00639124 109.70129978 -122.29417419 103.5068512 C-123.51542686 102.37018746 -124.76284129 101.26110433 -126.03245544 100.1787262 C-132.11716786 94.78977092 -135.38914646 86.54662807 -136.07981873 78.56886292 C-136.92754952 63.16428203 -133.70972615 52.55780395 -123.91136169 40.5146637 C-120.76433081 37.36115744 -117.76662185 35.77901683 -113.47386169 34.4521637 C-106.83152025 34.568696 -102.49777452 37.71571816 -97.72386169 42.1396637 C-88.90877098 51.43967099 -86.27982305 62.84417632 -86.60276794 75.37013245 C-87.17863674 85.69992829 -90.79806115 94.05204929 -97.91136169 101.5146637 C-99.36542419 102.6902887 -99.36542419 102.6902887 -100.84886169 103.8896637 C-104.10383503 108.03235703 -103.3115134 112.43718312 -102.91136169 117.5146637 C-102.43827576 117.18853088 -101.96518982 116.86239807 -101.47776794 116.52638245 C-91.49508981 109.92964192 -80.08673455 106.96569712 -68.09886169 109.1396637 C-62.31145224 110.70931165 -57.25337201 113.50164822 -53.91136169 118.5146637 C-52.44824742 129.53905962 -55.69981312 139.44308706 -62.09886169 148.38575745 C-69.44584674 157.01529807 -79.66982225 162.81086787 -90.91136169 164.5146637 C-92.80555952 164.60374077 -94.7025776 164.64483773 -96.59886169 164.6396637 C-98.02778748 164.64353088 -98.02778748 164.64353088 -99.48558044 164.6474762 C-101.91136169 164.5146637 -101.91136169 164.5146637 -103.91136169 163.5146637 C-103.91136169 167.8046637 -103.91136169 172.0946637 -103.91136169 176.5146637 C-102.66524109 176.49895325 -101.41912048 176.4832428 -100.13523865 176.46705627 C-95.50411972 176.41268296 -90.87302892 176.37828658 -86.24168396 176.34986877 C-84.23870598 176.33479904 -82.23576089 176.3143396 -80.2328949 176.28834534 C-77.35089489 176.25188242 -74.46933185 176.23491909 -71.58714294 176.22169495 C-70.69425064 176.20621109 -69.80135834 176.19072723 -68.88140869 176.17477417 C-64.07663102 176.17347883 -60.78855311 176.33274617 -56.91136169 179.5146637 C-50.53860169 192.2601837 -56.87315729 216.99437309 -61.16136169 230.0146637 C-63.64622324 236.46166728 -66.9543911 243.5576931 -71.91136169 248.5146637 C-16.80136169 248.8446637 38.30863831 249.1746637 95.08863831 249.5146637 C95.08863831 240.9346637 95.08863831 232.3546637 95.08863831 223.5146637 C92.04588684 223.53037415 89.00313538 223.54608459 85.86817932 223.56227112 C75.79798565 223.61205267 65.72778644 223.64514694 55.65750217 223.67010021 C49.55383337 223.68573436 43.450291 223.70693174 37.34669495 223.74098206 C31.45281677 223.77365544 25.55905997 223.79153364 19.66509819 223.79929543 C17.42011035 223.80482459 15.17512891 223.81562164 12.93019295 223.83185387 C9.777867 223.85373387 6.62603813 223.85662616 3.47364807 223.85523987 C2.55223022 223.8660257 1.63081238 223.87681152 0.68147278 223.88792419 C-6.55802735 223.85363163 -13.41099501 222.69876448 -19.28636169 218.2021637 C-25.52968066 211.81019428 -25.34838333 205.73203763 -25.31541443 197.23878479 C-25.32227768 196.00563034 -25.32914093 194.77247589 -25.33621216 193.50195312 C-25.35134621 190.13212534 -25.35298358 186.76285212 -25.34726977 183.3930316 C-25.34417384 180.57721168 -25.35027447 177.76144158 -25.35630852 174.94562876 C-25.37033745 168.30420997 -25.36880455 161.66291988 -25.35740662 155.02149963 C-25.34591118 148.17191363 -25.36002832 141.32271852 -25.38680309 134.47318399 C-25.40895045 128.58682162 -25.41560015 122.70058205 -25.40972668 116.81418097 C-25.40635544 113.30071683 -25.40878361 109.7875036 -25.42597771 106.27407455 C-25.44429948 102.35981102 -25.4302697 98.4460301 -25.41307068 94.53175354 C-25.42757263 92.78614891 -25.42757263 92.78614891 -25.44236755 91.00527954 C-25.42761635 89.40714165 -25.42761635 89.40714165 -25.41256714 87.77671814 C-25.41235785 86.85165655 -25.41214857 85.92659496 -25.41193295 84.97350121 C-24.75034293 81.7237294 -23.50007674 80.52934107 -20.91136169 78.5146637 C-17.41136169 78.0146637 -17.41136169 78.0146637 -13.91136169 78.5146637 C6.61639729 99.04242268 -9.91136169 136.48402854 -9.91136169 165.5146637 C57.40863831 165.5146637 124.72863831 165.5146637 194.08863831 165.5146637 C194.41863831 161.5546637 194.74863831 157.5946637 195.08863831 153.5146637 C195.69263436 150.42210022 196.32623261 147.47737294 197.15113831 144.4521637 C197.36810364 143.65197815 197.58506897 142.8517926 197.80860901 142.02735901 C205.19572991 115.99582597 219.22323198 92.49179124 243.40113831 78.9521637 C247.35138991 77.41223511 249.11547318 77.12867586 253.08863831 78.5146637 C255.08165567 80.09533264 255.95407181 81.24553071 257.08863831 83.5146637 C257.18164993 86.10848547 257.21444117 88.67521009 257.2021637 91.26905823 C257.20230972 92.06914307 257.20245575 92.86922791 257.2026062 93.69355774 C257.20190811 96.34489123 257.19412052 98.99615494 257.18629456 101.6474762 C257.18443001 103.48307761 257.18300628 105.31867953 257.18200684 107.15428162 C257.17818454 111.99089425 257.16835669 116.82747696 257.15730286 121.66407776 C257.14708256 126.59734187 257.14250789 131.53061081 257.13746643 136.46388245 C257.12673418 146.14749147 257.10913969 155.83107042 257.08863831 165.5146637 C264.34863831 165.5146637 271.60863831 165.5146637 279.08863831 165.5146637 C278.98129894 146.51313176 278.86876449 127.51163925 278.74929905 108.51017952 C278.69396378 99.68795738 278.64048129 90.8657312 278.59132385 82.04347229 C278.54848573 74.35617362 278.50220868 66.66890477 278.45175976 58.98165214 C278.42515581 54.90935378 278.40030267 50.83706135 278.37956429 46.76472855 C278.36000684 42.9349465 278.33586577 39.10522122 278.30814743 35.27548981 C278.29877226 33.86696527 278.29109865 32.45842826 278.28521919 31.0498848 C278.27696604 29.13253076 278.26210033 27.21520854 278.24685669 25.29789734 C278.24040414 24.22308672 278.23395159 23.1482761 278.2273035 22.04089546 C278.25679035 19.51970115 278.25679035 19.51970115 277.08863831 17.5146637 C274.19365451 16.5496691 272.37898632 16.38940072 269.37062836 16.38882256 C268.39463794 16.38621481 267.41864753 16.38360706 266.41308165 16.38092029 C265.33829195 16.38315101 264.26350226 16.38538173 263.15614319 16.38768005 C262.0163855 16.38612006 260.87662782 16.38456007 259.70233202 16.38295281 C255.86298888 16.37894733 252.02368491 16.38213074 248.18434143 16.38526917 C245.44003212 16.38446529 242.6957245 16.38217119 239.95141602 16.37995911 C233.25916754 16.37550579 226.56693027 16.37647594 219.87468135 16.37937175 C214.43713404 16.38162749 208.99958988 16.38193756 203.56204224 16.38084793 C202.78898909 16.3806947 202.01593594 16.38054146 201.21945694 16.38038359 C199.64915574 16.38006387 198.07885453 16.37973966 196.50855333 16.379411 C181.77388361 16.37655749 167.03922012 16.37984121 152.30455142 16.38521136 C139.65363847 16.38967929 127.00273469 16.38890332 114.3518219 16.3842926 C99.67090882 16.37894457 84.99000119 16.37683217 70.30908728 16.37990487 C68.74446964 16.38022343 67.17985201 16.3805378 65.61523438 16.38084793 C64.84535471 16.38100221 64.07547504 16.38115648 63.28226569 16.38131543 C57.84944086 16.3821799 52.41661947 16.38071922 46.98379517 16.37836838 C40.36560273 16.37556764 33.74742216 16.37631444 27.1292311 16.38164912 C23.75068276 16.38428243 20.37217069 16.38476173 16.99361992 16.38199997 C13.33610439 16.37928495 9.67864531 16.382674 6.02113342 16.38768005 C4.40894889 16.38433397 4.40894889 16.38433397 2.76419497 16.38092029 C1.78820455 16.38352804 0.81221414 16.38613579 -0.19335175 16.38882256 C-1.03812214 16.38898491 -1.88289254 16.38914726 -2.75326204 16.38931453 C-5.09572056 16.43129114 -5.09572056 16.43129114 -7.91136169 17.5146637 C-9.07246812 20.99798299 -9.07124464 23.80935914 -9.12229919 27.4834137 C-9.15035633 28.87274863 -9.17902071 30.2620714 -9.20823669 31.65138245 C-9.24956 33.8370901 -9.28645669 36.0225679 -9.31272888 38.20851135 C-9.34031171 40.32145145 -9.38616372 42.43336744 -9.43479919 44.5459137 C-9.45461853 45.80983948 -9.47443787 47.07376526 -9.49485779 48.37599182 C-9.91136169 51.5146637 -9.91136169 51.5146637 -11.30638123 53.42530823 C-13.43020063 54.86681754 -14.85950761 54.91518224 -17.41136169 54.8896637 C-18.57151794 54.90126526 -18.57151794 54.90126526 -19.75511169 54.9131012 C-22.59255615 54.38879081 -23.24563064 53.89170064 -24.91136169 51.5146637 C-25.24669492 48.67832695 -25.40322607 46.06606602 -25.41526794 43.2256012 C-25.42525314 42.40774139 -25.43523834 41.58988159 -25.44552612 40.74723816 C-25.46071619 39.01400303 -25.46775164 37.28068017 -25.4672699 35.54737854 C-25.47378875 32.91907378 -25.52813189 30.29463617 -25.58518982 27.66700745 C-25.74328734 12.52903406 -25.74328734 12.52903406 -20.88768005 6.19288635 C-14.06360749 0.39811491 -8.73743036 -0.06462311 0 0 Z M-111.91136169 52.5146637 C-118.49404165 59.80898473 -120.51296698 65.40750494 -120.26292419 75.28419495 C-119.59216844 81.44769505 -117.69812691 85.84972338 -113.16136169 90.0771637 C-112.41886169 90.5515387 -111.67636169 91.0259137 -110.91136169 91.5146637 C-104.4293492 84.50708262 -102.24578833 78.17153289 -102.48948669 68.55763245 C-103.28424339 62.82508186 -105.54935843 57.44759802 -110.08323669 53.73731995 C-110.68651794 53.33384338 -111.28979919 52.93036682 -111.91136169 52.5146637 Z M237.20582581 103.24513245 C210.85511805 132.12073381 206.73093541 170.08229209 208.08863831 207.5146637 C209.95167282 236.54920151 219.31916535 264.57028991 240.08863831 285.5146637 C240.41863831 285.5146637 240.74863831 285.5146637 241.08863831 285.5146637 C241.08863831 224.7946637 241.08863831 164.0746637 241.08863831 101.5146637 C238.90785264 101.28909955 238.90785264 101.28909955 237.20582581 103.24513245 Z M-152.91136169 125.5146637 C-152.34327633 132.6157307 -149.90493361 136.82289437 -144.78636169 141.6396637 C-138.29173705 146.92436898 -131.20991077 149.2426066 -122.91136169 148.5146637 C-121.92136169 148.1846637 -120.93136169 147.8546637 -119.91136169 147.5146637 C-121.86812257 139.46399039 -125.27721345 133.5562952 -132.30979919 128.94044495 C-138.98446078 125.35666511 -145.37532667 123.39515384 -152.91136169 125.5146637 Z M-96.91136169 133.5146637 C-100.98715031 137.92503197 -102.54525297 141.5348879 -102.91136169 147.5146637 C-95.33663591 150.03957229 -88.91937707 147.82228157 -81.91136169 144.5146637 C-75.78967777 140.84623887 -72.13856919 135.25428638 -69.91136169 128.5146637 C-70.40636169 127.0296637 -70.40636169 127.0296637 -70.91136169 125.5146637 C-81.07444397 123.4444062 -89.41464973 126.40111701 -96.91136169 133.5146637 Z M-9.91136169 181.5146637 C-11.47660928 200.12952452 -11.47660928 200.12952452 -7.91136169 206.5146637 C-4.8157125 208.06248829 -1.55088499 207.64785936 1.84599304 207.63491821 C2.65624526 207.63577264 3.46649748 207.63662706 4.30130279 207.63750738 C7.03138074 207.63916177 9.761398 207.63364146 12.49147034 207.62818909 C14.44247944 207.62790718 16.39348864 207.62806502 18.34449768 207.62863159 C23.6541365 207.62891943 28.96375289 207.62302487 34.27338648 207.61605763 C39.81742395 207.60982186 45.36146188 207.60922012 50.90550232 207.60803223 C61.40981659 207.60491957 71.91412051 207.59670707 82.41843021 207.58668274 C94.37471688 207.57551956 106.33100404 207.57001063 118.28729463 207.5649873 C142.88774847 207.55452441 167.48819237 207.53672567 192.08863831 207.5146637 C192.08863831 198.9346637 192.08863831 190.3546637 192.08863831 181.5146637 C125.42863831 181.5146637 58.76863831 181.5146637 -9.91136169 181.5146637 Z M257.08863831 181.5146637 C257.08863831 190.0946637 257.08863831 198.6746637 257.08863831 207.5146637 C259.97613831 207.5971637 262.86363831 207.6796637 265.83863831 207.7646637 C266.74194885 207.80107971 267.6452594 207.83749573 268.57594299 207.87501526 C272.08342892 207.92362146 274.49654963 207.81792863 277.65113831 206.2021637 C280.0297914 201.75511661 279.50053942 197.20909501 279.33863831 192.2646637 C279.25613831 188.7171637 279.17363831 185.1696637 279.08863831 181.5146637 C271.82863831 181.5146637 264.56863831 181.5146637 257.08863831 181.5146637 Z M-154.91136169 192.5146637 C-153.33423066 218.70601423 -153.33423066 218.70601423 -140.22386169 240.4521637 C-133.89882579 245.50492226 -125.91561384 247.92175613 -117.91136169 248.5146637 C-117.27327576 248.5662262 -116.63518982 248.6177887 -115.97776794 248.6709137 C-105.21148299 249.14502533 -94.02853513 246.87714126 -85.91136169 239.5146637 C-73.96401548 227.26589361 -71.91136169 208.82597981 -71.91136169 192.5146637 C-99.30136169 192.5146637 -126.69136169 192.5146637 -154.91136169 192.5146637 Z M111.08863831 223.5146637 C111.08863831 232.0946637 111.08863831 240.6746637 111.08863831 249.5146637 C126.59863831 249.5146637 142.10863831 249.5146637 158.08863831 249.5146637 C158.08863831 240.9346637 158.08863831 232.3546637 158.08863831 223.5146637 C142.57863831 223.5146637 127.06863831 223.5146637 111.08863831 223.5146637 Z M174.08863831 223.5146637 C174.08863831 232.0946637 174.08863831 240.6746637 174.08863831 249.5146637 C182.66863831 249.5146637 191.24863831 249.5146637 200.08863831 249.5146637 C199.16051331 245.3071637 199.16051331 245.3071637 198.21363831 241.0146637 C198.02301819 240.14776917 197.83239807 239.28087463 197.63600159 238.38771057 C197.47857483 237.6767926 197.32114807 236.96587463 197.15895081 236.2334137 C197.00184631 235.52120667 196.84474182 234.80899963 196.68287659 234.07521057 C195.86342063 230.54421056 194.96779128 227.03127559 194.08863831 223.5146637 C187.48863831 223.5146637 180.88863831 223.5146637 174.08863831 223.5146637 Z M-172.91136169 265.5146637 C-172.91136169 276.4046637 -172.91136169 287.2946637 -172.91136169 298.5146637 C-39.92136169 298.5146637 93.06863831 298.5146637 230.08863831 298.5146637 C225.97903085 293.70977109 225.97903085 293.70977109 221.81520081 288.9521637 C215.26140455 281.35073458 212.08293468 274.8789694 207.08863831 265.5146637 C81.68863831 265.5146637 -43.71136169 265.5146637 -172.91136169 265.5146637 Z M257.08863831 265.5146637 C257.08863831 276.4046637 257.08863831 287.2946637 257.08863831 298.5146637 C273.58863831 298.5146637 290.08863831 298.5146637 307.08863831 298.5146637 C307.08863831 287.6246637 307.08863831 276.7346637 307.08863831 265.5146637 C290.58863831 265.5146637 274.08863831 265.5146637 257.08863831 265.5146637 Z M-172.91136169 314.5146637 C-172.91136169 334.9746637 -172.91136169 355.4346637 -172.91136169 376.5146637 C-128.69136169 376.5146637 -84.47136169 376.5146637 -38.91136169 376.5146637 C-38.91136169 356.0546637 -38.91136169 335.5946637 -38.91136169 314.5146637 C-83.13136169 314.5146637 -127.35136169 314.5146637 -172.91136169 314.5146637 Z M59.98707581 368.7959137 C55.55787257 374.60099708 51.08863831 383.00298446 51.08863831 390.5146637 C71.1867117 390.56150177 91.28477394 390.59671019 111.3828907 390.61828804 C120.71597754 390.62857582 130.04903035 390.64258809 139.38209534 390.6655426 C147.52214993 390.68555328 155.66217986 390.69839826 163.80225837 390.70284069 C168.10748784 390.70543513 172.4126468 390.71148043 176.71785355 390.72612381 C180.78076348 390.73982941 184.84357473 390.74386049 188.90650558 390.74087906 C190.38740833 390.74142348 191.86831483 390.74532289 193.34919739 390.75307465 C213.24622252 391.12537697 213.24622252 391.12537697 231.08863831 383.5146637 C238.28235706 375.78637985 241.16120295 364.70830863 241.10816956 354.3349762 C241.10172424 353.07427307 241.09527893 351.81356995 241.08863831 350.5146637 C222.81595113 350.44437693 204.54329935 350.39157963 186.27050591 350.35922718 C177.78486977 350.34380169 169.29931795 350.32279545 160.81373596 350.28834534 C153.41200898 350.25831 146.01034311 350.23905737 138.60855687 350.23239821 C134.69452093 350.22850973 130.78065972 350.21946296 126.86668015 350.19747353 C123.17143961 350.17688414 119.47644328 350.17087442 115.78115082 350.17534065 C113.80141051 350.17414101 111.82169587 350.15811777 109.84202576 350.1414032 C91.58755201 350.20341135 72.75070325 354.94097238 59.98707581 368.7959137 Z M-172.91136169 392.5146637 C-172.91136169 412.9746637 -172.91136169 433.4346637 -172.91136169 454.5146637 C-128.69136169 454.5146637 -84.47136169 454.5146637 -38.91136169 454.5146637 C-38.91136169 434.0546637 -38.91136169 413.5946637 -38.91136169 392.5146637 C-83.13136169 392.5146637 -127.35136169 392.5146637 -172.91136169 392.5146637 Z " fill="#000000" transform="translate(188.91136169433594,-0.5146636962890625)"/>
<path d="M0 0 C0.99 0.03287109 0.99 0.03287109 2 0.06640625 C2.66 0.06511719 3.32 0.06382812 4 0.0625 C7.00350982 0.91310337 8.09468633 2.1504217 10 4.62890625 C10.39972204 7.51732429 10.55750292 10.02593608 10.53344727 12.9140625 C10.54206284 13.7470285 10.55067841 14.57999451 10.55955505 15.4382019 C10.5822446 18.18958674 10.5754713 20.9399556 10.56640625 23.69140625 C10.57164028 25.60425113 10.57791595 27.51709343 10.58518982 29.42993164 C10.59559935 33.43811186 10.59102426 37.44593718 10.57641602 41.45410156 C10.55922161 46.59268395 10.58272855 51.73014888 10.61790562 56.86860657 C10.63985613 60.8183128 10.63844394 64.76775063 10.6301403 68.71749878 C10.62931961 70.61214423 10.63620562 72.50680915 10.65091133 74.40139771 C10.66831559 77.04954938 10.65385084 79.69568001 10.63110352 82.34375 C10.64279572 83.12724823 10.65448792 83.91074646 10.66653442 84.71798706 C10.59834647 88.6157981 10.34537664 90.27061815 7.59385681 93.125 C4.93666002 94.66563048 3.86158317 95.11889757 0.875 94.69140625 C0.21242188 94.62050781 -0.45015625 94.54960937 -1.1328125 94.4765625 C-4.01023362 93.17028555 -4.64965485 91.46057758 -6 88.62890625 C-6.28971004 85.85000691 -6.42070903 83.29755203 -6.40405273 80.52148438 C-6.41091599 79.71923935 -6.41777924 78.91699432 -6.42485046 78.09043884 C-6.44310545 75.44682971 -6.43928334 72.80381469 -6.43359375 70.16015625 C-6.43815579 68.3183981 -6.44346143 66.47664166 -6.44947815 64.6348877 C-6.45840639 60.7781685 -6.45598894 56.92165641 -6.44604492 53.06494141 C-6.43454852 48.12504859 -6.45477835 43.18586988 -6.48396206 38.24607086 C-6.50231498 34.44390328 -6.50203354 30.64190718 -6.49632454 26.83970642 C-6.49617125 25.01845802 -6.50222181 23.19719805 -6.51461601 21.37599182 C-6.52950938 18.82898222 -6.51886239 16.28329654 -6.50170898 13.73632812 C-6.51137695 12.98604843 -6.52104492 12.23576874 -6.53100586 11.4627533 C-6.47938632 7.79882304 -6.09355087 5.77452616 -4.09364319 2.66149902 C-2 0.62890625 -2 0.62890625 0 0 Z " fill="#000000" transform="translate(502,417.37109375)"/>
<path d="M0 0 C1.29136368 -0.00938095 2.58272736 -0.0187619 3.91322327 -0.02842712 C5.31902734 -0.01794991 6.72482502 -0.00658105 8.13061523 0.00561523 C9.57502821 0.00546023 11.0194416 0.00397102 12.46385193 0.00120544 C15.48764482 -0.00017784 18.51096297 0.01236835 21.53466797 0.03515625 C25.41092842 0.06356682 29.28640173 0.06079607 33.16272068 0.04806614 C36.14388253 0.04111293 39.1248623 0.04889357 42.1060009 0.06132317 C43.53534179 0.06583941 44.96470221 0.06617294 46.39404488 0.06225777 C48.3903335 0.05934877 50.38661852 0.07800104 52.3828125 0.09765625 C53.51880386 0.10305923 54.65479523 0.10846222 55.82521057 0.11402893 C58.62670898 0.50170898 58.62670898 0.50170898 60.49205017 1.89219666 C61.98991038 4.01690978 62.0275344 5.41916703 62.00170898 8.00170898 C62.01331055 9.16186523 62.01331055 9.16186523 62.02514648 10.34545898 C61.53236519 13.01227541 60.75435408 13.86352215 58.62670898 15.50170898 C55.47994121 16.55063158 53.25302265 16.63470388 49.94946289 16.64697266 C48.78460358 16.65335251 47.61974426 16.65973236 46.41958618 16.66630554 C45.16020233 16.66741837 43.90081848 16.66853119 42.60327148 16.66967773 C41.30980804 16.67300613 40.0163446 16.67633453 38.6836853 16.67976379 C35.94495815 16.68575029 33.20626253 16.68760421 30.4675293 16.68701172 C26.96489035 16.68691018 23.46245451 16.70055537 19.95986366 16.71778393 C16.61182992 16.73160408 13.26383338 16.7309934 9.91577148 16.73217773 C8.0327684 16.74295601 8.0327684 16.74295601 6.11172485 16.75395203 C4.3549794 16.74933708 4.3549794 16.74933708 2.56274414 16.74462891 C1.53476715 16.74605392 0.50679016 16.74747894 -0.55233765 16.74894714 C-3.57118901 16.48436452 -5.68811281 15.89828595 -8.37329102 14.50170898 C-10.85368008 10.78112538 -10.83666305 8.90374328 -10.37329102 4.50170898 C-7.3202861 0.38502699 -5.00027946 0.00073091 0 0 Z " fill="#000000" transform="translate(57.373291015625,414.498291015625)"/>
<path d="M0 0 C1.29136368 -0.01260864 2.58272736 -0.02521729 3.91322327 -0.03820801 C5.31902615 -0.03104895 6.72482405 -0.02284515 8.13061523 -0.01367188 C9.57503012 -0.01636716 11.01944324 -0.02024989 12.46385193 -0.02526855 C15.4876334 -0.03116015 18.51094159 -0.02261106 21.53466797 -0.00390625 C25.41106784 0.01890449 29.28636123 0.00574607 33.16272068 -0.01819611 C36.14389901 -0.03264635 39.12481468 -0.02805222 42.1060009 -0.01768494 C43.53535022 -0.01501652 44.96472339 -0.01829152 46.39404488 -0.02760315 C48.39029614 -0.03775614 50.38663104 -0.01953805 52.3828125 0 C53.51880386 0.00318237 54.65479523 0.00636475 55.82521057 0.00964355 C58.62670898 0.51757812 58.62670898 0.51757812 60.49205017 2.42272949 C62.41955168 5.98135333 62.00881593 8.50545521 61.62670898 12.51757812 C59.81507631 15.19189302 58.74909822 15.47678171 55.62670898 16.51757812 C53.7057345 16.62114453 51.78138915 16.66613116 49.85766602 16.67871094 C48.67278595 16.68831848 47.48790588 16.69792603 46.26712036 16.70782471 C44.98586273 16.71207458 43.7046051 16.71632446 42.38452148 16.72070312 C41.068862 16.7264032 39.75320251 16.73210327 38.39767456 16.73797607 C35.61187352 16.74847531 32.82610124 16.75432504 30.0402832 16.7578125 C26.4770264 16.76329568 22.91415202 16.78732395 19.35101509 16.81578445 C15.94552457 16.83892856 12.54008658 16.8408615 9.13452148 16.84570312 C7.21870773 16.86422333 7.21870773 16.86422333 5.26419067 16.88311768 C4.07300629 16.88011658 2.8818219 16.87711548 1.65454102 16.87402344 C0.60879913 16.87766907 -0.43694275 16.8813147 -1.51437378 16.8850708 C-4.81987861 16.46017259 -6.70058625 15.47735514 -9.37329102 13.51757812 C-10.91915977 10.42584061 -10.66688623 7.9232826 -10.37329102 4.51757812 C-7.3305105 0.3993269 -4.99292142 0.01397741 0 0 Z " fill="#000000" transform="translate(57.373291015625,336.482421875)"/>
</svg>
