<?xml version="1.0" encoding="UTF-8"?>
<svg version="1.1" xmlns="http://www.w3.org/2000/svg" width="512" height="512">
<path d="M0 0 C0.68304199 -0.02223633 1.36608398 -0.04447266 2.06982422 -0.06738281 C7.02468505 -0.04509151 9.80157539 1.37540152 13.625 4.4375 C19.21159266 10.77903761 19.01726269 15.17904806 18.625 23.4375 C18.11702173 28.36598297 17.44926795 33.25674299 16.70849609 38.1550293 C16.37627179 40.3665341 16.06429727 42.58025988 15.75390625 44.79492188 C13.08204215 63.21411469 8.19588455 78.85392441 -6.5 91.2265625 C-17.58694806 99.174926 -29.56654484 101.6148082 -42.875 101.625 C-43.9592627 101.63869629 -45.04352539 101.65239258 -46.16064453 101.66650391 C-52.01579954 101.68320028 -56.66867421 101.22794214 -62.25 99.3125 C-65.71245884 99.06044688 -67.71338137 99.03240332 -70.70483398 100.86401367 C-80.19134986 109.58502235 -88.58543927 118.8429397 -94.375 130.4375 C-95.08462891 131.78134766 -95.08462891 131.78134766 -95.80859375 133.15234375 C-103.48476916 148.66414034 -104.53801957 164.62954833 -104.47265625 181.6328125 C-104.47078696 183.07583568 -104.46936548 184.5188595 -104.46836853 185.96188354 C-104.46458356 189.72649952 -104.45478849 193.49107579 -104.44366455 197.25567627 C-104.43336313 201.11054955 -104.42885236 204.96542937 -104.42382812 208.8203125 C-104.41316187 216.35939293 -104.39613486 223.89844087 -104.375 231.4375 C-97.13023147 225.11301317 -97.13023147 225.11301317 -92.74853516 216.90771484 C-92.96944596 214.50149437 -93.46396002 212.42925004 -94.1875 210.125 C-94.5683435 208.47849368 -94.94067042 206.82999547 -95.3046875 205.1796875 C-95.49643555 204.37756836 -95.68818359 203.57544922 -95.88574219 202.74902344 C-98.56590909 190.08643851 -95.93544072 175.19629177 -89.625 163.9375 C-78.62929972 147.55390658 -60.61545091 140.58530505 -41.89990234 136.89160156 C-37.07663859 136.02414163 -32.23193035 135.33644105 -27.375 134.6875 C-26.42004639 134.55972168 -25.46509277 134.43194336 -24.48120117 134.30029297 C-6.61629214 132.08025446 -6.61629214 132.08025446 0.625 137.4375 C6.47117773 144.78269766 6.1827869 151.25662052 5.21679688 160.22900391 C4.76189813 163.82788842 4.24500218 167.4166086 3.70849609 171.00415039 C3.37744375 173.23354317 3.06503989 175.46501694 2.75390625 177.69726562 C0.32860489 194.52263359 -3.89468418 211.93229228 -17.5546875 223.2421875 C-31.77549771 233.82828584 -47.9734278 237.07461923 -65.375 235.4375 C-67.67072439 234.96122068 -69.92416802 234.38554771 -72.19335938 233.79711914 C-78.92365149 232.05322789 -78.92365149 232.05322789 -85.37890625 234.16015625 C-88.15496312 237.03793123 -90.32940711 240.02569676 -92.375 243.4375 C-92.74979492 244.04110352 -93.12458984 244.64470703 -93.51074219 245.26660156 C-102.69744594 260.33594994 -104.35318339 274.69081782 -104.9375 292 C-105.00227539 293.79920898 -105.00227539 293.79920898 -105.06835938 295.63476562 C-105.17356802 298.56891793 -105.27570883 301.5031425 -105.375 304.4375 C-103.46847656 304.65986328 -103.46847656 304.65986328 -101.5234375 304.88671875 C-98.42410734 305.24820249 -95.95294648 305.55361604 -93.375 307.4375 C-91.2934098 310.11383026 -91.37912409 311.55503668 -91.5 315 C-92.375 318.4375 -92.375 318.4375 -93.859375 320.1796875 C-97.73893045 322.11946522 -101.26848879 321.40625453 -105.5 321 C-117.33513578 320.15216621 -125.58083031 321.20411491 -135.375 328.4375 C-137.18244576 330.08308494 -138.86098728 331.79766494 -140.5390625 333.57421875 C-148.54343312 341.6978034 -157.19995506 347.68207891 -168.7734375 348.48828125 C-172.50337384 348.41547468 -176.00964009 347.67623201 -179.65625 346.93359375 C-189.85278567 345.07301899 -198.81283935 347.26476996 -207.5625 352.8125 C-211.74278641 356.14819794 -213.96052364 360.62734488 -216.44604492 365.2512207 C-221.43684185 374.45059252 -228.82409304 380.70286055 -238.75 384.125 C-243.58112269 385.47861178 -248.39971334 385.865117 -253.375 386.3125 C-260.60168222 386.98176104 -266.23799827 388.34196496 -272.375 392.4375 C-273.73625 393.2728125 -273.73625 393.2728125 -275.125 394.125 C-283.53385061 402.76742979 -285.73186584 412.72453119 -285.6875 424.375 C-285.70361328 425.21740234 -285.71972656 426.05980469 -285.73632812 426.92773438 C-285.74085173 432.80390321 -284.93184188 438.09290737 -282.375 443.4375 C-278.35914177 447.45335823 -275.06454425 448.5618797 -269.4907856 448.56499195 C-267.97117405 448.56950342 -267.97117405 448.56950342 -266.42086327 448.57410604 C-264.74652445 448.57148048 -264.74652445 448.57148048 -263.0383606 448.56880188 C-261.26346215 448.57197545 -261.26346215 448.57197545 -259.45270717 448.57521313 C-256.85038094 448.57914124 -254.24812736 448.58123026 -251.64580536 448.58024788 C-247.41198286 448.57865657 -243.17818402 448.58385403 -238.94436646 448.58987427 C-232.79751721 448.59799093 -226.65067212 448.60293234 -220.50381851 448.60616493 C-210.7903595 448.61165849 -201.07693566 448.62855258 -191.36349487 448.64750671 C-188.04139143 448.65386357 -184.7192879 448.66017198 -181.39718437 448.66648388 C-180.56693439 448.66806764 -179.73668441 448.6696514 -178.88127533 448.67128316 C-169.42817697 448.68922363 -159.97507612 448.70544848 -150.52197266 448.72045898 C-149.65770243 448.72183486 -148.7934322 448.72321073 -147.90297197 448.72462829 C-133.89357939 448.74656393 -119.88419585 448.75731584 -105.87478913 448.76482973 C-91.49748161 448.77289652 -77.12025169 448.79617225 -62.74298847 448.8327834 C-53.87156249 448.85482682 -45.00029599 448.86446746 -36.12884401 448.85828307 C-30.05074578 448.8551121 -23.97278388 448.8664145 -17.89472784 448.88917748 C-14.38622865 448.9018638 -10.87803313 448.90799309 -7.36952209 448.89676094 C-3.56803576 448.88474704 0.23294215 448.90347226 4.03439331 448.92524719 C5.14615775 448.91680466 6.25792219 448.90836212 7.40337646 448.89966375 C14.8552006 448.97892398 14.8552006 448.97892398 18.78691292 451.3210783 C20.98655053 453.85379877 21.625 455.07646815 21.625 458.4375 C19.34789157 464.07605422 19.34789157 464.07605422 16.625 465.4375 C15.02314014 465.53380763 13.41728798 465.56667379 11.81253719 465.56892776 C10.78998709 465.57276891 9.76743698 465.57661005 8.71390051 465.5805676 C7.01593945 465.57926787 7.01593945 465.57926787 5.28367615 465.57794189 C3.48979142 465.58239858 3.48979142 465.58239858 1.6596666 465.5869453 C-1.67051769 465.59414124 -5.00065041 465.59680583 -8.3308388 465.59754276 C-11.91860893 465.5993904 -15.50636782 465.60693644 -19.09413147 465.61367798 C-26.94560506 465.62727581 -34.79707354 465.63328875 -42.64855695 465.63768864 C-47.55097833 465.64044956 -52.45339774 465.64468673 -57.35581779 465.64919281 C-70.92770165 465.66138916 -84.49958391 465.67168658 -98.07147312 465.6750679 C-99.37518823 465.67539725 -99.37518823 465.67539725 -100.70524102 465.67573325 C-102.01210008 465.67606067 -102.01210008 465.67606067 -103.34536034 465.6763947 C-105.11085546 465.67683817 -106.87635058 465.67728473 -108.6418457 465.67773438 C-109.95546912 465.67806652 -109.95546912 465.67806652 -111.29563039 465.67840537 C-125.47700597 465.68235098 -139.65833009 465.69979611 -153.83968581 465.7230939 C-168.39774439 465.74681745 -182.95577717 465.75927027 -197.5138554 465.76043582 C-205.68825164 465.76135221 -213.86258091 465.76709505 -222.03695869 465.78525543 C-229.00014128 465.80067022 -235.96323621 465.8057689 -242.92643262 465.79751733 C-246.47791986 465.7936152 -250.02923066 465.79451874 -253.58069611 465.80857468 C-257.43547006 465.82369106 -261.28999681 465.81543372 -265.14479065 465.80499268 C-266.26114964 465.81304908 -267.37750862 465.82110548 -268.52769667 465.82940602 C-279.40065739 465.76056396 -286.31561271 463.40534609 -294.20703125 455.83203125 C-302.10531036 447.10834639 -302.7497827 435.90973581 -302.6875 424.625 C-302.68186035 423.56128174 -302.6762207 422.49756348 -302.67041016 421.40161133 C-302.44347708 406.75544061 -298.5932783 394.20292816 -288.41015625 383.28125 C-278.78596047 374.56220891 -268.01056126 370.6292665 -255.3125 369.5 C-247.36354598 368.7693162 -240.48407892 367.63062826 -234.65625 361.68359375 C-232.4750321 358.92924971 -230.7140884 356.04171134 -228.99609375 352.98046875 C-222.23938696 340.99513872 -212.6588291 334.33074587 -199.5 330.625 C-190.95104802 328.70339649 -183.13632928 329.05542027 -174.5625 330.625 C-168.71645234 331.60726989 -168.71645234 331.60726989 -163.171875 329.7421875 C-157.03112239 325.28346713 -151.35711402 320.35920192 -145.8125 315.1875 C-139.91980713 309.92392024 -133.93827737 306.87878695 -126.19702148 305.37451172 C-125.29459213 305.19798065 -124.39216278 305.02144958 -123.46238708 304.83956909 C-122.77354935 304.70688629 -122.08471161 304.57420349 -121.375 304.4375 C-121.4131286 291.32816023 -121.472595 278.21910446 -121.55890274 265.10998821 C-121.59832207 259.02212675 -121.63053789 252.93440874 -121.64599609 246.84643555 C-121.66119896 240.96533827 -121.69570951 235.08463552 -121.74330902 229.20371437 C-121.75808532 226.96601615 -121.76603885 224.7282616 -121.76688385 222.49051476 C-121.77899846 206.48756934 -122.44551447 194.86953251 -133.375 182.4375 C-134.11105469 181.41140625 -134.84710938 180.3853125 -135.60546875 179.328125 C-138.25733523 175.87698597 -140.549407 173.61663526 -144.375 171.4375 C-149.96024808 170.9316712 -155.49413528 172.69967163 -160.89208984 173.95263672 C-174.91858166 176.69173335 -190.54091355 174.49608615 -202.8125 167.21875 C-218.53858397 156.28720382 -225.21080795 138.3700868 -228.6015625 120.21484375 C-229.67911742 113.97533225 -230.57306079 107.71789242 -231.375 101.4375 C-231.5282373 100.27420166 -231.5282373 100.27420166 -231.68457031 99.08740234 C-232.60407746 91.76750558 -233.06056093 85.97639842 -229.375 79.4375 C-226.2844502 75.99273246 -222.77669451 73.82889289 -218.375 72.4375 C-208.93631668 72.26051013 -199.26021356 73.98142271 -189.93383789 75.37451172 C-187.81252535 75.68749626 -185.68888489 75.97858019 -183.56445312 76.26953125 C-167.44937889 78.59067137 -151.84482515 84.00702492 -141.15625 96.9296875 C-130.4280808 112.03382045 -129.09903474 128.45405223 -130.375 146.4375 C-130.8023945 148.91852791 -131.39256896 151.30283764 -132 153.75 C-132.72444889 156.64025557 -132.72444889 156.64025557 -132.375 159.4375 C-129.56201913 163.46803976 -126.26261217 166.45789413 -122.375 169.4375 C-122.28001221 168.789021 -122.18502441 168.14054199 -122.0871582 167.47241211 C-117.72049649 138.20152543 -108.67944786 116.10312646 -88.171875 94.34765625 C-87.70998779 93.84806396 -87.24810059 93.34847168 -86.7722168 92.83374023 C-85.375 91.4375 -85.375 91.4375 -82.44140625 89.2265625 C-80.05149086 86.0008544 -80.14298731 85.32972554 -80.54296875 81.48828125 C-80.8548152 79.57075733 -81.1957653 77.65778716 -81.5625 75.75 C-84.52405616 58.89102466 -84.45865607 42.02661942 -74.375 27.4375 C-63.15151195 11.5727199 -42.79774098 5.8763574 -24.5703125 2.5234375 C-16.4127137 1.12691355 -8.28035328 0.14972193 0 0 Z M-16.9375 17.625 C-17.79448486 17.75664551 -18.65146973 17.88829102 -19.53442383 18.02392578 C-33.92231286 20.37963553 -51.53669057 23.94287459 -60.78125 36.3203125 C-66.58963159 45.20173318 -67.71307027 53.97166079 -66.9375 64.375 C-66.85918945 65.54385742 -66.85918945 65.54385742 -66.77929688 66.73632812 C-66.65101936 68.63716772 -66.51392679 70.53740904 -66.375 72.4375 C-59.6324817 69.61699111 -52.95610043 63.79125357 -49.375 57.4375 C-48.23481229 52.44538153 -48.71158575 47.57570641 -49.2109375 42.52734375 C-49.45998407 39.60332836 -49.46845754 38.63255493 -48.1640625 35.91015625 C-45.48311065 33.70334654 -43.59594186 33.87712375 -40.2421875 34.04296875 C-38.375 34.4375 -38.375 34.4375 -36.5 36.25 C-35.943125 37.3328125 -35.943125 37.3328125 -35.375 38.4375 C-34.715 39.4275 -34.055 40.4175 -33.375 41.4375 C-32.51777344 40.51066406 -31.66054688 39.58382812 -30.77734375 38.62890625 C-29.62322034 37.41848414 -28.46822605 36.20889198 -27.3125 35 C-26.75111328 34.38833984 -26.18972656 33.77667969 -25.61132812 33.14648438 C-22.58118385 30.01244943 -20.92293786 28.57788077 -16.59375 27.46875 C-13.375 27.4375 -13.375 27.4375 -10.9375 28.375 C-8.99401595 30.94039895 -8.63478718 33.05902964 -8.79296875 36.2578125 C-9.94844874 40.58504627 -13.29526254 43.34546818 -16.375 46.4375 C-17.53250101 47.76071699 -18.67933292 49.09338535 -19.8125 50.4375 C-20.658125 51.4275 -21.50375 52.4175 -22.375 53.4375 C-21.59125 53.705625 -20.8075 53.97375 -20 54.25 C-17.375 55.4375 -17.375 55.4375 -15.375 58.4375 C-15.03542437 62.51240752 -15.06167514 63.96751271 -17.375 67.4375 C-21.48499571 68.16669279 -24.95430071 68.70478062 -29.07421875 67.9296875 C-33.56549449 67.25568978 -36.68832411 67.19220824 -40.47412109 69.98730469 C-45.46162915 74.41115976 -50.18260516 79.24825039 -54.375 84.4375 C-54.375 84.7675 -54.375 85.0975 -54.375 85.4375 C-39.09702074 85.99571734 -25.27248837 86.45270272 -13.375 75.4375 C-12.56095703 74.70273438 -12.56095703 74.70273438 -11.73046875 73.953125 C-2.5310527 64.544102 -1.20005778 50.3535299 0.4375 37.9375 C0.65426085 36.40085232 0.87235348 34.86439189 1.09179688 33.328125 C1.29805091 31.85433075 1.50317161 30.38037735 1.70703125 28.90625 C1.80071487 28.22912964 1.8943985 27.55200928 1.99092102 26.85437012 C2.45088305 23.35738986 2.72452805 19.9646046 2.625 16.4375 C-4.01290743 16.28781225 -10.37609543 16.61312391 -16.9375 17.625 Z M-215.375 88.4375 C-217.58038827 92.84827654 -215.40382195 99.32704888 -214.75 104.0625 C-214.65919159 104.72166412 -214.56838318 105.38082825 -214.474823 106.05996704 C-212.16997318 122.53636206 -209.06071503 141.40063304 -195.375 152.4375 C-188.14057892 157.67056196 -180.35144613 158.772109 -171.6875 158.625 C-170.95466797 158.62435547 -170.22183594 158.62371094 -169.46679688 158.62304688 C-165.65242444 158.59209164 -162.08268669 158.35162394 -158.375 157.4375 C-160.31830767 155.03393524 -162.31780523 152.74139089 -164.375 150.4375 C-165.00921875 149.63441406 -165.6434375 148.83132812 -166.296875 148.00390625 C-171.17191617 142.60159999 -174.96121004 140.97934894 -182.07177734 140.60888672 C-185.50294527 140.55081422 -188.92831928 140.58647305 -192.35717773 140.72705078 C-194.375 140.4375 -194.375 140.4375 -196.12524414 139.14404297 C-198.17454724 136.34571738 -197.67359207 133.78173117 -197.375 130.4375 C-195.3677092 127.4265638 -194.53615776 126.80733503 -191.375 125.4375 C-192.24651615 124.39291681 -193.12246967 123.35203593 -194 122.3125 C-194.54269531 121.66925781 -195.08539063 121.02601562 -195.64453125 120.36328125 C-197.23709766 118.59096694 -198.90082752 117.07036831 -200.6875 115.5 C-202.98994608 113.23400426 -203.91666664 111.50021056 -204.5 108.3125 C-204.375 104.4375 -204.375 104.4375 -202.8125 101.9375 C-199.5143112 99.90784536 -198.20091768 99.62817126 -194.375 100.4375 C-189.27506955 103.96902006 -185.01562384 108.70291265 -180.72265625 113.15234375 C-179.56475254 114.55252107 -179.56475254 114.55252107 -178.375 114.4375 C-178.1275 113.48875 -177.88 112.54 -177.625 111.5625 C-176.375 108.4375 -176.375 108.4375 -174.625 107 C-171.47015035 106.21128759 -169.47219477 106.44903358 -166.375 107.4375 C-163.77569856 110.54140624 -163.34918465 112.03219893 -163.609375 116.1171875 C-163.69654785 116.79209229 -163.7837207 117.46699707 -163.87353516 118.16235352 C-164.45032892 123.09422017 -164.6805022 127.37380573 -161.94824219 131.69287109 C-158.01145866 136.40966266 -153.44537776 140.93762738 -148.375 144.4375 C-147.715 144.4375 -147.055 144.4375 -146.375 144.4375 C-145.94848482 129.05135984 -146.18285759 116.99499948 -156.625 104.8125 C-171.68055656 91.80997388 -195.8690333 88.4375 -215.375 88.4375 Z M-70.65234375 166.5390625 C-79.09343913 175.4228193 -80.56577975 184.62301403 -80.4765625 196.578125 C-80.36914426 199.60236152 -80.0318031 202.48188605 -79.375 205.4375 C-69.50107184 199.32529194 -69.50107184 199.32529194 -62.375 190.4375 C-61.25006763 184.79383192 -61.78381616 179.02796718 -62.42749023 173.34765625 C-62.375 171.4375 -62.375 171.4375 -60.375 168.4375 C-52.51785714 166.69146825 -52.51785714 166.69146825 -49.375 168.4375 C-48.125 171.5 -48.125 171.5 -47.375 174.4375 C-46.385 173.591875 -45.395 172.74625 -44.375 171.875 C-43.735625 171.33488281 -43.09625 170.79476562 -42.4375 170.23828125 C-41.04794559 169.02505287 -39.69346054 167.77060299 -38.375 166.48046875 C-35.0214152 163.26443332 -33.25169419 161.58122036 -28.5625 160.8125 C-25.375 161.4375 -25.375 161.4375 -23.4375 162.4375 C-21.70580534 165.69716053 -21.64534717 168.89725822 -22.375 172.4375 C-24.17312054 175.18870699 -26.43170825 177.2583479 -28.875 179.4375 C-29.49503906 180.02144531 -30.11507812 180.60539062 -30.75390625 181.20703125 C-32.2767146 182.63612832 -33.82357936 184.03951656 -35.375 185.4375 C-32.70252366 187.78037418 -32.70252366 187.78037418 -29.375 188.4375 C-29.1243981 189.85053238 -28.90038079 191.26829474 -28.6875 192.6875 C-28.55988281 193.47640625 -28.43226563 194.2653125 -28.30078125 195.078125 C-28.375 197.4375 -28.375 197.4375 -29.28125 199.78125 C-31.80605517 201.77848394 -32.3795925 201.57797752 -35.48046875 201.265625 C-36.29225586 201.17023438 -37.10404297 201.07484375 -37.94042969 200.9765625 C-43.62435923 200.34995425 -48.86365897 199.88045877 -53.87939453 202.99023438 C-58.95994353 207.25693438 -63.28873684 212.22482843 -67.375 217.4375 C-61.55102136 221.32015243 -52.81766524 219.91665458 -46.03515625 218.97265625 C-34.95444193 216.56256523 -26.96201647 210.61441158 -20.375 201.4375 C-14.1476672 190.55865337 -13.47490746 176.46342184 -11.6875 164.25 C-11.49015259 162.9045813 -11.49015259 162.9045813 -11.28881836 161.53198242 C-10.71654615 157.47296765 -10.19623724 153.54904355 -10.375 149.4375 C-29.66011813 149.04284627 -55.98514039 153.00397604 -70.65234375 166.5390625 Z " fill="#000000" transform="translate(335.375,-0.4375)"/>
<path d="M0 0 C0.87978516 -0.02900391 1.75957031 -0.05800781 2.66601562 -0.08789062 C9.02441635 -0.15065388 9.02441635 -0.15065388 12.265625 2.11328125 C14.33910979 5.32034702 14.15454166 7.57616669 13.6875 11.3125 C12.36842486 13.81874276 11.62093045 15.01059798 8.90380859 15.8894043 C6.41668018 16.3641998 4.00449202 16.55863418 1.4765625 16.70703125 C0.47882813 16.77599609 -0.51890625 16.84496094 -1.546875 16.91601562 C-3.63210039 17.05477129 -5.71809244 17.18247038 -7.8046875 17.29882812 C-13.82848491 17.73741647 -17.70693837 18.29488241 -22.3125 22.3125 C-29.89839796 32.77580754 -28.49949978 53.54552526 -26.81640625 65.9765625 C-23.24503432 84.1764353 -15.12999222 98.07951113 -2.28320312 111.28613281 C-0.76515497 112.84705944 0.74507917 114.4155881 2.25195312 115.98730469 C4.67649261 118.515552 7.11720329 121.02736131 9.56756592 123.53057861 C10.56086774 124.54845647 11.55020843 125.57021553 12.53546143 126.59588623 C13.93562733 128.05001594 15.35425294 129.48630091 16.7734375 130.921875 C17.5989209 131.76717773 18.4244043 132.61248047 19.27490234 133.48339844 C21.5380002 135.47926861 21.5380002 135.47926861 24.24536133 135.80566406 C27.35424953 135.17785699 28.48831995 134.08888249 30.67578125 131.8125 C31.38154297 131.090625 32.08730469 130.36875 32.81445312 129.625 C33.53568359 128.861875 34.25691406 128.09875 35 127.3125 C35.74056641 126.549375 36.48113281 125.78625 37.24414062 125 C39.07033156 123.11489968 40.88385759 121.21914431 42.6875 119.3125 C41.13180862 116.01318424 39.49796694 113.98785711 36.8125 111.5 C31.25389326 106.08262828 28.03899469 100.88193091 27.4375 93.0625 C27.82901863 87.18972058 29.25184271 82.96902764 33.125 78.5 C39.59102347 72.98022387 43.86066196 71.87093799 52.40625 71.984375 C61.69983851 72.91373385 67.59934646 80.8875019 73.6875 87.3125 C78.17323649 83.62422777 82.48010405 79.75258436 86.6875 75.75 C87.4451062 75.06200317 87.4451062 75.06200317 88.21801758 74.36010742 C90.98830067 71.7095353 90.98830067 71.7095353 91.72924805 68.09301758 C90.15067839 63.87967569 87.24066848 61.27519265 84.08203125 58.140625 C83.40637619 57.45877136 82.73072113 56.77691772 82.03459167 56.07440186 C80.59782174 54.63052823 79.15588498 53.19178041 77.70922852 51.7578125 C75.53722837 49.59949386 73.39002173 47.41862403 71.24414062 45.234375 C61.05299619 34.9846874 50.72506025 26.1488902 37 21 C29.81194289 18.28921515 29.81194289 18.28921515 27.6875 14.3125 C27.80778769 10.88430074 28.0207636 8.36524169 29.875 5.4375 C32.47296273 3.82497141 34.64714498 3.59583058 37.6875 3.3125 C58.04372784 8.38833863 73.05326083 23.30451333 87.3762207 37.63061523 C89.6339845 39.88396694 91.90733545 42.12078129 94.18164062 44.35742188 C95.63118488 45.80110348 97.07978664 47.24573217 98.52734375 48.69140625 C99.53981422 49.68232018 99.53981422 49.68232018 100.57273865 50.69325256 C105.6253967 55.7954032 109.11254778 60.7662168 109.125 68.25 C109.14433594 69.02214844 109.16367187 69.79429687 109.18359375 70.58984375 C107.56606834 79.46712887 101.69332935 84.81081371 95.4375 90.8125 C94.59703125 91.63492188 93.7565625 92.45734375 92.890625 93.3046875 C90.83176703 95.31675325 88.76414185 97.31882172 86.6875 99.3125 C88.17686209 101.05325796 89.6672606 102.79310135 91.15966797 104.53125 C92.24693455 105.79885898 93.32999031 107.07008494 94.41015625 108.34375 C95.93093711 110.07270321 95.93093711 110.07270321 98.6875 112.3125 C101.07995006 112.01906216 101.07995006 112.01906216 103.6875 111.3125 C108.98056517 110.87794149 113.89187021 110.52242289 118.8125 112.6875 C132.3904703 125.08477723 132.3904703 125.08477723 133.0625 130.125 C132.6875 133.3125 132.6875 133.3125 130.5625 136.1875 C127.6875 138.3125 127.6875 138.3125 124.875 139.0625 C120.01233951 137.91834459 117.16098434 134.77117204 113.6875 131.3125 C113.11386719 130.74144531 112.54023438 130.17039062 111.94921875 129.58203125 C111.53285156 129.16308594 111.11648438 128.74414062 110.6875 128.3125 C106.82421373 129.8972358 104.39873077 132.37206887 101.484375 135.3203125 C101.0017218 135.80579559 100.5190686 136.29127869 100.02178955 136.79147339 C98.48891438 138.33549866 96.96315996 139.88634824 95.4375 141.4375 C94.39629639 142.48874009 93.35463459 143.53952657 92.3125 144.58984375 C89.76550536 147.15883004 87.22484823 149.73398161 84.6875 152.3125 C86.28042734 156.18532075 88.76685894 158.65185781 91.70043945 161.60009766 C92.20963928 162.11440842 92.71883911 162.62871918 93.24346924 163.15861511 C94.92410618 164.85312451 96.6120427 166.54012962 98.30078125 168.2265625 C99.4744383 169.40410759 100.64787158 170.58187576 101.8210907 171.75985718 C104.27991598 174.2261395 106.74257521 176.68851619 109.20776367 179.1484375 C112.36366867 182.29854681 115.5080604 185.45987577 118.64944172 188.62446022 C121.06946146 191.05922314 123.49638494 193.48701169 125.92534447 195.91285324 C127.08747694 197.07549857 128.24725233 198.24050497 129.40459633 199.40791702 C131.02477269 201.04045228 132.65423462 202.66313101 134.28637695 204.28369141 C135.21078079 205.20872467 136.13518463 206.13375793 137.08760071 207.08682251 C142.01547437 211.30539263 146.59232894 211.82807333 152.8984375 211.68359375 C158.1642787 210.98295662 161.84146753 208.71809471 165.06640625 204.515625 C167.80171326 199.75028177 168.85079539 194.71840213 167.6875 189.3125 C165.29849389 183.34748952 162.0927165 179.21306619 157.42578125 174.87109375 C156.21267242 173.69879346 154.99978836 172.52626055 153.78710938 171.35351562 C151.88918453 169.54274416 149.98652028 167.73727743 148.07885742 165.93676758 C146.22320095 164.17786165 144.38651799 162.40074556 142.55078125 160.62109375 C141.69145744 159.82704384 141.69145744 159.82704384 140.81477356 159.01695251 C137.89662194 156.17272046 136.77851793 154.66176553 135.71948242 150.59790039 C135.6875 147.3125 135.6875 147.3125 137.3125 144.4375 C139.98635995 142.04509899 141.11251271 141.3125 144.6875 141.3125 C149.75806112 143.39620046 153.14947594 146.29414677 156.96875 150.08984375 C157.54532349 150.65643204 158.12189697 151.22302032 158.71594238 151.80677795 C159.92994758 153.0056543 161.13996877 154.20857691 162.34619141 155.4152832 C164.16677049 157.2293447 166.00990207 159.01805415 167.85546875 160.80664062 C177.31894458 170.13576522 184.73164481 179.49114967 185 193.375 C185.02200002 203.55489704 181.8361886 211.96608172 174.6875 219.3125 C164.40092245 227.8064655 154.7134112 229.54959771 141.6875 228.3125 C128.83704735 225.56470795 119.88967827 213.70101013 110.9453125 204.80859375 C110.34835445 204.21571123 109.75139641 203.62282871 109.13634872 203.01198006 C105.9864041 199.88274729 102.83963885 196.75035613 99.6953125 193.61547852 C96.45562687 190.38692302 93.20441621 187.1702303 89.95059395 183.95593166 C87.43892909 181.47040178 84.93618181 178.97603612 82.43575668 176.47920418 C81.24063956 175.28894838 80.04215442 174.10206416 78.84021378 172.91869926 C77.16271314 171.26555881 75.49830308 169.60022217 73.83642578 167.93139648 C73.34189407 167.44967484 72.84736237 166.96795319 72.33784485 166.47163391 C68.68251478 162.76039236 66.70137646 159.17104975 66.67578125 153.8984375 C66.78277344 153.16882813 66.88976562 152.43921875 67 151.6875 C67.09925781 150.95273437 67.19851563 150.21796875 67.30078125 149.4609375 C67.6875 147.3125 67.6875 147.3125 68.36962891 145.36669922 C68.47452637 144.68881348 68.57942383 144.01092773 68.6875 143.3125 C66.76815216 141.02233534 64.92402142 139.07968302 62.75 137.0625 C61.8847168 136.23105469 61.8847168 136.23105469 61.00195312 135.3828125 C59.57472271 134.01455855 58.13247942 132.6619962 56.6875 131.3125 C53.48173192 132.71728968 51.41661802 134.37700361 49.0078125 136.90234375 C48.32589844 137.60423828 47.64398438 138.30613281 46.94140625 139.02929688 C45.52782679 140.50382885 44.11634836 141.98037802 42.70703125 143.45898438 C38.18004675 148.1095871 34.41968575 151.76013651 27.7578125 152.74609375 C26.78585937 152.74738281 25.81390625 152.74867188 24.8125 152.75 C23.84570312 152.76933594 22.87890625 152.78867187 21.8828125 152.80859375 C14.04216924 151.59128116 8.71128894 146.93782782 3.29296875 141.44921875 C2.6201033 140.78018021 1.94723785 140.11114166 1.25398254 139.42182922 C-0.16347806 138.00707799 -1.57595055 136.58731319 -2.98364258 135.1628418 C-5.09501348 133.03028737 -7.22655577 130.9196437 -9.36132812 128.81054688 C-30.17653818 108.03951436 -44.44867197 84.89095241 -44.5 54.5625 C-44.46888958 51.4780318 -44.39658742 48.39592621 -44.3125 45.3125 C-44.29848145 44.5994873 -44.28446289 43.88647461 -44.27001953 43.15185547 C-43.97110382 29.94101361 -42.52409003 18.15825594 -32.87109375 8.41015625 C-23.10633125 0.4045418 -12.07541487 0.13567882 0 0 Z M44.75 90 C43.39134631 92.28666741 43.39134631 92.28666741 44.40609741 94.7207489 C45.72248466 97.3832596 47.02524303 99.0135048 49.12744141 101.09301758 C49.82801666 101.79336624 50.52859192 102.4937149 51.25039673 103.21528625 C52.38328629 104.32495003 52.38328629 104.32495003 53.5390625 105.45703125 C54.31309418 106.22681808 55.08712585 106.99660492 55.88461304 107.78971863 C58.3536135 110.24195314 60.83285004 112.68353915 63.3125 115.125 C64.99026915 116.78771972 66.66736078 118.45112339 68.34375 120.11523438 C72.45051938 124.18896197 76.56649905 128.25317174 80.6875 132.3125 C82.9975 130.3325 85.3075 128.3525 87.6875 126.3125 C86.00837712 122.95425424 84.93994358 121.30444316 82.41870117 118.73730469 C81.75428513 118.05690125 81.08986908 117.3764978 80.40531921 116.67547607 C79.68761856 115.95241272 78.96991791 115.22934937 78.23046875 114.484375 C77.49049149 113.73536926 76.75051422 112.98636353 75.9881134 112.21466064 C74.42312261 110.63517624 72.85531666 109.05847689 71.28491211 107.484375 C68.88213178 105.06966718 66.49863514 102.63694339 64.11523438 100.203125 C62.59229853 98.67072856 61.06824684 97.1394401 59.54296875 95.609375 C58.47552681 94.51263458 58.47552681 94.51263458 57.38652039 93.39373779 C56.71264786 92.72594299 56.03877533 92.05814819 55.34448242 91.37011719 C54.75761154 90.77817566 54.17074066 90.18623413 53.56608582 89.57635498 C50.35476411 87.41587613 47.64977235 87.47439182 44.75 90 Z " fill="#000000" transform="translate(294.3125,283.6875)"/>
<path d="M0 0 C3.97590452 2.88362306 7.44821252 5.69080945 8.6328125 10.6328125 C8.83214059 13.98401606 8.3441081 16.20880204 6.5703125 19.046875 C3.14145136 21.15694339 1.09060899 21.17179023 -2.8671875 20.546875 C-5.6171875 18.171875 -5.6171875 18.171875 -7.8671875 15.546875 C-11.53434288 13.10210475 -14.60460932 12.70436933 -18.8671875 13.546875 C-21.72203261 15.81798228 -21.72203261 15.81798228 -23.8671875 18.546875 C-27.57732149 21.02029766 -29.47779012 20.93190986 -33.8671875 20.546875 C-36.2421875 19.484375 -36.2421875 19.484375 -37.8671875 17.546875 C-39.13428214 13.34962401 -39.28085471 11.37420941 -37.3046875 7.421875 C-27.64609165 -3.97031497 -13.45632502 -7.90503582 0 0 Z " fill="#000000" transform="translate(147.8671875,396.453125)"/>
<path d="M0 0 C4.73673641 3.39437609 7.5515536 6.57714148 9.2890625 12.17578125 C9.1640625 15.55078125 9.1640625 15.55078125 7.7265625 18.48828125 C4.82342221 20.82495514 2.84704917 21.27216707 -0.875 21.05078125 C-4.13281123 20.22010428 -5.74186263 18.06367109 -7.8359375 15.55078125 C-11.96489594 12.79814229 -15.3287091 13.27972953 -20.1484375 13.80078125 C-22.50200836 14.84681275 -22.85225269 16.23209563 -23.8359375 18.55078125 C-25.8359375 20.55078125 -25.8359375 20.55078125 -29.7109375 20.92578125 C-32.68913054 20.83372801 -33.73216436 20.61563946 -36.3359375 18.98828125 C-38.46627499 15.52648282 -38.44773296 13.56144035 -37.8359375 9.55078125 C-35.1555865 3.75776458 -30.48771035 0.26992445 -24.8359375 -2.44921875 C-16.55406633 -5.15775523 -7.48048014 -4.32503331 0 0 Z " fill="#000000" transform="translate(204.8359375,361.44921875)"/>
<path d="M0 0 C3.97590452 2.88362306 7.44821252 5.69080945 8.6328125 10.6328125 C8.83214059 13.98401606 8.3441081 16.20880204 6.5703125 19.046875 C3.14145136 21.15694339 1.09060899 21.17179023 -2.8671875 20.546875 C-5.6171875 18.171875 -5.6171875 18.171875 -7.8671875 15.546875 C-11.53434288 13.10210475 -14.60460932 12.70436933 -18.8671875 13.546875 C-21.72203261 15.81798228 -21.72203261 15.81798228 -23.8671875 18.546875 C-27.57732149 21.02029766 -29.47779012 20.93190986 -33.8671875 20.546875 C-37.01018282 19.05808775 -37.67744186 18.06867551 -38.8671875 14.796875 C-38.8671875 10.53885032 -37.41554067 7.82442562 -34.8671875 4.546875 C-25.26399687 -4.84291139 -11.84835475 -6.96041962 0 0 Z " fill="#000000" transform="translate(239.8671875,409.453125)"/>
</svg>
