<?xml version="1.0" encoding="UTF-8"?>
<svg version="1.1" xmlns="http://www.w3.org/2000/svg" width="512" height="512">
<path d="M0 0 C11.34038311 10.17829438 20.23689009 22.9688076 28 36 C28.3412793 36.56734863 28.68255859 37.13469727 29.03417969 37.71923828 C38.69495763 54.02237886 44.84870646 72.35413098 48 91 C48.11569336 91.68304199 48.23138672 92.36608398 48.35058594 93.06982422 C54.97262639 134.34458971 45.30191009 177.58936531 21.8515625 212.16796875 C19.64468245 215.18350701 17.35780429 218.10099825 15 221 C14.55285645 221.55397461 14.10571289 222.10794922 13.64501953 222.67871094 C-14.30216951 257.08263126 -54.03536984 278.70339326 -98.140625 283.49609375 C-143.68811981 287.76899738 -186.96778567 273.87496625 -222.05249023 244.85961914 C-236.7323062 232.56134099 -248.21641432 218.42277243 -258 202 C-258.3412793 201.43265137 -258.68255859 200.86530273 -259.03417969 200.28076172 C-268.69495763 183.97762114 -274.84870646 165.64586902 -278 147 C-278.11569336 146.31695801 -278.23138672 145.63391602 -278.35058594 144.93017578 C-284.9666296 103.69278792 -275.34344244 60.30880644 -251.81640625 25.796875 C-236.85741735 5.42491864 -219.73155515 -11.05379785 -198 -24 C-197.43265137 -24.3412793 -196.86530273 -24.68255859 -196.28076172 -25.03417969 C-179.97762114 -34.69495763 -161.64586902 -40.84870646 -143 -44 C-142.31695801 -44.11569336 -141.63391602 -44.23138672 -140.93017578 -44.35058594 C-88.25941022 -52.80097775 -39.24184102 -34.58251953 0 0 Z M-230 22 C-256.51676412 53.3092435 -268.13547504 94.07862975 -264.77734375 134.69287109 C-261.05842434 168.30064101 -246.16593487 198.53002244 -223 223 C-222.18015625 223.88429688 -221.3603125 224.76859375 -220.515625 225.6796875 C-206.44978946 240.36974651 -189.35270286 250.61604188 -170.75 258.5625 C-169.53425293 259.08299927 -169.53425293 259.08299927 -168.29394531 259.61401367 C-167.53178711 259.92830322 -166.76962891 260.24259277 -165.984375 260.56640625 C-165.31116211 260.84427979 -164.63794922 261.12215332 -163.94433594 261.40844727 C-161.70092113 262.19404719 -161.70092113 262.19404719 -158 262 C-156.30214219 260.49098117 -156.30214219 260.49098117 -154.8125 258.4375 C-145.87096495 247.71523552 -135.36350085 243.34087521 -122 240 C-122 227.46 -122 214.92 -122 202 C-125.63 202.33 -129.26 202.66 -133 203 C-157.02915421 204.24016592 -180.30133088 201.14437548 -199.0625 184.75 C-200.72464446 183.18379835 -202.3707953 181.60043864 -204 180 C-204.75152344 179.27296875 -205.50304687 178.5459375 -206.27734375 177.796875 C-219.28997069 164.34973152 -231.79293584 141.69183412 -233.25 122.75 C-233 120 -233 120 -231 117 C-228.39990234 116.59594727 -228.39990234 116.59594727 -225.0859375 116.56640625 C-223.86165039 116.55496582 -222.63736328 116.54352539 -221.37597656 116.53173828 C-220.04230198 116.53968712 -218.70863965 116.54999587 -217.375 116.5625 C-216.70239136 116.56554138 -216.02978271 116.56858276 -215.33679199 116.57171631 C-185.18539878 116.77305968 -153.53162633 123.68922806 -131 145 C-128.62856226 147.6506383 -126.4502558 150.32726124 -124.35546875 153.19921875 C-123.90816406 153.79347656 -123.46085938 154.38773438 -123 155 C-122.67 155 -122.34 155 -122 155 C-121.76582444 151.00100204 -121.62497867 147.003781 -121.5 143 C-121.43296875 141.87464844 -121.3659375 140.74929688 -121.296875 139.58984375 C-121.09363898 133.24609622 -121.09363898 133.24609622 -123.640625 127.61328125 C-125.67328663 125.60736517 -127.78914119 123.80529205 -130 122 C-148.07036116 102.65436701 -153.93837959 78.87990903 -153.16601562 53.04736328 C-151.83961624 28.70013215 -136.07449311 5.66791965 -119.1171875 -10.83203125 C-117 -12 -117 -12 -114.015625 -11.91796875 C-102.00170318 -8.26088115 -92.92469031 9.81061491 -87.1875 20.375 C-76.51669635 40.65553735 -73.06429215 65.06835683 -79.609375 87.26171875 C-84.03534053 99.15960924 -90.05005497 112.20070812 -99.94921875 120.4609375 C-104.28083896 124.14260769 -107.53468779 127.15200867 -108.48583984 132.97363281 C-108.95498912 140.33186882 -108.60891273 147.65898215 -108 155 C-105.32507587 152.37848534 -102.79520457 149.8177667 -100.5625 146.8125 C-83.92291434 127.27907336 -55.14018286 119.77789244 -30.67504883 117.19628906 C-24.81175277 116.76605359 -18.93884548 116.7733304 -13.0625 116.75 C-11.72330616 116.72923982 -10.38411344 116.708407 -9.04492188 116.6875 C-7.78357422 116.68234375 -6.52222656 116.6771875 -5.22265625 116.671875 C-4.07547119 116.6625293 -2.92828613 116.65318359 -1.74633789 116.64355469 C-0.84004639 116.76118164 0.06624512 116.87880859 1 117 C3.28360314 120.42540472 3.22220544 122.0491292 2.66015625 126.03515625 C-2.93496218 151.16352838 -17.41100607 177.13100272 -39.25 191.375 C-61.09074337 203.93015787 -83.462925 204.23064318 -108 202 C-108 214.54 -108 227.08 -108 240 C-102.72 241.65 -97.44 243.3 -92 245 C-84.5044976 248.7908288 -75.89988434 254.20023133 -72 262 C-66.24569679 261.46171867 -61.67076567 259.84140766 -56.4375 257.4375 C-55.65101074 257.08034912 -54.86452148 256.72319824 -54.05419922 256.35522461 C-37.91842909 248.90203555 -23.92402082 239.2352799 -11 227 C-10.11570312 226.18015625 -9.23140625 225.3603125 -8.3203125 224.515625 C13.60269602 203.52418908 26.91500506 175.45528034 33 146 C33.36931641 144.27136719 33.36931641 144.27136719 33.74609375 142.5078125 C40.39577038 104.99446432 30.22490459 64.94477203 8.8125 33.8203125 C3.94071054 27.1723498 -1.33648161 20.98232572 -7 15 C-7.81984375 14.11570313 -8.6396875 13.23140625 -9.484375 12.3203125 C-30.48127567 -9.60840329 -58.54225978 -22.90237168 -88 -29 C-89.14082031 -29.24621094 -90.28164063 -29.49242188 -91.45703125 -29.74609375 C-143.8283294 -39.10964274 -195.22461314 -16.51292844 -230 22 Z M-116 7 C-125.95879291 17.02283659 -132.65460686 29.65212571 -137 43 C-137.23332031 43.6909375 -137.46664062 44.381875 -137.70703125 45.09375 C-142.72187071 62.12255738 -139.23348344 80.41576258 -131.0625 95.8125 C-128.62116689 100.08793108 -126.02287609 104.11344503 -123 108 C-122.67 108 -122.34 108 -122 108 C-121.67 90.51 -121.34 73.02 -121 55 C-113 54 -113 54 -109 55 C-108.505 81.235 -108.505 81.235 -108 108 C-96.77443677 96.77443677 -90.57378285 79.95565685 -89.93359375 64.203125 C-90.35824217 43.72008365 -98.5084757 22.74858016 -113 8 C-113.99 7.67 -114.98 7.34 -116 7 Z M-216 130 C-215.41310197 135.26554996 -213.69136539 139.46329627 -211.4375 144.1875 C-211.08107422 144.93708984 -210.72464844 145.68667969 -210.35742188 146.45898438 C-207.22900825 152.8532639 -203.52698166 158.49661053 -199 164 C-198.36320312 164.79921875 -197.72640625 165.5984375 -197.0703125 166.421875 C-186.48386811 179.09159559 -171.30744741 186.83073639 -155 189 C-144.4428529 189.77284288 -134.27790919 189.61391383 -124 187 C-127.94400445 171.16157069 -137.01155922 156.7786895 -150.61328125 147.42578125 C-171.12571214 135.17203776 -192.35839457 131.15324905 -216 130 Z M-15 130 C-44.38107753 132.03541117 -71.03788411 137.04348743 -92.16015625 159.2734375 C-98.68813799 166.8453932 -104.49393183 176.99131913 -106 187 C-87.22274025 191.77549841 -66.94306155 190.03909162 -49.8046875 180.75 C-33.68321393 170.690919 -18.55305028 151.94531937 -14 133 C-14.495 131.515 -14.495 131.515 -15 130 Z M-140 263 C-141.28394949 265.0792738 -141.28394949 265.0792738 -142 267 C-124.63368215 270.53641382 -105.36631785 270.53641382 -88 267 C-90.19777059 261.49963361 -94.8867035 259.49719131 -100 257 C-114.0060618 251.78889264 -128.07344995 253.45409204 -140 263 Z " fill="#000000" transform="translate(371,137)"/>
<path d="M0 0 C1.15129395 -0.00945648 2.30258789 -0.01891296 3.48876953 -0.02865601 C5.3544458 -0.01954697 5.3544458 -0.01954697 7.2578125 -0.01025391 C9.17182861 -0.01455917 9.17182861 -0.01455917 11.12451172 -0.01895142 C13.82485366 -0.02099475 16.52438331 -0.01695032 19.22460938 -0.00292969 C22.6850048 0.0141627 26.14470221 0.00432052 29.60507202 -0.01364708 C32.90601056 -0.02709657 36.20686486 -0.01767885 39.5078125 -0.01025391 C40.75159668 -0.0163266 41.99538086 -0.02239929 43.27685547 -0.02865601 C44.42814941 -0.01919952 45.57944336 -0.00974304 46.765625 0 C47.78027832 0.00238678 48.79493164 0.00477356 49.84033203 0.00723267 C52.3828125 0.38818359 52.3828125 0.38818359 54.13227844 1.68759155 C56.29906683 4.63419109 57.44482702 8.05828117 58.73828125 11.45068359 C59.04478104 12.23838135 59.35128082 13.0260791 59.66706848 13.83764648 C60.31205394 15.50047791 60.95313675 17.16482766 61.59057617 18.83056641 C62.56808127 21.38235892 63.55939434 23.9284568 64.55273438 26.47412109 C65.17790944 28.09098941 65.80228579 29.70816684 66.42578125 31.32568359 C66.722603 32.08824463 67.01942474 32.85080566 67.32524109 33.63647461 C68.48687093 36.68786855 69.3828125 39.09416752 69.3828125 42.38818359 C70.91035156 42.71689453 70.91035156 42.71689453 72.46875 43.05224609 C88.22048343 46.53420822 102.68031554 51.35818155 117.2578125 58.32568359 C118.34320313 58.84235596 119.42859375 59.35902832 120.546875 59.89135742 C129.23700139 64.12070388 129.23700139 64.12070388 133.046875 66.96630859 C135.9013422 69.08946601 137.92804698 70.52923777 141.3828125 71.38818359 C146.68628745 70.23215755 151.19053999 68.09917752 155.99121094 65.61425781 C159.40400301 63.86466187 162.87574952 62.25606593 166.36328125 60.66162109 C168.09028975 59.87081957 169.80958567 59.06288973 171.51953125 58.23583984 C172.31230469 57.86458984 173.10507812 57.49333984 173.921875 57.11083984 C174.61490723 56.77834229 175.30793945 56.44584473 176.02197266 56.10327148 C179.58129596 55.02516828 181.64661595 54.77273091 185.3828125 55.38818359 C188.82391202 57.77594741 191.66806029 60.69293131 194.59765625 63.67333984 C195.45339737 64.52238388 196.30913849 65.37142792 197.19081116 66.24620056 C198.99365565 68.04428595 200.78770755 69.85122437 202.57348633 71.66625977 C205.310648 74.44088681 208.08310471 77.17622683 210.86132812 79.90966797 C212.60901967 81.66198523 214.35453849 83.41647274 216.09765625 85.17333984 C216.92877426 85.99028824 217.75989227 86.80723663 218.61619568 87.64894104 C224.16681591 93.36109204 224.16681591 93.36109204 225.13256836 97.95336914 C224.20313635 102.21132388 222.65749644 105.70072753 220.671875 109.56005859 C219.91346029 111.12684657 219.1570092 112.6945863 218.40234375 114.26318359 C217.21027553 116.70724271 216.005958 119.14180363 214.76611328 121.56201172 C209.69185448 130.65884255 209.69185448 130.65884255 209.05395508 140.61083984 C210.60884508 143.45005142 212.37824055 145.850738 214.3828125 148.38818359 C215.3389316 150.1057047 216.25531615 151.84600122 217.12890625 153.60693359 C217.79092041 154.89603638 217.79092041 154.89603638 218.46630859 156.21118164 C237.3828125 193.61101311 237.3828125 193.61101311 237.3828125 210.38818359 C238.37837158 210.54794678 238.37837158 210.54794678 239.39404297 210.7109375 C243.12775491 211.55698528 246.63363077 212.86489122 250.203125 214.22412109 C250.94360077 214.50413971 251.68407654 214.78415833 252.44699097 215.07266235 C254.00598545 215.66401926 255.56416916 216.25751752 257.12158203 216.85302734 C259.50360115 217.7615773 261.89024376 218.65714501 264.27734375 219.55224609 C265.79457114 220.12958252 267.31150854 220.70768171 268.828125 221.28662109 C269.54066437 221.55235931 270.25320374 221.81809753 270.98733521 222.09188843 C277.22655061 224.50379487 277.22655061 224.50379487 279.3828125 227.38818359 C279.76376343 229.93066406 279.76376343 229.93066406 279.77099609 233.00537109 C279.78045258 234.15666504 279.78990906 235.30795898 279.7996521 236.49414062 C279.79357941 237.7379248 279.78750671 238.98170898 279.78125 240.26318359 C279.78412018 241.53919434 279.78699036 242.81520508 279.78994751 244.12988281 C279.79199085 246.83022475 279.78794642 249.5297544 279.77392578 252.22998047 C279.75683339 255.69037589 279.76667557 259.1500733 279.78464317 262.61044312 C279.79809266 265.91138165 279.78867494 269.21223595 279.78125 272.51318359 C279.78732269 273.75696777 279.79339539 275.00075195 279.7996521 276.28222656 C279.79019562 277.43352051 279.78073914 278.58481445 279.77099609 279.77099609 C279.76741592 281.29297607 279.76741592 281.29297607 279.76376343 282.84570312 C279.3828125 285.38818359 279.3828125 285.38818359 278.08340454 287.13764954 C275.136805 289.30443792 271.71271493 290.45019811 268.3203125 291.74365234 C267.53261475 292.05015213 266.74491699 292.35665192 265.93334961 292.67243958 C264.27051819 293.31742503 262.60616843 293.95850785 260.94042969 294.59594727 C258.38863717 295.57345236 255.8425393 296.56476543 253.296875 297.55810547 C251.68000668 298.18328054 250.06282925 298.80765688 248.4453125 299.43115234 C247.68275146 299.72797409 246.92019043 300.02479584 246.13452148 300.33061218 C243.08312754 301.49224203 240.67682857 302.38818359 237.3828125 302.38818359 C237.16367187 303.40654297 236.94453125 304.42490234 236.71875 305.47412109 C233.23678787 321.22585453 228.41281455 335.68568663 221.4453125 350.26318359 C220.67030396 351.89126953 220.67030396 351.89126953 219.87963867 353.55224609 C215.65029222 362.24237248 215.65029222 362.24237248 212.8046875 366.05224609 C210.68153008 368.90671329 209.24175832 370.93341807 208.3828125 374.38818359 C209.53883855 379.69165854 211.67181857 384.19591108 214.15673828 388.99658203 C215.90633422 392.40937411 217.51493016 395.88112062 219.109375 399.36865234 C219.90017653 401.09566084 220.70810636 402.81495676 221.53515625 404.52490234 C221.90640625 405.31767578 222.27765625 406.11044922 222.66015625 406.92724609 C222.99265381 407.62027832 223.32515137 408.31331055 223.66772461 409.02734375 C224.74582781 412.58666706 224.99826518 414.65198705 224.3828125 418.38818359 C221.99504869 421.82928311 219.07806479 424.67343138 216.09765625 427.60302734 C215.24861221 428.45876846 214.39956818 429.31450958 213.52479553 430.19618225 C211.72671015 431.99902674 209.91977172 433.79307865 208.10473633 435.57885742 C205.33010929 438.31601909 202.59476926 441.08847581 199.86132812 443.86669922 C198.10901086 445.61439076 196.35452336 447.35990959 194.59765625 449.10302734 C193.78070786 449.93414536 192.96375946 450.76526337 192.12205505 451.62156677 C186.40990406 457.17218701 186.40990406 457.17218701 181.81762695 458.13793945 C177.55967222 457.20850744 174.07026856 455.66286753 170.2109375 453.67724609 C168.64414953 452.91883138 167.0764098 452.1623803 165.5078125 451.40771484 C163.06375339 450.21564662 160.62919246 449.01132909 158.20898438 447.77148438 C149.11215354 442.69722558 149.11215354 442.69722558 139.16015625 442.05932617 C136.32094468 443.61421617 133.9202581 445.38361165 131.3828125 447.38818359 C129.66529139 448.34430269 127.92499487 449.26068724 126.1640625 450.13427734 C125.30466064 450.57562012 124.44525879 451.01696289 123.55981445 451.47167969 C86.15998298 470.38818359 86.15998298 470.38818359 69.3828125 470.38818359 C69.22304932 471.38374268 69.22304932 471.38374268 69.06005859 472.39941406 C68.21401081 476.133126 66.90610487 479.63900187 65.546875 483.20849609 C65.12684708 484.31920975 65.12684708 484.31920975 64.69833374 485.45236206 C64.10697683 487.01135654 63.51347857 488.56954026 62.91796875 490.12695312 C62.00941879 492.50897224 61.11385109 494.89561486 60.21875 497.28271484 C59.64141358 498.79994223 59.06331439 500.31687964 58.484375 501.83349609 C58.21863678 502.54603546 57.95289856 503.25857483 57.67910767 503.9927063 C55.26720123 510.2319217 55.26720123 510.2319217 52.3828125 512.38818359 C49.84033203 512.76913452 49.84033203 512.76913452 46.765625 512.77636719 C45.61433105 512.78582367 44.46303711 512.79528015 43.27685547 512.80502319 C42.03307129 512.7989505 40.78928711 512.79287781 39.5078125 512.78662109 C38.23180176 512.78949127 36.95579102 512.79236145 35.64111328 512.7953186 C32.94077134 512.79736194 30.24124169 512.79331751 27.54101562 512.77929688 C24.0806202 512.76220448 20.62092279 512.77204667 17.16055298 512.79001427 C13.85961444 512.80346375 10.55876014 512.79404604 7.2578125 512.78662109 C6.01402832 512.79269379 4.77024414 512.79876648 3.48876953 512.80502319 C2.33747559 512.79556671 1.18618164 512.78611023 0 512.77636719 C-1.01465332 512.77398041 -2.02930664 512.77159363 -3.07470703 512.76913452 C-5.6171875 512.38818359 -5.6171875 512.38818359 -7.36665344 511.09550476 C-8.66975191 509.31641879 -9.46846461 507.74535268 -10.24291992 505.68286133 C-10.66301582 504.58173256 -10.66301582 504.58173256 -11.09159851 503.45835876 C-11.38234756 502.6707869 -11.67309662 501.88321503 -11.97265625 501.07177734 C-12.43240593 499.85337914 -12.43240593 499.85337914 -12.90144348 498.61036682 C-13.54645566 496.89622671 -14.18753738 495.18060316 -14.82495117 493.46362305 C-15.80347639 490.82894451 -16.79421423 488.1991167 -17.78710938 485.56982422 C-18.41217812 483.90407852 -19.03655117 482.23807155 -19.66015625 480.57177734 C-19.956978 479.78218124 -20.25379974 478.99258514 -20.55961609 478.17906189 C-22.6171875 472.62138696 -22.6171875 472.62138696 -22.6171875 470.38818359 C-23.61234375 470.18064453 -24.6075 469.97310547 -25.6328125 469.75927734 C-48.03073892 464.90530495 -70.80420693 456.75867459 -89.8671875 443.85693359 C-93.05265235 441.87382353 -93.05265235 441.87382353 -96.66748047 441.42749023 C-98.77191912 442.06644162 -100.55544969 442.90969303 -102.4921875 443.95068359 C-103.19907715 444.28334229 -103.9059668 444.61600098 -104.63427734 444.95874023 C-106.16253123 445.68071989 -107.68209968 446.42131533 -109.19335938 447.17822266 C-112.6306491 448.89409775 -116.10989894 450.51174135 -119.60205078 452.11254883 C-121.32699311 452.90515457 -123.04461399 453.71394692 -124.75341797 454.54077148 C-125.54635254 454.91194092 -126.33928711 455.28311035 -127.15625 455.66552734 C-127.84928223 455.9980249 -128.54231445 456.33052246 -129.25634766 456.6730957 C-132.81567096 457.75119891 -134.88099095 458.00363628 -138.6171875 457.38818359 C-142.05828702 455.00041978 -144.90243529 452.08343588 -147.83203125 449.10302734 C-149.11564293 447.82946129 -149.11564293 447.82946129 -150.42518616 446.53016663 C-152.22803065 444.73208124 -154.02208255 442.92514281 -155.80786133 441.11010742 C-158.545023 438.33548038 -161.31747971 435.60014036 -164.09570312 432.86669922 C-165.84339467 431.11438195 -167.58891349 429.35989445 -169.33203125 427.60302734 C-170.16314926 426.78607895 -170.99426727 425.96913055 -171.85057068 425.12742615 C-177.40119091 419.41527515 -177.40119091 419.41527515 -178.36694336 414.82299805 C-177.43751135 410.56504331 -175.89187144 407.07563966 -173.90625 403.21630859 C-173.14783529 401.64952062 -172.3913842 400.08178089 -171.63671875 398.51318359 C-170.44465053 396.06912448 -169.240333 393.63456356 -168.00048828 391.21435547 C-162.92622948 382.11752464 -162.92622948 382.11752464 -162.28833008 372.16552734 C-163.84322008 369.32631577 -165.61261555 366.92562919 -167.6171875 364.38818359 C-168.5733066 362.67066248 -169.48969115 360.93036597 -170.36328125 359.16943359 C-170.80462402 358.31003174 -171.2459668 357.45062988 -171.70068359 356.56518555 C-190.6171875 319.16535408 -190.6171875 319.16535408 -190.6171875 302.38818359 C-191.16576416 302.23542969 -191.71434082 302.08267578 -192.27954102 301.92529297 C-199.51447326 299.83864652 -206.55837132 297.29133908 -213.59692383 294.62695312 C-215.57264485 293.88140732 -217.55275613 293.1484122 -219.53320312 292.41552734 C-220.79976498 291.93842082 -222.06605165 291.46058298 -223.33203125 290.98193359 C-224.46761475 290.55589844 -225.60319824 290.12986328 -226.77319336 289.69091797 C-229.52902928 288.4285658 -230.8141429 287.75783514 -232.6171875 285.38818359 C-232.99813843 282.84570312 -232.99813843 282.84570312 -233.00537109 279.77099609 C-233.01482758 278.61970215 -233.02428406 277.4684082 -233.0340271 276.28222656 C-233.02795441 275.03844238 -233.02188171 273.7946582 -233.015625 272.51318359 C-233.01849518 271.23717285 -233.02136536 269.96116211 -233.02432251 268.64648438 C-233.02636585 265.94614243 -233.02232142 263.24661278 -233.00830078 260.54638672 C-232.99120839 257.0859913 -233.00105057 253.62629389 -233.01901817 250.16592407 C-233.03246766 246.86498554 -233.02304994 243.56413123 -233.015625 240.26318359 C-233.02169769 239.01939941 -233.02777039 237.77561523 -233.0340271 236.49414062 C-233.01984238 234.76719971 -233.01984238 234.76719971 -233.00537109 233.00537109 C-233.00298431 231.99071777 -233.00059753 230.97606445 -232.99813843 229.93066406 C-232.6171875 227.38818359 -232.6171875 227.38818359 -231.32450867 225.63871765 C-229.5454227 224.33561918 -227.97435659 223.53690648 -225.91186523 222.76245117 C-224.81073647 222.34235527 -224.81073647 222.34235527 -223.68736267 221.91377258 C-222.8997908 221.62302353 -222.11221893 221.33227448 -221.30078125 221.03271484 C-220.08238304 220.57296516 -220.08238304 220.57296516 -218.83937073 220.10392761 C-217.12523061 219.45891544 -215.40960706 218.81783371 -213.69262695 218.18041992 C-211.05794841 217.2018947 -208.42812061 216.21115686 -205.79882812 215.21826172 C-204.13308242 214.59319297 -202.46707546 213.96881993 -200.80078125 213.34521484 C-200.01118515 213.0483931 -199.22158905 212.75157135 -198.4080658 212.445755 C-192.85039086 210.38818359 -192.85039086 210.38818359 -190.6171875 210.38818359 C-190.39804688 209.36982422 -190.17890625 208.35146484 -189.953125 207.30224609 C-186.47116287 191.55051266 -181.64718955 177.09068055 -174.6796875 162.51318359 C-174.16301514 161.42779297 -173.64634277 160.34240234 -173.11401367 159.22412109 C-168.88466722 150.53399471 -168.88466722 150.53399471 -166.0390625 146.72412109 C-163.91590508 143.8696539 -162.47613332 141.84294912 -161.6171875 138.38818359 C-162.77321355 133.08470865 -164.90619357 128.58045611 -167.39111328 123.77978516 C-169.14070922 120.36699308 -170.74930516 116.89524657 -172.34375 113.40771484 C-173.13455153 111.68070634 -173.94248136 109.96141043 -174.76953125 108.25146484 C-175.14078125 107.45869141 -175.51203125 106.66591797 -175.89453125 105.84912109 C-176.22702881 105.15608887 -176.55952637 104.46305664 -176.90209961 103.74902344 C-177.98020281 100.18970013 -178.23264018 98.12438014 -177.6171875 94.38818359 C-175.22942369 90.94708407 -172.31243979 88.1029358 -169.33203125 85.17333984 C-168.48298721 84.31759872 -167.63394318 83.4618576 -166.75917053 82.58018494 C-164.96108515 80.77734045 -163.15414672 78.98328854 -161.33911133 77.19750977 C-158.56448429 74.4603481 -155.82914426 71.68789138 -153.09570312 68.90966797 C-151.34338586 67.16197642 -149.58889836 65.4164576 -147.83203125 63.67333984 C-147.01508286 62.84222183 -146.19813446 62.01110382 -145.35643005 61.15480042 C-139.64314001 55.60307334 -139.64314001 55.60307334 -135.05859375 54.64282227 C-130.79028456 55.56727941 -127.23312131 57.08531467 -123.33984375 59.02880859 C-121.75895492 59.77724322 -120.17755878 60.52460706 -118.59570312 61.27099609 C-116.12953453 62.45255328 -113.66909771 63.64341182 -111.21704102 64.85400391 C-108.83293765 66.02400484 -106.43273986 67.15338045 -104.02734375 68.27880859 C-103.30313736 68.6494342 -102.57893097 69.02005981 -101.83277893 69.4019165 C-98.79090689 70.80013813 -96.77016041 71.72081608 -93.47143555 70.76913452 C-91.42173106 69.75633411 -89.53212168 68.63475506 -87.6171875 67.38818359 C-86.81522949 66.96682129 -86.01327148 66.54545898 -85.18701172 66.11132812 C-84.5220166 65.75151855 -83.85702148 65.39170898 -83.171875 65.02099609 C-63.87009588 54.65844943 -44.25707231 46.35433611 -22.6171875 42.38818359 C-22.46443359 41.83960693 -22.31167969 41.29103027 -22.15429688 40.72583008 C-20.06765043 33.49089783 -17.52034298 26.44699978 -14.85595703 19.40844727 C-14.11041123 17.43272624 -13.37741611 15.45261497 -12.64453125 13.47216797 C-12.16742472 12.20560611 -11.68958689 10.93931944 -11.2109375 9.67333984 C-10.78490234 8.53775635 -10.35886719 7.40217285 -9.91992188 6.23217773 C-7.54129079 1.03939783 -5.7066311 0.01342377 0 0 Z M3.3828125 14.38818359 C-1.13665418 26.05483869 -1.13665418 26.05483869 -5.65185547 37.72314453 C-6.2208746 39.18967566 -6.79003806 40.65615081 -7.359375 42.12255859 C-7.65142822 42.87939941 -7.94348145 43.63624023 -8.24438477 44.41601562 C-11.36339028 52.43783237 -11.36339028 52.43783237 -12.6171875 54.38818359 C-15.1983788 55.33237234 -17.58145015 56.0190147 -20.2421875 56.63818359 C-21.88027962 57.05865016 -23.5169353 57.48474068 -25.15234375 57.91552734 C-26.03293457 58.14739746 -26.91352539 58.37926758 -27.82080078 58.61816406 C-49.3285994 64.54060136 -71.05494493 72.66630089 -89.0390625 86.21240234 C-93.17223136 88.09737784 -97.41006871 87.1397225 -101.60321045 85.71192932 C-103.63640887 84.86360807 -105.62687483 83.95375987 -107.6171875 83.00927734 C-108.3383374 82.67775162 -109.0594873 82.34622589 -109.80249023 82.00465393 C-112.0789773 80.95526422 -114.3480292 79.89081348 -116.6171875 78.82568359 C-118.17010462 78.10657248 -119.72348628 77.38846365 -121.27734375 76.67138672 C-125.06275823 74.92185466 -128.84158745 73.15879011 -132.6171875 71.38818359 C-139.17095847 76.77459283 -145.08965385 82.74703486 -151.0546875 88.76318359 C-152.08244733 89.79596954 -153.11044035 90.8285235 -154.13867188 91.86083984 C-156.63420348 94.36728646 -159.12656832 96.87685439 -161.6171875 99.38818359 C-161.34567871 100.01160645 -161.07416992 100.6350293 -160.79443359 101.27734375 C-160.41367676 102.15181152 -160.03291992 103.0262793 -159.640625 103.92724609 C-159.21950439 104.89404297 -158.79838379 105.86083984 -158.36450195 106.85693359 C-157.44666483 108.96790999 -156.53115126 111.07989811 -155.61791992 113.19287109 C-153.64905871 117.74518376 -151.68116169 122.29261748 -149.58203125 126.78662109 C-149.03675781 127.97513672 -148.49148437 129.16365234 -147.9296875 130.38818359 C-147.45144531 131.39880859 -146.97320312 132.40943359 -146.48046875 133.45068359 C-145.05112462 138.3143342 -145.84103584 141.9191085 -148.18359375 146.35302734 C-148.84230469 147.33400391 -149.50101562 148.31498047 -150.1796875 149.32568359 C-154.96568671 156.71324161 -158.86236199 164.43525457 -162.6171875 172.38818359 C-163.1534375 173.51869141 -163.6896875 174.64919922 -164.2421875 175.81396484 C-167.2799034 182.54598627 -169.6264935 189.32041436 -171.7421875 196.38818359 C-172.00080566 197.24138184 -172.25942383 198.09458008 -172.52587891 198.97363281 C-173.66690485 202.82155288 -174.70656856 206.61107402 -175.390625 210.56787109 C-177.09706868 219.24688032 -177.09706868 219.24688032 -181.0625 222.22412109 C-184.02397277 223.5411397 -186.98256666 224.5913297 -190.07617188 225.55126953 C-194.30354525 226.9436058 -198.42511604 228.60728293 -202.56738281 230.23242188 C-207.90566453 232.31447129 -213.2635062 234.34605774 -218.6171875 236.38818359 C-218.6171875 249.58818359 -218.6171875 262.78818359 -218.6171875 276.38818359 C-206.9505324 280.90765027 -206.9505324 280.90765027 -195.28222656 285.42285156 C-193.81569543 285.9918707 -192.34922028 286.56103416 -190.8828125 287.13037109 C-190.12597168 287.42242432 -189.36913086 287.71447754 -188.58935547 288.01538086 C-180.56753873 291.13438638 -180.56753873 291.13438638 -178.6171875 292.38818359 C-177.67299094 294.96939626 -176.98650497 297.35246524 -176.3671875 300.01318359 C-175.94532388 301.6538575 -175.51793942 303.29311872 -175.0859375 304.93115234 C-174.85390625 305.81206543 -174.621875 306.69297852 -174.3828125 307.60058594 C-168.74090665 328.14244851 -161.16175124 347.6815452 -148.9831543 365.25292969 C-148.52980713 365.94080566 -148.07645996 366.62868164 -147.609375 367.33740234 C-147.20058105 367.9286792 -146.79178711 368.51995605 -146.37060547 369.12915039 C-144.27055012 375.42591388 -147.31767042 381.74392898 -149.99609375 387.38818359 C-150.32761948 388.1093335 -150.6591452 388.8304834 -151.00071716 389.57348633 C-152.05010688 391.84997339 -153.11455762 394.1190253 -154.1796875 396.38818359 C-154.89879861 397.94110071 -155.61690744 399.49448237 -156.33398438 401.04833984 C-158.08351644 404.83375432 -159.84658098 408.61258354 -161.6171875 412.38818359 C-156.23077826 418.94195456 -150.25833623 424.86064995 -144.2421875 430.82568359 C-143.20940155 431.85344343 -142.17684759 432.88143645 -141.14453125 433.90966797 C-138.63808463 436.40519957 -136.1285167 438.89756441 -133.6171875 441.38818359 C-132.99376465 441.1166748 -132.3703418 440.84516602 -131.72802734 440.56542969 C-130.85355957 440.18467285 -129.9790918 439.80391602 -129.078125 439.41162109 C-128.11132812 438.99050049 -127.14453125 438.56937988 -126.1484375 438.13549805 C-124.03746111 437.21766093 -121.92547299 436.30214735 -119.8125 435.38891602 C-115.26018734 433.4200548 -110.71275362 431.45215779 -106.21875 429.35302734 C-104.43597656 428.53511719 -104.43597656 428.53511719 -102.6171875 427.70068359 C-101.6065625 427.22244141 -100.5959375 426.74419922 -99.5546875 426.25146484 C-94.6910369 424.82212072 -91.08626259 425.61203193 -86.65234375 427.95458984 C-85.67136719 428.61330078 -84.69039062 429.27201172 -83.6796875 429.95068359 C-76.29212949 434.7366828 -68.57011653 438.63335809 -60.6171875 442.38818359 C-59.48667969 442.92443359 -58.35617188 443.46068359 -57.19140625 444.01318359 C-50.45938482 447.05089949 -43.68495674 449.3974896 -36.6171875 451.51318359 C-35.76398926 451.77180176 -34.91079102 452.03041992 -34.03173828 452.296875 C-30.18381821 453.43790094 -26.39429707 454.47756465 -22.4375 455.16162109 C-13.75849077 456.86806477 -13.75849077 456.86806477 -10.78125 460.83349609 C-9.4642314 463.79496886 -8.41404139 466.75356275 -7.45410156 469.84716797 C-6.06176529 474.07454134 -4.39808817 478.19611213 -2.77294922 482.33837891 C-0.69089981 487.67666062 1.34068664 493.0345023 3.3828125 498.38818359 C16.5828125 498.38818359 29.7828125 498.38818359 43.3828125 498.38818359 C47.90227918 486.7215285 47.90227918 486.7215285 52.41748047 475.05322266 C52.9864996 473.58669152 53.55566306 472.12021638 54.125 470.65380859 C54.41705322 469.89696777 54.70910645 469.14012695 55.01000977 468.36035156 C58.12901528 460.33853482 58.12901528 460.33853482 59.3828125 458.38818359 C61.96402516 457.44398704 64.34709414 456.75750106 67.0078125 456.13818359 C68.64848641 455.71631997 70.28774763 455.28893551 71.92578125 454.85693359 C72.80669434 454.62490234 73.68760742 454.39287109 74.59521484 454.15380859 C95.13707742 448.51190274 114.67617411 440.93274733 132.24755859 428.75415039 C132.93543457 428.30080322 133.62331055 427.84745605 134.33203125 427.38037109 C134.92330811 426.97157715 135.51458496 426.5627832 136.1237793 426.14160156 C142.42054279 424.04154621 148.73855789 427.08866652 154.3828125 429.76708984 C155.1039624 430.09861557 155.8251123 430.4301413 156.56811523 430.77171326 C158.8446023 431.82110297 161.1136542 432.88555371 163.3828125 433.95068359 C164.93572962 434.6697947 166.48911128 435.38790354 168.04296875 436.10498047 C171.82838323 437.85451253 175.60721245 439.61757707 179.3828125 441.38818359 C185.93658347 436.00177436 191.85527885 430.02933232 197.8203125 424.01318359 C198.84807233 422.98039764 199.87606535 421.94784369 200.90429688 420.91552734 C203.39982848 418.40908073 205.89219332 415.8995128 208.3828125 413.38818359 C208.11130371 412.76476074 207.83979492 412.14133789 207.56005859 411.49902344 C207.17930176 410.62455566 206.79854492 409.75008789 206.40625 408.84912109 C205.98512939 407.88232422 205.56400879 406.91552734 205.13012695 405.91943359 C204.21228983 403.8084572 203.29677626 401.69646908 202.38354492 399.58349609 C200.41468371 395.03118343 198.44678669 390.48374971 196.34765625 385.98974609 C195.52974609 384.20697266 195.52974609 384.20697266 194.6953125 382.38818359 C194.21707031 381.37755859 193.73882812 380.36693359 193.24609375 379.32568359 C191.81674962 374.46203299 192.60666084 370.85725869 194.94921875 366.42333984 C195.60792969 365.44236328 196.26664062 364.46138672 196.9453125 363.45068359 C201.73131171 356.06312558 205.62798699 348.34111262 209.3828125 340.38818359 C209.9190625 339.25767578 210.4553125 338.12716797 211.0078125 336.96240234 C214.0455284 330.23038091 216.3921185 323.45595283 218.5078125 316.38818359 C218.89573975 315.10838623 218.89573975 315.10838623 219.29150391 313.80273438 C220.43252985 309.9548143 221.47219356 306.16529317 222.15625 302.20849609 C223.86269368 293.52948686 223.86269368 293.52948686 227.828125 290.55224609 C230.78959777 289.23522749 233.74819166 288.18503749 236.84179688 287.22509766 C241.06917025 285.83276138 245.19074104 284.16908426 249.33300781 282.54394531 C254.67128953 280.4618959 260.0291312 278.43030945 265.3828125 276.38818359 C265.3828125 263.18818359 265.3828125 249.98818359 265.3828125 236.38818359 C253.7161574 231.86871692 253.7161574 231.86871692 242.04785156 227.35351562 C240.58132043 226.78449649 239.11484528 226.21533303 237.6484375 225.64599609 C236.89159668 225.35394287 236.13475586 225.06188965 235.35498047 224.76098633 C227.33316373 221.64198081 227.33316373 221.64198081 225.3828125 220.38818359 C224.43861594 217.80697093 223.75212997 215.42390195 223.1328125 212.76318359 C222.71094888 211.12250968 222.28356442 209.48324846 221.8515625 207.84521484 C221.61953125 206.96430176 221.3875 206.08338867 221.1484375 205.17578125 C215.50653165 184.63391868 207.92737624 165.09482199 195.7487793 147.5234375 C195.29543213 146.83556152 194.84208496 146.14768555 194.375 145.43896484 C193.96620605 144.84768799 193.55741211 144.25641113 193.13623047 143.6472168 C191.03617512 137.3504533 194.08329542 131.0324382 196.76171875 125.38818359 C197.09324448 124.66703369 197.4247702 123.94588379 197.76634216 123.20288086 C198.81573188 120.9263938 199.88018262 118.65734189 200.9453125 116.38818359 C201.66442361 114.83526647 202.38253244 113.28188481 203.09960938 111.72802734 C204.84914144 107.94261287 206.61220598 104.16378365 208.3828125 100.38818359 C202.99640326 93.83441263 197.02396123 87.91571724 191.0078125 81.95068359 C189.97502655 80.92292376 188.94247259 79.89493074 187.91015625 78.86669922 C185.40370963 76.37116761 182.8941417 73.87880277 180.3828125 71.38818359 C179.44767822 71.79544678 179.44767822 71.79544678 178.49365234 72.2109375 C177.61918457 72.59169434 176.7447168 72.97245117 175.84375 73.36474609 C174.87695312 73.7858667 173.91015625 74.2069873 172.9140625 74.64086914 C170.80308611 75.55870626 168.69109799 76.47421983 166.578125 77.38745117 C162.02581234 79.35631238 157.47837862 81.3242094 152.984375 83.42333984 C151.79585938 83.96861328 150.60734375 84.51388672 149.3828125 85.07568359 C147.866875 85.79304688 147.866875 85.79304688 146.3203125 86.52490234 C141.4566619 87.95424647 137.85188759 87.16433526 133.41796875 84.82177734 C132.43699219 84.16306641 131.45601563 83.50435547 130.4453125 82.82568359 C116.09241692 73.52721897 100.21802115 66.43997955 83.9453125 61.26318359 C83.14158203 61.00456543 82.33785156 60.74594727 81.50976562 60.47949219 C77.70453666 59.28978135 73.98350792 58.26149159 70.046875 57.61474609 C60.63495931 55.9944211 60.63495931 55.9944211 57.4765625 51.94287109 C56.16655249 48.98079291 55.13788748 46.02805027 54.20361328 42.92919922 C52.83588464 38.69501728 51.16728121 34.57819485 49.54077148 30.43798828 C47.45603338 25.10047437 45.42503185 19.74210999 43.3828125 14.38818359 C30.1828125 14.38818359 16.9828125 14.38818359 3.3828125 14.38818359 Z " fill="#000000" transform="translate(232.6171875,-0.38818359375)"/>
</svg>
