<?xml version="1.0" encoding="UTF-8"?>
<svg version="1.1" xmlns="http://www.w3.org/2000/svg" width="512" height="512">
<path d="M0 0 C2.67597959 1.29416917 4.83684303 2.52332965 7.25 4.1875 C8.26429077 4.8537439 8.26429077 4.8537439 9.29907227 5.53344727 C10.76625272 6.49867573 12.22842282 7.47155421 13.68603516 8.45117188 C16.89925271 10.60190538 20.14873266 12.6950092 23.39624023 14.79345703 C25.96085678 16.45261044 28.5202403 18.11955224 31.078125 19.7890625 C42.45128263 27.21112702 53.86935324 34.56134039 65.3125 41.875 C75.48817292 48.3790858 85.62628148 54.93845184 95.74462891 61.53125 C106.23512668 68.36290562 116.76406614 75.13317835 127.3125 81.875 C137.48817292 88.3790858 147.62628148 94.93845184 157.74462891 101.53125 C168.23512668 108.36290562 178.76406614 115.13317835 189.3125 121.875 C198.68358035 127.86480639 208.02598495 133.89640265 217.34375 139.96875 C221.16485002 142.45883352 224.99383495 144.93643386 228.82617188 147.40917969 C232.22097026 149.60070048 235.61097776 151.79956122 239 154 C239.62003906 154.40154297 240.24007813 154.80308594 240.87890625 155.21679688 C242.58928949 156.32688362 244.29479987 157.44446784 246 158.5625 C247.423125 159.49255859 247.423125 159.49255859 248.875 160.44140625 C251 162 251 162 252 164 C252.09788936 165.78368293 252.131005 167.57105585 252.13422108 169.35741997 C252.13867892 170.50148902 252.14313676 171.64555807 252.14772969 172.82429588 C252.14745315 174.7258112 252.14745315 174.7258112 252.14717102 176.66574097 C252.15046882 178.01755191 252.1541942 179.36936186 252.1583125 180.72117054 C252.16835001 184.44864709 252.17205209 188.17610754 252.17470181 191.90359569 C252.17859961 195.91867812 252.18817821 199.93374775 252.19691467 203.94882202 C252.21669257 213.65072003 252.22674637 223.3526191 252.23564246 233.05453223 C252.24002266 237.6195884 252.24539011 242.1846434 252.25063133 246.74969864 C252.26764392 261.91802416 252.28213958 277.08634894 252.28938007 292.25468254 C252.29129007 296.19241207 252.29321039 300.13014159 252.29516602 304.06787109 C252.29564976 305.04661249 252.2961335 306.02535389 252.2966319 307.03375413 C252.30493776 322.89981669 252.33028391 338.76580398 252.36274669 354.63183366 C252.39577938 370.90861643 252.41382534 387.18536091 252.41702431 403.4621774 C252.41919279 412.60614826 252.42799075 421.75000933 252.45348549 430.8939476 C252.47514068 438.67890578 252.48326853 446.46372752 252.47351871 454.24871241 C252.46895905 458.22290145 252.47095619 462.19680867 252.49028015 466.17095947 C252.50780657 469.8067149 252.50700084 473.44198071 252.49138286 477.07774056 C252.48785438 479.02125466 252.50411126 480.96477328 252.52098733 482.90821731 C252.51240644 484.05750186 252.50382555 485.2067864 252.49498463 486.39089775 C252.49596144 487.38468087 252.49693824 488.37846399 252.49794465 489.40236175 C252 492 252 492 250.49107426 494.31910861 C246.97470162 496.69183615 243.74569193 496.55151774 239.64782715 496.50336456 C238.79346982 496.50917833 237.93911249 496.51499209 237.05886555 496.52098203 C234.17633135 496.53565972 231.29463833 496.52166066 228.41210938 496.50793457 C226.33260409 496.51254041 224.25310205 496.51889118 222.17360687 496.52684355 C216.44388556 496.54360347 210.71442937 496.53526025 204.98470688 496.52289867 C198.8114819 496.51387771 192.63830369 496.5278032 186.46508789 496.53881836 C175.06561315 496.55560886 163.66624697 496.55410901 152.26677489 496.54317249 C141.73667871 496.53311935 131.20661367 496.53047921 120.67651367 496.53526306 C119.97865035 496.5355686 119.28078703 496.53587414 118.56177634 496.53618894 C115.7290851 496.53743425 112.89639388 496.53870784 110.06370267 496.540028 C83.4784206 496.55227032 56.89319263 496.54116014 30.30791891 496.51964041 C6.67660445 496.50065727 -16.9546238 496.50235576 -40.5859375 496.52148438 C-67.12187778 496.54289226 -93.65777024 496.55140218 -120.19371796 496.53903532 C-123.02131652 496.53775241 -125.84891509 496.53650105 -128.67651367 496.53526306 C-129.37276582 496.53494675 -130.06901797 496.53463044 -130.78636867 496.53430455 C-141.31112411 496.52975025 -151.83584504 496.53508395 -162.3605957 496.54518127 C-174.3249731 496.55660237 -186.28924863 496.5534069 -198.25362206 496.5320583 C-204.36240802 496.52151871 -210.47101865 496.51747552 -216.57980347 496.53065491 C-222.16578634 496.54252444 -227.75143043 496.53610639 -233.33738232 496.5147447 C-235.36423499 496.51025548 -237.39111596 496.51259643 -239.41795063 496.52224785 C-242.16165651 496.53431639 -244.90418405 496.52203461 -247.64782715 496.50336456 C-248.84323514 496.51741156 -248.84323514 496.51741156 -250.06279278 496.53174233 C-253.48398055 496.48483691 -255.62420242 496.25372545 -258.49037594 494.31858486 C-260.35348442 491.45709422 -260.50206999 489.80329261 -260.50615788 486.39927769 C-260.51720556 485.25184324 -260.52825325 484.10440879 -260.53963572 482.9222036 C-260.53139495 481.66103452 -260.52315418 480.39986545 -260.5146637 479.10047913 C-260.51998758 477.74764813 -260.52705236 476.39482305 -260.53571075 475.04200929 C-260.55438642 471.32085695 -260.54801642 467.60010125 -260.53755772 463.87893212 C-260.53057955 459.86724546 -260.54655311 455.85564142 -260.55955505 451.84397888 C-260.58122376 443.98341178 -260.58106081 436.12298929 -260.57292951 428.26240212 C-260.56663556 421.87474898 -260.56776098 415.48713808 -260.57420158 409.0994854 C-260.57510324 408.19115248 -260.57600489 407.28281957 -260.57693387 406.34696142 C-260.57878503 404.5018202 -260.58064759 402.65667899 -260.58252143 400.81153779 C-260.59910998 383.49917001 -260.59037182 366.18688367 -260.57353585 348.87452077 C-260.55883878 333.02862521 -260.57346551 317.18291926 -260.60230602 301.33704812 C-260.63168429 285.07486816 -260.64267683 268.81277577 -260.63312382 252.55057043 C-260.63210124 250.71182376 -260.63110663 248.87307707 -260.6301403 247.03433037 C-260.62966391 246.12958571 -260.62918752 245.22484106 -260.6286967 244.29267989 C-260.62653044 237.91197022 -260.63634789 231.53134325 -260.65091133 225.15065193 C-260.66840935 217.37560502 -260.6683539 209.60079988 -260.64555968 201.82576258 C-260.63439413 197.85747007 -260.6313067 193.88960391 -260.64986038 189.9213295 C-260.66662136 186.28979697 -260.66037506 182.65906407 -260.63564359 179.02758377 C-260.6284215 177.08889277 -260.64582928 175.15015859 -260.66405493 173.2115398 C-260.56274875 163.83253234 -260.56274875 163.83253234 -257.58538723 160.77727413 C-256.73220944 160.19077367 -255.87903166 159.6042732 -255 159 C-254.01277954 158.27586914 -254.01277954 158.27586914 -253.00561523 157.53710938 C-252.36309814 157.14330078 -251.72058105 156.74949219 -251.05859375 156.34375 C-249.95233643 155.65684082 -249.95233643 155.65684082 -248.82373047 154.95605469 C-247.64254639 154.23530762 -247.64254639 154.23530762 -246.4375 153.5 C-244.71928716 152.43352306 -243.00186331 151.36577411 -241.28515625 150.296875 C-240.40617676 149.75095703 -239.52719727 149.20503906 -238.62158203 148.64257812 C-234.50543966 146.06356845 -230.4401731 143.40836115 -226.375 140.75 C-218.77666953 135.79113704 -211.14675523 130.88384253 -203.5 126 C-193.38606042 119.53870176 -183.31083023 113.02057212 -173.25537109 106.46875 C-162.76487332 99.63709438 -152.23593386 92.86682165 -141.6875 86.125 C-131.51182708 79.6209142 -121.37371852 73.06154816 -111.25537109 66.46875 C-100.76487332 59.63709438 -90.23593386 52.86682165 -79.6875 46.125 C-69.51628003 39.62376043 -59.3825183 33.06738562 -49.26855469 26.47753906 C-44.35797092 23.27921223 -39.44333072 20.08769092 -34.51171875 16.921875 C-31.09137648 14.72159149 -27.70946087 12.46867384 -24.33203125 10.203125 C-22.36738989 8.90594341 -20.40254809 7.60906536 -18.4375 6.3125 C-17.5211377 5.68738525 -16.60477539 5.06227051 -15.66064453 4.41821289 C-10.13826771 0.80696098 -6.62191605 -1.14335241 0 0 Z M-10.16796875 21.45703125 C-11.37005981 22.25137573 -11.37005981 22.25137573 -12.59643555 23.06176758 C-13.45148682 23.63950928 -14.30653809 24.21725098 -15.1875 24.8125 C-17.01026434 26.0210631 -18.83318325 27.22939311 -20.65625 28.4375 C-21.56375 29.04335938 -22.47125 29.64921875 -23.40625 30.2734375 C-26.97943372 32.65197245 -30.5803806 34.98588575 -34.1875 37.3125 C-34.85765137 37.74618896 -35.52780273 38.17987793 -36.21826172 38.62670898 C-42.5680863 42.73279223 -48.94094811 46.80274936 -55.3125 50.875 C-65.48817292 57.3790858 -75.62628148 63.93845184 -85.74462891 70.53125 C-97.31473951 78.06597455 -108.93495827 85.52088476 -120.5690918 92.95629883 C-127.86897669 97.62564426 -135.1428413 102.33299625 -142.40161133 107.06591797 C-149.0779794 111.41359982 -155.78581325 115.71100275 -162.5 120 C-172.6138816 126.46138978 -182.68916895 132.97942735 -192.74462891 139.53125 C-196.22264399 141.79621414 -199.70391381 144.05611489 -203.1875 146.3125 C-203.84991699 146.74167725 -204.51233398 147.17085449 -205.19482422 147.61303711 C-209.57677535 150.44682167 -213.97124433 153.26048902 -218.37109375 156.06640625 C-219.49780322 156.78539964 -220.6245122 157.50439378 -221.7512207 158.22338867 C-223.95278579 159.62812292 -226.15597948 161.03018664 -228.36010742 162.4309082 C-229.88728394 163.40483521 -229.88728394 163.40483521 -231.4453125 164.3984375 C-232.34781738 164.97255371 -233.25032227 165.54666992 -234.18017578 166.13818359 C-235.11071777 166.75258301 -236.04125977 167.36698242 -237 168 C-237.87962964 168.4498316 -237.87962964 168.4498316 -238.77702957 168.90875071 C-241.70120458 170.58017384 -243.65499193 171.84144046 -244.64291275 175.15894282 C-244.8856887 177.93901962 -244.89906608 180.64358819 -244.84178162 183.43391418 C-244.84776259 184.49582637 -244.85374356 185.55773856 -244.85990578 186.6518299 C-244.87145237 190.21639557 -244.83291082 193.77866383 -244.79467773 197.34301758 C-244.7927036 199.89544622 -244.7938108 202.44787885 -244.79777527 205.00030518 C-244.79937018 210.49863312 -244.77949614 215.99621894 -244.7401104 221.4943943 C-244.68320368 229.44364175 -244.66498866 237.3926081 -244.65619446 245.34203716 C-244.64087662 258.23949607 -244.5942994 271.13664496 -244.52807617 284.03393555 C-244.46381615 296.56191456 -244.41427066 309.08980936 -244.38452148 321.61791992 C-244.38268242 322.39023816 -244.38084336 323.1625564 -244.37894856 323.95827822 C-244.36981325 327.83279897 -244.36096731 331.70732032 -244.35226524 335.58184206 C-244.27970618 367.72146261 -244.15449413 399.86066607 -244 432 C-236.08 432 -228.16 432 -220 432 C-220.01189865 428.94838623 -220.0237973 425.89677246 -220.03605652 422.75268555 C-220.14010425 394.75965019 -220.18954428 366.76707074 -220.17953635 338.77386642 C-220.17827386 335.10396437 -220.17748998 331.43406238 -220.17700195 327.76416016 C-220.17684415 326.66825695 -220.17684415 326.66825695 -220.17668317 325.55021429 C-220.17612141 313.72492273 -220.21431849 301.90005855 -220.26687535 290.07489741 C-220.31995187 277.93839602 -220.33129339 265.80237134 -220.3040064 253.66578197 C-220.28848405 246.17826096 -220.30539584 238.69226262 -220.36398569 231.20494872 C-220.40544659 225.46059556 -220.38879856 219.71753657 -220.35058594 213.9732151 C-220.34399386 211.61899171 -220.35619919 209.26462889 -220.38863564 206.91061974 C-220.61818799 189.12000509 -220.61818799 189.12000509 -216.63743114 183.90477371 C-213.82423341 181.81954062 -211.19377111 180.41032227 -208 179 C-206.31332995 177.90243287 -204.64248562 176.7796549 -202.99780273 175.62011719 C-201.31148729 174.50970118 -199.62336084 173.40203139 -197.93359375 172.296875 C-197.01522232 171.69296936 -196.09685089 171.08906372 -195.15065002 170.46685791 C-192.24791029 168.55872216 -189.34282335 166.65419906 -186.4375 164.75 C-182.62305412 162.24577125 -178.80954544 159.74011735 -174.99609375 157.234375 C-174.05809433 156.61840958 -173.12009491 156.00244415 -172.15367126 155.36781311 C-165.64472942 151.09059561 -159.15850758 146.78058792 -152.68295288 142.45304871 C-147.18072767 138.77913295 -141.65910714 135.1355561 -136.12890625 131.50390625 C-117.2614882 119.11101956 -98.44556286 106.65099822 -79.75 94 C-63.95949644 83.31597831 -48.10372215 72.7442449 -32.1204834 62.35066223 C-28.32303874 59.87690527 -24.55535514 57.36284001 -20.80078125 54.82421875 C-19.87128662 54.20160156 -18.94179199 53.57898438 -17.98413086 52.9375 C-16.31737364 51.8195702 -14.65727315 50.69160793 -13.00610352 49.55078125 C-9.97605877 47.53279667 -7.59719274 46.1299266 -4.01953125 45.3515625 C0.53208551 46.32901189 3.84353903 48.62275639 7.6875 51.1875 C8.61481934 51.79134521 9.54213867 52.39519043 10.49755859 53.01733398 C22.647747 60.98325745 34.65031152 69.17848288 46.6809082 77.32324219 C61.93859067 87.6470516 77.29368238 97.8171892 92.69189453 107.92993164 C94.40659631 109.05612069 96.12127754 110.18234103 97.8359375 111.30859375 C98.67557037 111.86000031 99.51520325 112.41140686 100.38027954 112.97952271 C106.42914495 116.95618799 112.45688048 120.96369699 118.4765625 124.984375 C125.42595285 129.62602322 132.39035944 134.24358813 139.375 138.83203125 C140.23619949 139.39782394 141.09739899 139.96361664 141.98469543 140.54655457 C143.75014752 141.70631186 145.51561502 142.86604569 147.28109741 144.02575684 C162.97907911 154.34177978 178.62574532 164.72947799 194.1875 175.25 C195.39442505 176.065327 195.39442505 176.065327 196.62573242 176.89712524 C198.87009258 178.41415397 201.11314218 179.93309244 203.35546875 181.453125 C204.01991501 181.90272079 204.68436127 182.35231659 205.36894226 182.8155365 C209.88260248 185.88260248 209.88260248 185.88260248 211 187 C211.1105075 190.14734831 211.15497832 193.27322083 211.15821838 196.42140198 C211.16315636 197.42272673 211.16809434 198.42405148 211.17318195 199.45571941 C211.18863985 202.83839776 211.19693989 206.22105701 211.20532227 209.60375977 C211.21489428 212.01767141 211.22490395 214.43158136 211.23532104 216.8454895 C211.25681812 222.05656279 211.27524812 227.2676375 211.29092598 232.47873116 C211.31359903 240.01317962 211.34174536 247.54759974 211.37124526 255.08202421 C211.4189527 267.30491445 211.46220831 279.52781626 211.50268555 291.75073242 C211.54202446 303.62704367 211.58344681 315.50334462 211.62768555 327.37963867 C211.63040982 328.11118986 211.63313409 328.84274106 211.63594092 329.59646047 C211.64962013 333.26628742 211.66334046 336.93611422 211.67708123 340.60594094 C211.7910955 371.07060614 211.89762057 401.53529334 212 432 C219.92 432 227.84 432 236 432 C236.40727721 399.20951538 236.72936158 366.42000769 236.91917593 333.62757595 C236.94168751 329.75252686 236.96498542 325.87748288 236.98876953 322.00244141 C236.99349112 321.23101991 236.99821271 320.4595984 237.00307737 319.66480049 C237.08131381 307.18848212 237.22318189 294.71366303 237.38875033 282.23823288 C237.55733286 269.42844801 237.65710963 256.6194459 237.69359291 243.80859733 C237.71824346 235.9083101 237.79594559 228.01226015 237.9424964 220.11327842 C238.04929246 214.04641994 238.06013581 207.98317139 238.03593826 201.91526604 C238.04087794 199.43347838 238.07652925 196.95152589 238.14569855 194.4706974 C238.90164675 181.95920847 238.90164675 181.95920847 234.24047232 170.84323597 C229.99381567 167.08358767 225.29197273 164.46549087 220.18143249 162.06045771 C217.08514215 160.55526102 214.32986454 158.70823544 211.4765625 156.78515625 C209.52705195 155.54268421 207.57653493 154.30178995 205.625 153.0625 C197.89623336 148.13511583 190.18065507 143.18959149 182.5 138.1875 C181.68313721 137.65560059 180.86627441 137.12370117 180.0246582 136.57568359 C178.43480928 135.54017194 176.84504436 134.50453129 175.25537109 133.46875 C164.76487332 126.63709438 154.23593386 119.86682165 143.6875 113.125 C133.51182708 106.6209142 123.37371852 100.06154816 113.25537109 93.46875 C102.76487332 86.63709438 92.23593386 79.86682165 81.6875 73.125 C71.51182708 66.6209142 61.37371852 60.06154816 51.25537109 53.46875 C39.48232888 45.80187168 27.66164771 38.21068669 15.81567383 30.65698242 C14.80400146 30.01092041 13.7923291 29.3648584 12.75 28.69921875 C11.77546875 28.07837402 10.8009375 27.4575293 9.796875 26.81787109 C6.45064333 24.64293735 3.18188786 22.36607522 -0.0625 20.04223633 C-4.07160841 17.88562295 -6.72263742 19.14983029 -10.16796875 21.45703125 Z M-6.95283508 64.95378113 C-8.06153206 65.71178764 -8.06153206 65.71178764 -9.19262695 66.48510742 C-10.03392654 67.05287399 -10.87522614 67.62064056 -11.74201965 68.20561218 C-12.64828598 68.83256485 -13.55455231 69.45951752 -14.48828125 70.10546875 C-15.4242363 70.74108231 -16.36019135 71.37669586 -17.32450867 72.03157043 C-20.32720293 74.07391645 -23.31988428 76.1304217 -26.3125 78.1875 C-28.31901266 79.5562901 -30.32616664 80.9241406 -32.33398438 82.29101562 C-36.03309636 84.81080207 -39.72817904 87.33628285 -43.41918945 89.86791992 C-46.92842791 92.272836 -50.45265155 94.65170405 -54 97 C-48.99744121 103.04265914 -43.56822676 108.56098043 -38.0078125 114.08984375 C-37.05209752 115.04368954 -36.09660612 115.99775941 -35.1413269 116.95204163 C-32.64805084 119.44153194 -30.15178475 121.92800224 -27.65484619 124.41381836 C-25.09878491 126.95957994 -22.54561495 129.50823777 -19.9921875 132.05664062 C-14.99758981 137.04057069 -9.99982201 142.02131048 -5 147 C-1.34118823 145.46043866 0.9829179 143.25910943 3.76855469 140.45849609 C4.45705757 139.77043129 4.45705757 139.77043129 5.1594696 139.06846619 C6.66839675 137.5581509 8.17012454 136.04088612 9.671875 134.5234375 C10.71947224 133.4721083 11.76751328 132.42122115 12.815979 131.37075806 C15.5691252 128.60998984 18.31621127 125.84326751 21.06207275 123.07525635 C23.86716916 120.24967072 26.67796321 117.42976555 29.48828125 114.609375 C34.99777532 109.07845626 40.50087877 103.54123411 46 98 C43.36489319 95.23624661 40.74066521 92.99933242 37.55444336 90.8996582 C36.24805153 90.03405022 36.24805153 90.03405022 34.91526794 89.1509552 C33.98287796 88.5403978 33.05048798 87.92984039 32.08984375 87.30078125 C31.12599258 86.66512741 30.16214142 86.02947357 29.16908264 85.3745575 C27.13563232 84.03509258 25.10063736 82.69797005 23.06420898 81.36303711 C19.94169399 79.31525048 16.82502402 77.25879484 13.70898438 75.20117188 C11.73211229 73.90052254 9.75490995 72.60037498 7.77734375 71.30078125 C6.84292953 70.68415115 5.90851532 70.06752106 4.94578552 69.4322052 C4.0780098 68.86458969 3.21023407 68.29697418 2.31616211 67.7121582 C1.55323349 67.21126175 0.79030487 66.7103653 0.0042572 66.19429016 C-3.34535908 64.09932592 -3.34535908 64.09932592 -6.95283508 64.95378113 Z M-73.69580078 109.42407227 C-74.87673561 110.2230468 -74.87673561 110.2230468 -76.08152771 111.03816223 C-76.94407669 111.62498276 -77.80662567 112.21180328 -78.6953125 112.81640625 C-79.58738907 113.42034714 -80.47946564 114.02428802 -81.39857483 114.64653015 C-83.31462149 115.94374195 -85.23002862 117.24189877 -87.14486694 118.54089355 C-115.61276395 137.8524085 -115.61276395 137.8524085 -130.00244141 147.04907227 C-130.82019043 147.57428467 -131.63793945 148.09949707 -132.48046875 148.640625 C-133.17035889 149.07922852 -133.86024902 149.51783203 -134.57104492 149.96972656 C-135.0426001 150.3097168 -135.51415527 150.64970703 -136 151 C-136 151.33 -136 151.66 -136 152 C-99.37 152 -62.74 152 -25 152 C-29.95090127 146.20590194 -29.95090127 146.20590194 -35.15356445 140.71704102 C-35.91067215 139.95678116 -36.66777985 139.1965213 -37.4478302 138.41322327 C-38.64347847 137.22061134 -38.64347847 137.22061134 -39.86328125 136.00390625 C-41.11216377 134.75358864 -41.11216377 134.75358864 -42.38627625 133.47801208 C-44.13397467 131.72963672 -45.8829223 129.98250926 -47.63305664 128.23657227 C-50.32489628 125.55012856 -53.01130787 122.85833878 -55.69726562 120.16601562 C-57.39811659 118.46582473 -59.09927733 116.76594368 -60.80078125 115.06640625 C-61.60800125 114.25716202 -62.41522125 113.44791779 -63.24690247 112.614151 C-63.98824936 111.87595627 -64.72959625 111.13776154 -65.4934082 110.37719727 C-66.14815628 109.72324478 -66.80290436 109.0692923 -67.47749329 108.39552307 C-70.09243025 105.99868316 -70.98234756 107.58215055 -73.69580078 109.42407227 Z M56.84741211 111.02319336 C55.96657455 111.90087875 55.085737 112.77856415 54.1782074 113.68284607 C53.21112527 114.65171797 52.24417384 115.62072034 51.27734375 116.58984375 C50.29242873 117.57408576 49.30736526 118.55817923 48.32215881 119.54212952 C46.25505068 121.60776053 44.18976947 123.67519689 42.12573242 125.74389648 C39.4735405 128.4017857 36.81688573 131.05516154 34.15885067 133.70720577 C32.12309783 135.73935337 30.08972268 137.77386657 28.05706978 139.80911446 C27.07814622 140.78870739 26.09847299 141.76755174 25.11805534 142.74564934 C23.75068837 144.11049042 22.38684703 145.47886095 21.02319336 146.84741211 C20.24455429 147.62684677 19.46591522 148.40628143 18.66368103 149.20933533 C16.88655777 150.71472741 16.88655777 150.71472741 17 152 C53.63 152 90.26 152 128 152 C124.92135826 149.53708661 122.01204459 147.25568952 118.77075195 145.07421875 C117.96833572 144.53265137 117.16591949 143.99108398 116.33918762 143.43310547 C115.48088852 142.85705566 114.62258942 142.28100586 113.73828125 141.6875 C112.38128365 140.77315186 112.38128365 140.77315186 110.99687195 139.84033203 C108.10343992 137.89152772 105.20797336 135.94576969 102.3125 134 C100.41588821 132.72284544 98.51940267 131.44550338 96.62304688 130.16796875 C91.98659676 127.04578956 87.34668393 123.92881306 82.70465088 120.81494141 C80.89704927 119.60196008 79.09004496 118.38808821 77.28363037 117.17333984 C74.74657617 115.46747903 72.20755877 113.76458252 69.66796875 112.0625 C68.90390213 111.54800293 68.13983551 111.03350586 67.35261536 110.50341797 C61.64692397 106.42663098 61.64692397 106.42663098 56.84741211 111.02319336 Z M-178.98376262 179.55711102 C-181.77342789 181.55349166 -184.65977644 182.62066662 -187.90541077 183.68434143 C-194.63589608 186.17809915 -200.66250136 189.34648725 -204 196 C-208.7355962 211.35734613 -206.73846355 229.34892132 -206.33206058 245.17617488 C-206.18766277 251.74993381 -206.1747233 258.32396303 -206.1474762 264.89906311 C-206.08808008 275.92172327 -205.9408912 286.94082372 -205.73510742 297.96166992 C-205.52351394 309.30555784 -205.36095391 320.64842986 -205.26342773 331.99389648 C-205.25738509 332.69488659 -205.25134245 333.39587669 -205.2451167 334.11810892 C-205.21509767 337.63528389 -205.18603315 341.15246597 -205.15744293 344.66965282 C-204.91956009 373.78260589 -204.49588324 402.89016105 -204 432 C-174.96 432 -145.92 432 -116 432 C-114.35 427.05 -112.7 422.1 -111 417 C-106.09615659 407.09223474 -106.09615659 407.09223474 -102.81640625 403.82421875 C-100.76480408 402.19284524 -100.76480408 402.19284524 -101 400 C-100.41734375 399.72929687 -99.8346875 399.45859375 -99.234375 399.1796875 C-97.01083007 398.00571797 -95.21258413 396.69020139 -93.25 395.125 C-83.4550062 387.6974309 -72.84357307 384.57529979 -60.6171875 384.48828125 C-59.78195557 384.47164429 -58.94672363 384.45500732 -58.08618164 384.43786621 C-55.01603439 384.38076343 -51.94547315 384.3479895 -48.875 384.3125 C-38.541875 384.1578125 -38.541875 384.1578125 -28 384 C-28 365.52 -28 347.04 -28 328 C-33.88972656 327.97421875 -39.77945313 327.9484375 -45.84765625 327.921875 C-49.60746371 327.89667061 -53.36719357 327.8703101 -57.12695312 327.83984375 C-63.0778825 327.79173002 -69.02863195 327.74760303 -74.97973633 327.72900391 C-79.78457112 327.7137171 -84.58893106 327.67906235 -89.39355278 327.63169098 C-91.21485677 327.61699998 -93.03622859 327.60896615 -94.85759163 327.60811615 C-116.52875466 327.58785533 -135.63949244 322.56119681 -151.34765625 306.84765625 C-165.19783549 291.97758163 -171.50464054 274.85820785 -171.3984375 254.68359375 C-171.40130768 253.46470963 -171.40417786 252.2458255 -171.40713501 250.99000549 C-171.40916171 248.43791229 -171.40373044 245.88580305 -171.39111328 243.33374023 C-171.37491442 239.41680756 -171.39107447 235.50088718 -171.41015625 231.58398438 C-171.40817603 229.09635189 -171.40433694 226.60872003 -171.3984375 224.12109375 C-171.40754654 222.36338905 -171.40754654 222.36338905 -171.4168396 220.57017517 C-171.40738312 219.48797195 -171.39792664 218.40576874 -171.38818359 217.29077148 C-171.38579681 216.33879379 -171.38341003 215.3868161 -171.38095093 214.4059906 C-170.91980747 211.4935241 -170.29490263 210.79325811 -168 209 C-165.92361069 208.61968327 -165.92361069 208.61968327 -163.48822021 208.61231995 C-162.10097244 208.597463 -162.10097244 208.597463 -160.68569946 208.58230591 C-159.16630264 208.58905838 -159.16630264 208.58905838 -157.61621094 208.59594727 C-156.01309555 208.58565239 -156.01309555 208.58565239 -154.37759399 208.57514954 C-150.82972051 208.55679129 -147.28228601 208.56073587 -143.734375 208.56640625 C-141.263528 208.56184503 -138.79268226 208.55653963 -136.32183838 208.55052185 C-131.1298713 208.54157024 -125.93805781 208.54403285 -120.74609375 208.55395508 C-114.12569081 208.56537968 -107.50582641 208.54534368 -100.88549423 208.51603794 C-95.77387164 208.49758266 -90.66237544 208.4979881 -85.55072784 208.50367546 C-83.11254375 208.5038279 -80.67435066 208.49784821 -78.23619843 208.48538399 C-55.23796616 208.38448453 -35.43204988 211.3479775 -18.08984375 227.70117188 C-13.00323312 232.75275075 -8.22084094 238.55831813 -5 245 C-4.34 245 -3.68 245 -3 245 C-1.93882745 243.41427057 -0.9525663 241.77825208 0 240.125 C10.14100922 223.82395626 26.40223308 214.05838516 44.80821037 209.61460495 C49.75593424 208.66188064 54.57042012 208.5812804 59.59594727 208.61181641 C60.68528061 208.60655945 61.77461395 208.60130249 62.8969574 208.59588623 C66.45359138 208.58281187 70.00976871 208.59137404 73.56640625 208.6015625 C76.05313706 208.59953948 78.53986728 208.59662614 81.02659607 208.59286499 C86.21513569 208.58845983 91.40351958 208.59481937 96.59204102 208.60888672 C101.92190544 208.62263213 107.25145781 208.62334646 112.58129883 208.60888672 C119.03367036 208.5915339 125.48585891 208.58874906 131.93824577 208.5985527 C134.39471415 208.600556 136.85119032 208.59809094 139.30764961 208.59111404 C142.72818053 208.58352336 146.14811708 208.59506717 149.56860352 208.61181641 C151.09507004 208.60270737 151.09507004 208.60270737 152.65237427 208.59341431 C153.5815416 208.60187378 154.51070892 208.61033325 155.46803284 208.61904907 C156.6793958 208.62074569 156.6793958 208.62074569 157.91523075 208.62247658 C160.52177106 209.09448566 161.40903191 209.91632311 163 212 C163.38768005 214.38580322 163.38768005 214.38580322 163.40405273 217.24316406 C163.42307899 218.85194427 163.42307899 218.85194427 163.44248962 220.4932251 C163.43808617 222.23681305 163.43808617 222.23681305 163.43359375 224.015625 C163.4388356 225.21878357 163.44407745 226.42194214 163.44947815 227.66156006 C163.45591186 230.21707386 163.45454404 232.77261723 163.44604492 235.328125 C163.43762361 239.19326562 163.46613547 243.05688388 163.49804688 246.921875 C163.56939525 271.26410508 163.56939525 271.26410508 159 283 C158.55394409 284.15749756 158.55394409 284.15749756 158.09887695 285.33837891 C150.63176585 302.72672181 136.5493898 314.81260048 119.62890625 322.67578125 C107.82133677 326.98446376 96.86922195 327.46914352 84.453125 327.51171875 C82.58696332 327.52859526 80.72081279 327.54674941 78.85467529 327.56611633 C73.98209116 327.61330008 69.1095523 327.64331292 64.23681641 327.66955566 C58.36943251 327.70480601 52.50222236 327.76172737 46.63497925 327.81494904 C37.75667599 327.89309141 28.87859433 327.94397754 20 328 C20 346.48 20 364.96 20 384 C33.47554386 384.13059367 33.47554386 384.13059367 46.95141602 384.20776367 C62.54233018 384.38777648 75.67892211 386.60101026 88 397 C88.54140625 397.56460938 89.0828125 398.12921875 89.640625 398.7109375 C90.92964329 400.22936386 90.92964329 400.22936386 93 400 C93.27199219 400.5775 93.54398437 401.155 93.82421875 401.75 C94.99820543 403.99656588 96.33561067 405.94248663 97.8125 408 C102.81440722 415.41113881 105.55670884 423.44848092 108 432 C137.04 432 166.08 432 196 432 C196.70722181 402.29294406 197.29733419 372.59057005 197.63409054 342.87735613 C197.67410689 339.35938473 197.71552581 335.84143114 197.7578125 332.32348633 C197.7704034 331.27307148 197.7704034 331.27307148 197.78324866 330.20143612 C197.92201554 318.90286883 198.17401143 307.6095807 198.46888947 296.31413243 C198.76955767 284.69885257 198.94376958 273.08662344 199.01083183 261.46763581 C199.05237902 254.94869629 199.14903977 248.44166484 199.38336182 241.92656898 C201.61545481 215.54796251 201.61545481 215.54796251 192.88366699 191.7979393 C185.89770033 184.85472412 177.21105431 180.45948589 168.13668823 176.87062359 C164.65387328 175.46282009 161.87672531 173.52218532 158.82153225 171.34618473 C152.530606 167.26831706 147.25043438 166.99863853 139.89112854 167.07073975 C138.61360574 167.05558642 137.33608294 167.04043309 136.01984733 167.02482057 C132.50287602 166.98424545 128.98710145 166.98675464 125.46996033 166.99697304 C121.66520646 167.00047832 117.86079713 166.9637798 114.05619812 166.93264771 C106.61196579 166.87851806 99.16813724 166.86283488 91.72372592 166.86238608 C85.6657531 166.86179108 79.60790948 166.84972194 73.54997063 166.82965851 C56.34021767 166.77380003 39.13077062 166.74608067 21.92092753 166.75616881 C20.53126347 166.75698244 20.53126347 166.75698244 19.11352539 166.7578125 C18.18593908 166.75836098 17.25835276 166.75890945 16.30265778 166.75947455 C1.28819714 166.76666649 -13.72516573 166.70764403 -28.73933279 166.61806509 C-44.18939159 166.52661569 -59.6389202 166.48410028 -75.08925587 166.49215722 C-83.74998146 166.49571575 -92.40961224 166.47985854 -101.07009697 166.41155243 C-108.44788111 166.35377745 -115.82403595 166.34211813 -123.20193207 166.38788971 C-126.95842659 166.4099351 -130.71184071 166.41210724 -134.46805191 166.35612106 C-152.69430279 166.10160817 -164.47495366 168.14519518 -178.98376262 179.55711102 Z M-156 224 C-156.05027161 228.30092956 -156.08612107 232.60169343 -156.10986328 236.90283203 C-156.1197839 238.35924262 -156.13332468 239.81563407 -156.15087891 241.27197266 C-156.3930961 261.91742637 -153.80858147 280.57695457 -139 296 C-122.46708971 311.26809748 -102.86478044 312.33262459 -81.5703125 312.1953125 C-79.84154425 312.19157202 -78.11277384 312.18872995 -76.38400269 312.18673706 C-71.88289302 312.17918198 -67.38191703 312.1596056 -62.88085938 312.1373291 C-58.26824755 312.1166933 -53.65561365 312.10769782 -49.04296875 312.09765625 C-40.02858782 312.07635017 -31.01430512 312.04231528 -22 312 C-22.92500301 310.73709894 -23.85422962 309.47729092 -24.78515625 308.21875 C-25.30215088 307.51685547 -25.81914551 306.81496094 -26.35180664 306.09179688 C-28.45553011 303.4218661 -30.804668 301.11096307 -33.24609375 298.75390625 C-34.94632825 297.05367175 -36.46486815 295.28672532 -38 293.4375 C-48.70344883 281.08184095 -61.70983844 270.33691613 -75.17578125 261.12109375 C-75.86607422 260.64051514 -76.55636719 260.15993652 -77.26757812 259.66479492 C-78.59561811 258.74598025 -79.93635429 257.84515675 -81.29101562 256.96606445 C-84.67440508 254.62117248 -85.90538579 253.35938138 -86.96875 249.3203125 C-86.99919121 246.08593431 -86.88624948 244.58118349 -85 242 C-81.76728548 240.38364274 -78.5002356 240.48878348 -75 241 C-72.40025287 242.41910134 -70.40244809 243.6920144 -68.125 245.5 C-67.51914063 245.95777832 -66.91328125 246.41555664 -66.2890625 246.88720703 C-64.51057788 248.23943938 -62.75389702 249.616106 -61 251 C-60.13117188 251.66773438 -59.26234375 252.33546875 -58.3671875 253.0234375 C-55.87404375 254.97352024 -53.43427938 256.97694127 -51 259 C-49.99066406 259.82371094 -48.98132813 260.64742188 -47.94140625 261.49609375 C-38.01200291 269.71821855 -28.99851508 278.81178915 -19.96826172 287.99951172 C-17.65889834 290.34668655 -15.33301913 292.67636928 -13 295 C-12.42409883 276.05063662 -12.39805799 261.79153218 -24 246 C-24.50015625 245.29230469 -25.0003125 244.58460938 -25.515625 243.85546875 C-33.6657724 233.42081034 -47.17096483 226.37970613 -60.18860435 224.72115421 C-65.88457083 224.12657439 -71.48875818 223.86031973 -77.21337891 223.88647461 C-78.07315338 223.88632858 -78.93292786 223.88618256 -79.8187561 223.8860321 C-82.62138517 223.88672105 -85.42394525 223.89446505 -88.2265625 223.90234375 C-90.1852515 223.90421156 -92.14394098 223.90563375 -94.10263062 223.90663147 C-99.22846798 223.9104281 -104.35427648 223.92023366 -109.48010254 223.93133545 C-114.72240814 223.94161129 -119.96471846 223.94614225 -125.20703125 223.95117188 C-135.47136677 223.96185879 -145.73568097 223.97890048 -156 224 Z M17.359375 243.859375 C4.96803471 259.36906583 3.55375124 276.9104696 4 296 C7.95151368 293.12617187 10.94968573 289.85064235 14.10351562 286.16748047 C23.11619863 275.86693982 33.15985459 266.34213182 44 258 C45.15650461 257.0787738 46.31135231 256.15546503 47.46484375 255.23046875 C50.94570705 252.44605781 54.46405212 249.71393785 58 247 C59.29164063 245.99453125 59.29164063 245.99453125 60.609375 244.96875 C65.62076178 241.30525346 68.77968285 240.14202522 75 241 C78 243 78 243 78.875 246.3125 C79.01909865 250.56341011 78.49068096 251.64636526 76 255 C73.25 257.140625 73.25 257.140625 70 259.25 C59.91549427 265.96454011 50.93151344 273.83635424 42 282 C41.05253906 282.84304688 40.10507812 283.68609375 39.12890625 284.5546875 C33.67854223 289.42551012 28.47690198 294.45606891 23.5 299.8125 C23.00773926 300.3394043 22.51547852 300.86630859 22.00830078 301.40917969 C18.96363064 304.74076558 16.46633456 308.2294043 14 312 C23.92812664 312.04660497 33.85622671 312.08201095 43.78444099 312.10362434 C48.39588445 312.1140044 53.00725235 312.1280563 57.61865234 312.15087891 C62.07961633 312.17281557 66.54050824 312.18461192 71.00152206 312.18975449 C72.6925253 312.19341326 74.38352518 312.2005563 76.07449722 312.21146011 C97.08671566 312.34140437 116.19116559 310.17900037 132 295 C140.20843394 286.11157745 147.1510253 274.14039947 147.11352539 261.69042969 C147.11344986 260.84986023 147.11337433 260.00929077 147.11329651 259.14324951 C147.10813522 258.24519592 147.10297394 257.34714233 147.09765625 256.421875 C147.0962413 255.4953009 147.09482635 254.56872681 147.09336853 253.61407471 C147.08777824 250.65935008 147.0752275 247.70470167 147.0625 244.75 C147.05748375 242.74479276 147.05292106 240.73958433 147.04882812 238.734375 C147.03781199 233.82288737 147.020554 228.9114566 147 224 C135.89841689 223.95343588 124.79685743 223.91800937 113.69519615 223.89637566 C108.53894957 223.88598688 103.38277034 223.87191845 98.2265625 223.84912109 C93.24040703 223.8272163 88.25431591 223.81539459 83.268116 223.81024551 C81.37615574 223.80658115 79.48419857 223.79942667 77.59226608 223.78853989 C54.41438811 223.66060362 33.84976676 226.00291529 17.359375 243.859375 Z M-12 328 C-12 346.48 -12 364.96 -12 384 C-6.72 384 -1.44 384 4 384 C4 365.52 4 347.04 4 328 C-1.28 328 -6.56 328 -12 328 Z M-89.7265625 413.390625 C-94.3434465 418.68972897 -98 424.88947723 -98 432 C-97.17980881 432.00586624 -96.35961761 432.01173248 -95.51457214 432.01777649 C-87.78932429 432.07565291 -80.06440083 432.14769996 -72.33944225 432.23571491 C-68.36783561 432.28046453 -64.39633262 432.31971021 -60.42456055 432.34643555 C-56.5923738 432.37242319 -52.760585 432.41279253 -48.92864418 432.46318626 C-47.46585345 432.47988589 -46.00299385 432.49138088 -44.54012108 432.49761391 C-42.49271183 432.50722194 -40.44632776 432.5352383 -38.39916992 432.56762695 C-37.23334885 432.57873001 -36.06752777 432.58983307 -34.86637878 432.60127258 C-32 433 -32 433 -30.12495422 434.40592957 C-28.72140115 436.39477712 -28.59750346 437.58030472 -28.625 440 C-28.61726562 440.680625 -28.60953125 441.36125 -28.6015625 442.0625 C-29.15365345 444.74717757 -29.73349785 445.40964195 -32 447 C-34.87411333 447.30049959 -37.53319878 447.4158092 -40.40910339 447.39872742 C-41.27737977 447.40537424 -42.14565614 447.41202107 -43.04024392 447.41886932 C-45.96078504 447.43757847 -48.88091932 447.43488872 -51.80151367 447.43237305 C-53.89060549 447.44138537 -55.979692 447.45171128 -58.06877136 447.46325684 C-63.75024453 447.4909151 -69.43161761 447.50012333 -75.1131494 447.50611091 C-81.04693453 447.51547165 -86.98064422 447.5416731 -92.91438293 447.56611633 C-104.15529615 447.60984846 -115.39619477 447.63835417 -126.63716727 447.66143972 C-139.43268358 447.68845545 -152.22812425 447.73236915 -165.02358663 447.77772844 C-191.34901841 447.87067086 -217.67447067 447.9417082 -244 448 C-244 458.56 -244 469.12 -244 480 C-85.6 480 72.8 480 236 480 C236 469.44 236 458.88 236 448 C232.02606453 447.99120064 232.02606453 447.99120064 227.97184753 447.98222351 C203.05828314 447.92563913 178.14480616 447.85260213 153.23133373 447.76428509 C140.42172759 447.71927393 127.61214957 447.67987161 114.80249023 447.65356445 C103.64069119 447.63062739 92.47898078 447.59727767 81.31725198 447.55129844 C75.40439643 447.52730821 69.49162897 447.50861751 63.57872581 447.50238609 C58.01785726 447.49636141 52.45721429 447.47645687 46.89642906 447.44572449 C44.85136986 447.43690212 42.80628124 447.4332303 40.76120377 447.43499184 C37.97690626 447.43663345 35.19330567 447.42004103 32.40910339 447.39872742 C31.59296088 447.40357499 30.77681836 447.40842257 29.93594426 447.41341704 C24.49060388 447.34424668 24.49060388 447.34424668 21.99933338 445.59617329 C20.75379179 443.60674688 20.59841756 442.33925458 20.625 440 C20.61726563 439.319375 20.60953125 438.63875 20.6015625 437.9375 C21.13723364 435.3326678 21.87003338 434.59707196 24 433 C26.86637878 432.60127258 26.86637878 432.60127258 30.39916992 432.56762695 C31.36543053 432.55233948 31.36543053 432.55233948 32.35121155 432.53674316 C34.47771869 432.50657961 36.60377566 432.49734269 38.73046875 432.48828125 C40.20593263 432.47143694 41.68138213 432.45328703 43.15681458 432.43388367 C47.03819284 432.38635007 50.91951285 432.35656274 54.80108643 432.33044434 C58.76269031 432.30065556 62.72409337 432.25411952 66.68554688 432.20898438 C74.45693168 432.12291317 82.22833102 432.05558519 90 432 C88.622449 421.393555 83.68272057 414.76850233 75.56640625 407.91015625 C65.36831408 400.31979541 52.87822841 399.69054243 40.546875 399.74121094 C39.47199829 399.7377063 38.39712158 399.73420166 37.28967285 399.73059082 C33.77638066 399.72186939 30.26329384 399.72758859 26.75 399.734375 C24.28483034 399.7330256 21.81966094 399.73108277 19.35449219 399.72857666 C14.20375011 399.72563837 9.05307769 399.72988128 3.90234375 399.73925781 C-2.67423042 399.75065146 -9.25064129 399.74408504 -15.82720947 399.73211288 C-20.91293552 399.72485927 -25.99862334 399.72719827 -31.08435059 399.73236847 C-33.50826029 399.73369529 -35.93217355 399.73209147 -38.3560791 399.72740936 C-41.75310356 399.72228635 -45.14986961 399.73013499 -48.546875 399.74121094 C-49.53216187 399.73716248 -50.51744873 399.73311401 -51.53259277 399.72894287 C-66.67230176 399.81962696 -78.5141609 402.85026009 -89.7265625 413.390625 Z " fill="#000000" transform="translate(260,16)"/>
<path d="M0 0 C2.5 1.5 2.5 1.5 4 4 C4.791013 8.02098277 4.62153384 10.96411027 2.5 14.5 C-1.03588973 16.62153384 -3.97901723 16.791013 -8 16 C-10.5 14.5 -10.5 14.5 -12 12 C-12.791013 7.97901723 -12.62153384 5.03588973 -10.5 1.5 C-6.96411027 -0.62153384 -4.02098277 -0.791013 0 0 Z " fill="#000000" transform="translate(260,448)"/>
</svg>
